<?xml version="1.0" encoding="UTF-8"?>
<svg id="_レイヤー_2" data-name="レイヤー 2" xmlns="http://www.w3.org/2000/svg" width="339.66" height="217.19" viewBox="0 0 339.66 217.19">
  <defs>
    <style>
      .cls-1 {
        fill: #211815;
      }

      .cls-2 {
        fill: #f5f19b;
      }

      .cls-3 {
        fill: #ecbb6e;
      }

      .cls-4 {
        fill: #93c9ce;
      }

      .cls-5 {
        fill: #5c948d;
      }

      .cls-6 {
        fill: #fffba1;
      }

      .cls-7, .cls-8 {
        fill: #fff;
      }

      .cls-9 {
        fill: #def7c8;
      }

      .cls-10 {
        fill: #ceeaeb;
      }

      .cls-11 {
        fill: #f2d496;
      }

      .cls-8 {
        stroke: #ceeaeb;
        stroke-miterlimit: 10;
        stroke-width: 2.83px;
      }
    </style>
  </defs>
  <g id="_レイヤー_1-2" data-name="レイヤー 1">
    <g>
      <path class="cls-8" d="M9.89,107.66h239.38c4.68,0,8.47,3.79,8.47,8.47v66.99s9.69,9.69,9.69,9.69h-9.69s0,.5,0,.5c0,4.68-3.79,8.47-8.47,8.47H9.89c-4.68,0-8.47-3.79-8.47-8.47v-77.18c0-4.68,3.79-8.47,8.47-8.47Z"/>
      <g>
        <path d="M21.58,128.31c.34,1.29,1.11,2.69,2.07,3.77,1.06,1.23,2.26,2.04,3.97,2.74-.5.57-.69.89-1.05,1.65-2.85-1.45-4.65-3.37-5.73-6.12-.43,1.47-1.2,2.73-2.35,3.85-.97.97-2.01,1.65-3.43,2.28-.24-.56-.54-1-1-1.52,1.75-.7,3-1.56,3.93-2.68.9-1.1,1.38-2.25,1.63-3.98h-3.39c-.92,0-1.33.02-1.82.09v-1.8c.45.06.98.09,1.82.09h3.54c.03-.66.04-1.01.04-1.58,0-.72-.03-1.15-.11-1.57h1.91c-.08.51-.09.7-.11,1.69,0,.61-.01.94-.03,1.46h3.81c.81,0,1.33-.03,1.81-.09v1.8c-.55-.06-1-.09-1.8-.09h-3.72Z"/>
        <path d="M39.69,125.75c1.01,0,1.65-.03,2.06-.09v1.73c-.48-.06-1.2-.09-2.06-.09h-3.04c-.15,2.39-.48,3.69-1.29,5.15,1.69,1.32,3.7,2.02,6.66,2.32-.41.6-.57.92-.9,1.77-1.43-.27-2.34-.51-3.33-.88-1.26-.5-2.45-1.17-3.34-1.92-1.21,1.3-2.66,2.13-5.01,2.86-.27-.66-.48-1.02-.93-1.57,2.37-.62,3.66-1.28,4.75-2.42-.93-1.06-1.51-1.96-2.1-3.29q-.15-.36-.41-.79l1.65-.6c.24,1.14.87,2.38,1.74,3.37.5-1.11.68-1.99.81-4h-4.18c-.92,0-1.47.03-2,.09v-1.73c.41.06,1.04.09,2,.09h4.24v-1.15c0-.54-.01-.84-.07-1.23h1.83q-.06.42-.07,2.38h3Z"/>
        <path d="M50.73,130.61c.53,1.02,1.01,1.64,1.89,2.37,1.17.98,2.1,1.45,3.76,1.94-.43.58-.54.76-.92,1.6-1.58-.55-2.56-1.15-3.73-2.22-.96-.9-1.52-1.63-2.04-2.71-.41,1.05-1.04,1.95-1.95,2.77-1.02.93-2,1.5-3.75,2.19-.29-.65-.5-.98-.9-1.52,2.95-.96,4.6-2.34,5.29-4.42h-3.27c-.67,0-1.18.03-1.74.09v-1.68c.5.06.99.09,1.73.09h3.58c.07-.61.12-1.33.13-2.16h-2.91c-.76,0-1.25.02-1.74.07v-1.63c.51.06,1.02.09,1.74.09h2.91q0-1.54-.08-2.08h1.79q-.08.48-.08,2.08h3.08c.82,0,1.35-.03,1.75-.09v1.63c-.45-.04-.95-.07-1.74-.07h-3.1c-.03.93-.06,1.51-.14,2.16h3.96c.84,0,1.38-.03,1.79-.09v1.68c-.48-.06-1.02-.09-1.77-.09h-3.56Z"/>
        <path d="M65.34,135.06c0,.66-.53,1.18-1.18,1.18s-1.19-.52-1.19-1.18.53-1.19,1.19-1.19,1.18.52,1.18,1.19ZM64.81,132.84h-1.33l-.41-8.98h2.16l-.42,8.98Z"/>
        <path d="M74.58,125.07c1.6,0,2.5-.12,3.25-.42.08-.03.12-.04.17-.04.12,0,.22.07.39.3.33.41.54.81.54.99,0,.13-.09.21-.43.39-2.26,1.11-3.71,3.25-3.71,5.48,0,1.72,1,2.8,2.59,2.8,1.41,0,2.49-.77,3.04-2.16.41-.99.58-2.19.58-3.75,0-1.16-.22-2.35-.64-3.5-.02-.06-.03-.1-.03-.15,0-.15.11-.23.53-.34.4-.1.88-.21,1.02-.21.12,0,.21.06.25.15t.06.28c.09.79.69,2.28,1.33,3.3.46.75,1.14,1.6,1.78,2.26.08.09.11.15.11.23-.02.31-.9,1.3-1.16,1.3-.13,0-.17-.03-.71-.75-.4-.52-1.02-1.9-1.53-3.36.25,1.38.28,1.7.28,2.67,0,1.74-.46,3.23-1.35,4.25-.84.99-2.02,1.48-3.5,1.48-1.32,0-2.35-.38-3.12-1.12-.78-.78-1.2-1.92-1.2-3.25,0-1.02.22-1.95.71-2.92.51-1.06,1-1.68,2.1-2.65-.78.13-.79.13-1.71.27-.09.01-.17.03-.22.04-.09.01-.17.03-.21.03-.27,0-.44-.55-.51-1.68.33.06.83.09,1.28.09Z"/>
        <path d="M91.02,128.34c-.19-.66-.25-1.06-.43-2.91-.06-.72-.12-1.08-.27-1.59.91.02,1.5.06,1.9.17.23.06.33.17.33.33,0,.06-.01.13-.04.25-.1.36-.15.63-.15,1.02,0,.73.15,1.94.32,2.46.09.28.18.39.34.39.36,0,1.68-.69,2.4-1.24.19-.15.22-.17.3-.17.13,0,.27.1.5.39.38.51.67,1.06.67,1.27,0,.17-.11.27-.36.34-.93.25-2.46.85-3.49,1.35-1.83.9-2.66,1.73-2.66,2.65s.76,1.29,2.7,1.29c1.12,0,2.14-.1,3.52-.33.06-.02.17-.03.2-.03.12,0,.19.06.25.18.04.15.15,1.06.15,1.43,0,.21-.06.28-.26.34-.33.08-2.14.18-3.28.18-1.92,0-3.2-.25-3.99-.79-.67-.47-1.04-1.2-1.04-2.1,0-.69.2-1.31.6-1.9.52-.78,1.09-1.27,2.35-2.02-.31-.29-.43-.5-.57-.96Z"/>
        <path d="M103.95,126.62c2.49-.71,3.78-.93,5.19-.93,1.51,0,2.7.41,3.5,1.19.66.68,1.02,1.6,1.02,2.7,0,1.92-1.03,3.54-2.83,4.47-.96.48-1.93.81-3.27,1.06-.58.12-.88.17-1.11.17-.18,0-.27-.06-.36-.23-.34-.69-.48-.9-.93-1.36,2.23-.27,3.45-.57,4.62-1.16,1.28-.63,1.98-1.67,1.98-2.92,0-1.41-.96-2.32-2.43-2.32-1.78,0-3.76.51-6.04,1.56-.41.18-.62.29-.77.38-.27.15-.34.18-.43.18-.29,0-.79-.92-1.14-2.07.69-.09,1.38-.25,3.01-.71Z"/>
        <path d="M121.78,127.44c-3.29.19-4.56.34-5.5.6-.06.02-.12.03-.17.03-.11,0-.2-.08-.24-.2-.13-.38-.21-.87-.25-1.63.18.02.3.02.36.02.48,0,.93-.02,2.37-.1,1.11-.06,2.06-.1,3.41-.17-.01-1.35-.03-1.54-.17-2.23,1.16.03,1.74.09,1.95.18.09.03.13.1.13.26,0,.03-.01.09-.04.17-.13.33-.18.67-.21,1.59,2.19-.04,2.52-.04,4.02-.04.41,0,.46,0,.51.04.06.06.09.28.09.79,0,.69-.02.76-.21.76h-.06c-.64-.07-2.25-.13-3.3-.13q-.34,0-1.09.02l-.03,2.46c.22.51.3.91.3,1.63,0,1.89-.69,3.33-2.14,4.4-.6.45-1.37.84-1.63.84-.14,0-.21-.04-.33-.17-.42-.48-.74-.73-1.28-1.04.9-.25,1.37-.45,1.95-.82.43-.27.83-.6,1.11-.92.19-.23.34-.45.57-.94-.45.46-.79.61-1.35.61-1.26,0-2.08-.96-2.08-2.42,0-1.53.97-2.62,2.33-2.62.43,0,.7.04,1,.18v-1.14ZM119.97,130.94c0,.63.36,1.06.9,1.06.57,0,.92-.4.92-1.08s-.33-1.11-.9-1.11c-.54,0-.92.46-.92,1.12ZM125.7,125.48c-.42-.75-.75-1.2-1.12-1.57-.03-.03-.04-.08-.04-.12,0-.06.14-.19.35-.33q.36-.22.43-.22c.13,0,.34.19.78.73.39.48.64.85.64.98,0,.07-.04.12-.24.28-.24.21-.54.39-.63.39-.07,0-.12-.03-.17-.14ZM127.59,123.02c.42.46.79,1,.79,1.14,0,.1-.09.2-.39.41-.21.13-.39.22-.45.22q-.09,0-.36-.45c-.22-.41-.51-.77-.9-1.17-.03-.03-.04-.09-.04-.12,0-.1.09-.19.33-.33.2-.12.38-.19.45-.19.11,0,.27.13.57.5Z"/>
        <path d="M132.87,126.62c2.49-.71,3.78-.93,5.19-.93,1.51,0,2.7.41,3.5,1.19.66.68,1.02,1.6,1.02,2.7,0,1.92-1.03,3.54-2.83,4.47-.96.48-1.93.81-3.27,1.06-.58.12-.88.17-1.11.17-.18,0-.27-.06-.36-.23-.34-.69-.48-.9-.93-1.36,2.23-.27,3.45-.57,4.62-1.16,1.28-.63,1.98-1.67,1.98-2.92,0-1.41-.96-2.32-2.43-2.32-1.78,0-3.76.51-6.04,1.56-.41.18-.62.29-.77.38-.27.15-.34.18-.43.18-.29,0-.79-.92-1.14-2.07.69-.09,1.38-.25,3.01-.71Z"/>
        <path d="M144.7,132.77c.27-.24.34-.3.45-.3.19,0,1.09.66,1.75,1.29.75.69,1.59,1.69,1.59,1.9,0,.14-.03.17-.46.56-.57.52-.69.62-.79.62-.09,0-.18-.06-.25-.21-.53-.93-1.73-2.16-2.79-2.85-.12-.09-.18-.15-.18-.24,0-.1.03-.15.69-.76Z"/>
        <path d="M161.86,134.03q0-1.63.01-2.34c-.75.82-1.26,1.48-1.51,1.95-.08.15-.18.24-.27.24-.15,0-.51-.31-.99-.85-.19-.24-.28-.38-.28-.44q0-.1.76-.85c.64-.65,1.51-1.67,2.33-2.74,0-.09,0-.44.01-1.04-.74.13-1.68.39-1.93.52-.15.08-.18.09-.25.09-.26,0-.47-.58-.66-1.75.79-.01,1.79-.12,2.88-.3,0-.54.01-1.31.01-1.73,0-.45-.03-.81-.09-1.11.95.06,1.41.12,1.83.23.22.06.31.15.31.31,0,.08-.03.15-.09.3-.15.3-.17.41-.29,1.59.36.22.71.6.71.79q0,.13-.46.7c-.04.06-.18.26-.41.54q-.01.48-.01.58c1.47-1.24,2.71-1.77,4.18-1.77,2.34,0,3.81,1.48,3.81,3.87,0,1.83-.84,3.19-2.57,4.12-.66.38-1.79.78-2.12.78-.09,0-.19-.03-.24-.09t-.23-.3c-.25-.36-.54-.65-.84-.85,2.99-.81,4.17-1.86,4.17-3.7,0-1.44-.85-2.37-2.21-2.37-.88,0-1.69.29-2.65.92q-.48.31-1.33,1.04.01.12.01.31c0,1.6,0,1.74.09,4.89.02.17.02.29.02.31,0,.29-.21.35-1.31.35-.39,0-.42-.04-.42-.47l.02-1.74Z"/>
        <path d="M174.88,128.9c-.12.03-.18.06-.27.1-.08.04-.12.06-.2.06-.32,0-.55-.58-.74-1.69.12.02.23.02.29.02.63,0,2.24-.2,3.2-.39.31-1.32.48-2.31.48-3.03,0-.06,0-.14-.01-.25.64.07,1.26.21,1.68.38.24.09.36.22.36.38,0,.07-.02.12-.09.24q-.23.4-.69,2.05c.36-.04.76-.07,1.02-.07.62,0,1.1.12,1.44.36.6.44.9,1.32.9,2.69,0,2.23-.41,4.14-1.1,5.08-.48.66-1.11.98-1.99.98-.54,0-1.05-.07-1.2-.17q-.12-.07-.17-.63c-.04-.4-.13-.75-.32-1.17.78.25.98.3,1.46.3.72,0,1.02-.34,1.35-1.54.23-.79.35-1.83.35-2.92,0-1.17-.29-1.59-1.08-1.59-.27,0-.71.03-1.05.09-.04.17-.06.18-.12.39-.42,1.53-1.19,3.55-1.95,5.17-.79,1.63-.99,1.96-1.18,1.96-.12,0-.53-.21-.96-.5-.35-.21-.44-.3-.44-.42q0-.07.62-1.05c.83-1.27,1.91-3.78,2.28-5.25-1.11.24-1.73.39-1.86.44ZM182.53,127.22c0-.1.14-.24.57-.58.3-.23.45-.31.55-.31.09,0,.17.04.36.24.88.85,1.71,2,2.19,2.98.15.33.24.54.24.63,0,.15-.04.2-.52.58-.3.24-.65.44-.77.44-.1,0-.15-.04-.25-.3-.3-.73-.58-1.31-.94-1.86-.39-.6-.47-.69-1.35-1.64-.06-.09-.08-.13-.08-.18Z"/>
        <path d="M192.33,128.96q.07-.12.73-1.23c.09.25.18.42.36.66.1.17.15.25.15.34s-.03.17-.39.75c-.25.45-.69,1.38-.87,1.83-.15.42-.21.45-.71.45s-.88-.06-.94-.15c-.09-.12-.15-.93-.15-2.04,0-1.47.11-2.5.5-5.11.04-.3.06-.45.06-.78,1.17.21,1.94.56,1.94.84,0,.08-.02.12-.12.26-.2.28-.32.67-.46,1.47-.18,1-.32,2.32-.32,3.12q.13-.24.23-.41ZM197.77,124.58v.25c.01.06.01.18.03.35q.01.24.04.61,0,.17.03.72c.04.72.07,1.44.07,1.8,0,2.82-.73,5.01-2.29,6.85-.6.71-1.12,1.11-1.42,1.11-.18,0-.19,0-.51-.24-.29-.22-.67-.42-1.06-.52,1.05-.75,1.62-1.27,2.17-2.07.93-1.33,1.38-2.92,1.38-4.86,0-2.05-.14-3.31-.48-4.23.63-.08,1.09-.11,1.53-.11s.51.03.51.29v.04Z"/>
        <path d="M211.83,125.66c2.03,0,3.3,1.21,3.3,3.17s-1.41,3.09-3.75,3.09c-.51,0-1.04-.06-1.23-.14-.12-.04-.18-.12-.21-.25-.1-.5-.3-.98-.66-1.57.93.22,1.5.31,2.13.31,1.21,0,1.94-.56,1.94-1.52,0-.38-.11-.75-.25-.96-.27-.38-.86-.61-1.53-.61-.86,0-2.04.38-4.51,1.44q.94,2.35,1.47,3.79c.63,1.7,1.16,3.23,1.16,3.36,0,.12-.09.2-.39.33-.43.2-.99.38-1.18.38-.15,0-.17-.03-.32-.58-.69-2.52-1.3-4.35-2.22-6.58-1.14.52-1.68.82-2,1.12-.09.07-.18.12-.28.12-.2,0-.38-.15-.66-.55-.3-.42-.42-.65-.67-1.12.96-.27,1.57-.48,2.98-1.06-.78-1.79-.88-2-1.47-2.75.96-.38,1.5-.54,1.84-.54.32,0,.39.09.43.5.05.42.08.57.26.99.01.03.15.34.46,1.15,1.32-.54,1.78-.72,2.77-1.04-.06-.03-.08-.04-.12-.1-.51-.66-.82-.99-1.48-1.54-.03-.06-.04-.09-.04-.13q0-.09.51-.54c.2-.18.5-.36.58-.36.08,0,.15.03.24.09.92.69,1.54,1.32,1.54,1.57,0,.12-.45.62-.81.89.83-.23,1.54-.33,2.17-.33Z"/>
        <path d="M223.09,127.23c-3.29.21-4.56.34-5.5.6-.06.02-.12.03-.17.03-.11,0-.2-.08-.24-.2-.13-.38-.21-.87-.25-1.62h.36c.48,0,.93-.02,2.37-.1,1.11-.06,2.05-.1,3.4-.15-.01-1.35-.03-1.56-.17-2.23,1.16.03,1.74.08,1.95.17.09.04.13.12.13.27,0,.03-.01.09-.04.17-.13.33-.18.66-.21,1.59,2.19-.06,2.52-.06,4.02-.06.41,0,.46,0,.51.05.06.06.09.28.09.79,0,.69-.02.76-.21.76h-.06c-.64-.06-2.25-.12-3.3-.12q-.34,0-1.09.01l-.03,2.46c.23.5.3.92.3,1.64,0,1.87-.69,3.31-2.14,4.38-.6.45-1.37.84-1.63.84-.13,0-.21-.04-.33-.17-.42-.48-.74-.72-1.28-1.02.9-.25,1.37-.46,1.95-.83.43-.28.83-.6,1.11-.91.19-.24.34-.47.57-.95-.43.45-.79.62-1.35.62-1.26,0-2.08-.96-2.08-2.42,0-1.53.97-2.64,2.33-2.64.43,0,.71.06,1,.19v-1.15ZM221.28,130.74c0,.63.36,1.06.9,1.06.57,0,.92-.41.92-1.1s-.33-1.11-.9-1.11c-.54,0-.92.46-.92,1.14Z"/>
        <path d="M240.34,124.8c0,.14-.06.18-.32.33-.1.06-.24.18-.38.34-.93,1.08-2.26,2.54-3.45,3.73-.25.26-.36.45-.36.63,0,.16.12.34.41.6.88.81,2.32,2.28,3.39,3.5.75.84.94,1.11.94,1.26,0,.17-.25.42-.87.9-.29.23-.47.33-.56.33-.13,0-.19-.06-.34-.3-.64-1.02-2.22-2.92-3.42-4.14-.67-.67-.81-.82-1.02-1.12-.25-.36-.36-.66-.36-1,0-.3.09-.61.27-.92q.17-.27,1.08-1.24c.87-.9,1.8-2.04,2.38-2.88.39-.56.59-.92.78-1.42,1.17.64,1.82,1.14,1.82,1.41Z"/>
        <path d="M14.25,151.23c.33.06.62.07,1.16.07h2.88c.6,0,.83-.01,1.16-.06v1.47c-.29-.03-.48-.04-1.1-.04h-2.94c-.51,0-.81.02-1.16.06v-1.5ZM20.91,156.21c-.39,0-.6.01-1.07.06.03-.31.04-.64.04-1.03v-2.5c0-.39-.01-.79-.04-1.12.39.04.65.06,1.2.06h2.64c.51-.96.81-1.69,1.16-2.89l1.62.52c-.66,1.5-.79,1.77-1.16,2.37h.42c.51,0,.78-.01,1.16-.06-.03.38-.04.64-.04,1.06v2.61c0,.42.01.66.04.99-.5-.04-.71-.06-1.08-.06h-.81v3.97c0,.27.09.33.58.33.21,0,.4-.06.48-.13.12-.15.18-.62.18-1.41v-.48c.54.31.93.49,1.35.6-.11,1.54-.2,2.01-.45,2.37-.25.36-.72.48-1.86.48-1.41,0-1.76-.24-1.76-1.23v-4.5h-.91c-.12,3.31-.65,4.51-2.64,5.98-.29-.4-.48-.63-.82-.96.01.24.01.39.03.56h-1.38v-.44h-1.58v.72h-1.48c.04-.44.08-.96.08-1.4v-2.14c0-.44-.02-.72-.06-1.12.27.03.51.04.98.04h2.59c.5,0,.6,0,.85-.04-.01.25-.03.55-.03,1.05v2.37c.96-.63,1.51-1.37,1.75-2.37.17-.62.21-1.18.24-2.25h-.22ZM14.82,149.21c.39.04.6.06,1.17.06h2c.57,0,.76-.02,1.17-.06v1.41c-.39-.03-.67-.04-1.17-.04h-2c-.5,0-.83.01-1.17.04v-1.41ZM14.82,153.41c.24.03.46.04.92.04h2.49c.48,0,.66-.01.88-.04v1.35c-.29-.03-.46-.04-.88-.04h-2.49c-.45,0-.63.01-.92.04v-1.35ZM14.82,155.42c.27.03.46.04.92.04h2.49c.46,0,.63-.01.88-.04v1.35c-.25-.03-.45-.04-.92-.04h-2.47c-.45,0-.65.02-.9.04v-1.35ZM16.18,160.05h1.6v-1.35h-1.6v1.35ZM21.42,151.64c-.31-.82-.62-1.36-1.17-2.17l1.41-.66c.57.86.76,1.22,1.16,2.12l-1.4.72ZM21.33,154.8h3.96v-1.71h-3.96v1.71Z"/>
        <path d="M29.19,151.2c0-.69-.01-1.04-.06-1.49.42.03.74.04,1.58.04h2.26c.57,0,.87-.01,1.25-.04-.04.35-.04.65-.04,1.32v6.51c0,.76,0,1.18.03,1.49h-1.49v-.54h-2.02v1.06h-1.59c.06-.46.09-.99.09-1.71v-6.64ZM30.67,153.35h2.04v-2.17h-2.04v2.17ZM30.67,157.11h2.04v-2.42h-2.04v2.42ZM36.45,157.52c-.13.77-.41,1.61-.74,2.33-.43.92-.92,1.53-1.79,2.34-.38-.48-.66-.75-1.27-1.17,1.12-.87,1.63-1.58,2.05-2.87.41-1.23.54-2.55.54-5.17,0-1.92-.03-3-.09-3.6.46.04.83.06,1.59.06h3.1c.79,0,1.16-.02,1.56-.06-.04.39-.06.81-.06,1.59v9.36c0,.71-.15,1.11-.51,1.33-.31.21-.69.27-1.58.27-.4,0-.64,0-1.17-.03-.07-.69-.17-1.08-.39-1.6.66.09,1.16.13,1.49.13.49,0,.6-.08.6-.43v-2.48h-3.34ZM36.76,154.11c-.03.71-.06,1.25-.12,1.99h3.15v-1.99h-3.03ZM39.79,150.87h-3v1.89h3v-1.89Z"/>
        <path d="M48.06,149.51c.38.11.48.18.48.35,0,.1-.01.15-.09.36-.17.44-.29,1.2-.34,2.25-.12,2.42-.18,4.29-.18,5.78,0,.48.04.84.12,1.08.17.5.69.75,1.53.75,1.35,0,2.62-.55,3.79-1.65.54-.51.87-.92,1.42-1.74.09.48.21.79.54,1.47.04.12.08.21.08.35,0,.27-.29.63-1.04,1.3-1.49,1.33-3.13,2.02-4.86,2.02-1.14,0-1.98-.28-2.52-.82-.57-.6-.79-1.38-.79-2.87,0-1.17.01-2.07.13-5.56.02-.53.03-.84.03-.98,0-1.27-.01-1.65-.11-2.29.77.03,1.35.09,1.8.21Z"/>
        <path d="M60.19,152.96c-.39.09-.53.13-1.07.33-.19.08-.3.1-.39.1-.33,0-.63-.61-.9-1.9.96-.04,1.31-.09,2.97-.34,1.8-.27,4.08-.62,5.28-.77,1.35-.18,2.43-.36,3-.48.1-.03.15-.03.22-.03.2,0,.27.09.41.46.12.32.21.76.21.97,0,.18-.06.24-.27.24-.32,0-.6.03-.89.08-2.53.42-4.56,2.64-4.56,4.98,0,1.75,1.38,2.91,3.72,3.12.21.01.29.09.29.27,0,.38-.15,1.09-.29,1.42-.08.17-.19.24-.39.24s-.65-.09-1.11-.22c-2.55-.75-3.88-2.37-3.88-4.67,0-1.25.41-2.4,1.19-3.39.42-.54.78-.84,1.63-1.42-1.96.33-4.04.72-5.17,1Z"/>
        <path d="M73.02,152.01c0-.43-.02-1.02-.04-1.35.69.08,1.2.18,1.6.33.36.13.48.22.48.39q0,.09-.06.24c-.2.51-.25,1.08-.25,2.45,0,1.92.12,3.12.42,4.03.22.71.57,1.11.97,1.11.62,0,1.12-.72,1.68-2.38.28.76.39.99.81,1.53.08.11.12.21.12.32,0,.24-.22.75-.53,1.18-.58.86-1.33,1.32-2.13,1.32-1.15,0-2.02-.93-2.56-2.78-.34-1.2-.51-2.71-.51-4.81v-1.58ZM81.94,152.25c.09,0,.17.04.29.15.75.72,1.53,1.92,2.03,3.09.33.79.64,1.86.64,2.17,0,.15-.08.22-.39.39-.34.18-1.05.42-1.23.42-.13,0-.19-.08-.24-.34-.2-1.16-.46-2-.93-2.97-.42-.87-.45-.92-1.47-2.17.63-.46,1.12-.74,1.3-.74Z"/>
        <path d="M95.74,150.32c0,.13-.06.18-.32.33-.1.06-.24.18-.38.34-.93,1.08-2.26,2.54-3.45,3.73-.25.26-.36.45-.36.63,0,.16.12.34.41.6.88.81,2.32,2.28,3.39,3.5.75.84.94,1.11.94,1.26,0,.17-.25.42-.87.9-.29.23-.47.33-.56.33-.13,0-.19-.06-.34-.3-.64-1.02-2.22-2.92-3.42-4.14-.67-.67-.81-.83-1.02-1.12-.25-.36-.36-.66-.36-1,0-.3.09-.62.27-.92q.17-.27,1.08-1.25c.87-.9,1.8-2.04,2.38-2.88.39-.55.58-.92.78-1.42,1.17.64,1.82,1.14,1.82,1.41Z"/>
        <path d="M102.58,154.41c-.12.03-.18.06-.27.1-.08.04-.12.06-.2.06-.32,0-.55-.58-.74-1.7.12.02.23.02.29.02.63,0,2.24-.2,3.2-.39.31-1.32.48-2.31.48-3.03,0-.06,0-.14-.01-.25.64.07,1.26.21,1.68.38.24.09.36.22.36.38,0,.07-.02.12-.09.24q-.23.41-.69,2.05c.36-.04.76-.07,1.02-.07.62,0,1.1.12,1.44.36.6.44.9,1.32.9,2.69,0,2.23-.41,4.14-1.1,5.08-.48.66-1.11.98-1.99.98-.54,0-1.05-.08-1.2-.17q-.12-.08-.17-.63c-.04-.41-.13-.75-.32-1.17.78.25.98.3,1.46.3.72,0,1.02-.34,1.35-1.54.23-.79.35-1.83.35-2.92,0-1.17-.29-1.59-1.08-1.59-.27,0-.71.03-1.05.09-.04.17-.06.18-.12.39-.42,1.53-1.19,3.55-1.95,5.17-.79,1.63-.99,1.96-1.18,1.96-.12,0-.53-.21-.96-.5-.35-.21-.44-.3-.44-.42q0-.07.62-1.05c.83-1.27,1.91-3.78,2.28-5.25-1.11.24-1.73.39-1.86.44ZM110.23,152.73c0-.11.14-.24.57-.58.3-.23.45-.32.55-.32.09,0,.17.04.36.24.88.85,1.71,2,2.19,2.98.15.33.24.54.24.63,0,.15-.04.2-.52.58-.3.24-.65.44-.77.44-.1,0-.15-.04-.25-.3-.3-.74-.58-1.31-.94-1.86-.39-.6-.47-.69-1.35-1.63-.06-.09-.08-.13-.08-.18Z"/>
        <path d="M123.85,154.44c2.05,0,3.39,1.21,3.39,3.06s-1.12,3.01-3.37,3.73c-.81.26-2.15.5-2.75.5-.32,0-.39-.08-.6-.51-.16-.34-.34-.55-.79-.87,3.77-.3,5.62-1.26,5.62-2.89,0-.92-.64-1.46-1.72-1.46-1.37,0-2.78.71-3.93,1.95-.21.21-.41.46-.54.69-.13.23-.23.3-.36.3-.22,0-.75-.22-1.11-.49-.18-.14-.24-.24-.24-.48q0-.12.04-.48s0-.15.01-.32c.08-.96.12-1.37.3-2.71q.03-.17.14-.87s.04-.33.12-.88c.01-.13.03-.25.03-.5.72.11,1.4.27,1.68.43.12.06.18.14.16.23,0,.06-.03.1-.07.2-.17.25-.21.39-.35.96-.13.57-.34,1.89-.38,2.38,1.53-1.41,2.87-1.96,4.71-1.96ZM123.58,150.17c.58.34.76.51.76.67,0,.14-.24.58-.5.96-.24.35-.33.42-.45.42-.07,0-.12-.03-.3-.17-1-.76-1.8-1.2-2.92-1.59-.22-.09-.27-.12-.27-.24,0-.15.12-.41.39-.79.24-.36.34-.45.51-.45.36,0,1.83.63,2.78,1.18Z"/>
        <path d="M140.1,155.42c-.54,1.47-.97,2.25-1.83,3.2,1.7.7,2.58,1.12,4.41,2.11l-1.19,1.33c-1.62-1.04-2.8-1.67-4.42-2.37-1.57,1.17-3.27,1.83-6.24,2.42-.22-.6-.44-1.02-.79-1.54,2.44-.3,3.97-.73,5.38-1.54-1.29-.5-1.62-.6-3.85-1.18.85-1.07,1.2-1.56,1.71-2.42h-1.64c-.72,0-1.14.01-1.57.08v-1.62c.43.06.73.08,1.57.08h2.48c.45-.86.72-1.47.85-2.03l1.74.25q-.15.3-.3.62c-.11.21-.29.6-.56,1.16h5.47c.84,0,1.16-.02,1.58-.08v1.62c-.45-.06-.88-.08-1.58-.08h-1.23ZM135.51,149.94c0-.45-.01-.75-.08-1.09h1.75c-.04.3-.06.64-.06,1.08v.26h3.88c.72,0,1.16-.02,1.65-.06-.04.36-.06.69-.06,1.09v1.07c0,.43.01.72.06,1.06h-1.56v-1.72h-9.31v1.72h-1.59c.04-.33.08-.64.08-1.06v-1.07c0-.33-.03-.72-.08-1.09.5.04.93.06,1.65.06h3.66v-.24ZM135.07,155.42c-.44.72-.58.97-1.11,1.71,1.41.41,1.71.51,2.79.9.83-.78,1.26-1.45,1.68-2.61h-3.36Z"/>
        <path d="M144.09,159.11c.98-1.84,1.29-2.98,1.63-5.85l1.59.33c-.48,3.5-.72,4.41-1.65,6.42l-1.58-.9ZM149.76,159.78c0,.34.27.42,1.6.42,1.16,0,1.56-.11,1.73-.44.18-.41.29-1.35.31-2.85.63.3,1,.43,1.61.57-.12,1.96-.27,2.77-.58,3.37-.41.75-1.04.92-3.34.92-1.67,0-2.22-.09-2.61-.4-.25-.21-.36-.54-.36-1.14v-6.79c0-.54-.01-.87-.09-1.47h1.83c-.06.46-.09.89-.09,1.42v6.39ZM152.91,152.46c-1.42-.96-2.5-1.48-4.86-2.33l.92-1.38c2.14.74,3.24,1.22,4.93,2.18l-.99,1.53ZM156.19,159.68c-.66-2.49-1.27-4.06-2.33-5.97l1.53-.69c1.07,1.89,1.62,3.21,2.43,5.83l-1.63.83Z"/>
        <path d="M163.74,149.51c.38.11.48.18.48.35,0,.1-.01.15-.09.36-.17.44-.29,1.2-.34,2.25-.12,2.42-.18,4.29-.18,5.78,0,.48.04.84.12,1.08.17.5.69.75,1.53.75,1.35,0,2.62-.55,3.79-1.65.54-.51.87-.92,1.42-1.74.09.48.21.79.54,1.47.04.12.08.21.08.35,0,.27-.29.63-1.04,1.3-1.49,1.33-3.13,2.02-4.86,2.02-1.14,0-1.98-.28-2.52-.82-.57-.6-.79-1.38-.79-2.87,0-1.17.01-2.07.13-5.56.02-.53.03-.84.03-.98,0-1.27-.01-1.65-.11-2.29.77.03,1.35.09,1.8.21Z"/>
        <path d="M175.87,152.96c-.39.09-.53.13-1.07.33-.19.08-.3.1-.39.1-.33,0-.63-.61-.9-1.9.96-.04,1.31-.09,2.97-.34,1.8-.27,4.08-.62,5.28-.77,1.35-.18,2.43-.36,3-.48.1-.03.15-.03.22-.03.2,0,.27.09.41.46.12.32.21.76.21.97,0,.18-.06.24-.27.24-.32,0-.6.03-.89.08-2.53.42-4.56,2.64-4.56,4.98,0,1.75,1.38,2.91,3.72,3.12.21.01.29.09.29.27,0,.38-.15,1.09-.29,1.42-.08.17-.19.24-.39.24s-.65-.09-1.11-.22c-2.55-.75-3.88-2.37-3.88-4.67,0-1.25.41-2.4,1.19-3.39.42-.54.78-.84,1.63-1.42-1.96.33-4.04.72-5.17,1Z"/>
        <path d="M195.48,160.58c0,.66-.52,1.18-1.18,1.18s-1.19-.53-1.19-1.18.53-1.19,1.19-1.19,1.18.53,1.18,1.19ZM194.95,158.36h-1.33l-.41-8.98h2.16l-.42,8.98Z"/>
        <path d="M207.99,154.43q-.03-.73-.04-1.67c-.13.02-.27.02-.33.02-.99,0-2.26-.11-2.79-.24-.15-.04-.18-.08-.18-.22,0-.33.04-.74.15-1.32.84.17,1.88.27,2.77.27.08,0,.21,0,.38-.01v-.99c0-.52-.01-.76-.04-1.29.75.05,1.26.09,1.62.18.3.06.39.13.39.3,0,.08-.01.1-.12.34-.1.25-.12.32-.18,1.35.9-.11,1.62-.26,2.33-.47.04-.01.06-.01.08-.01.1,0,.1.01.27.5.11.31.21.71.21.83,0,.1-.04.17-.2.21-.49.17-1.78.39-2.73.5,0,1.06,0,1.11.01,1.63,1.05-.14,1.62-.29,2.81-.72.07-.03.1-.04.15-.04.09,0,.12.04.27.41.15.38.29.79.29.95,0,.08-.06.13-.17.18-.83.3-2.33.66-3.27.76.03.57.06.89.15,2.06.84.25,1.18.39,1.83.73.72.36,1.11.62,1.75,1.12.12.09.17.17.17.29,0,.11-.14.36-.42.81-.33.5-.5.69-.6.69-.04,0-.09-.01-.13-.06-.9-.86-1.49-1.28-2.49-1.77-.06.72-.22,1.12-.63,1.5-.51.5-1.36.76-2.43.76-1.84,0-2.98-.81-2.98-2.11,0-.57.24-1.12.64-1.5.58-.54,1.47-.83,2.59-.83.36,0,.67.03,1.05.08-.07-.98-.1-1.32-.12-1.63-.34.01-.54.01-.72.01-1.04,0-2.29-.17-3-.38-.15-.04-.21-.12-.21-.24,0-.22.09-.71.23-1.32.93.22,2.11.36,3.22.36h.43ZM206.96,159c-.96,0-1.49.29-1.49.79,0,.45.43.69,1.28.69.97,0,1.42-.34,1.42-1.09v-.25c-.39-.1-.69-.13-1.21-.13Z"/>
        <path d="M223,152.96c-3.29.2-4.56.34-5.5.6-.06.02-.12.03-.17.03-.11,0-.2-.08-.24-.2-.13-.38-.21-.87-.25-1.63.18.02.3.02.36.02.48,0,.93-.02,2.37-.11,1.11-.06,2.06-.1,3.41-.17-.01-1.35-.03-1.54-.17-2.23,1.16.03,1.74.09,1.95.18.09.03.13.1.13.25,0,.03-.01.09-.04.17-.13.33-.18.67-.21,1.59,2.19-.04,2.52-.04,4.02-.04.41,0,.46,0,.51.04.06.06.09.29.09.79,0,.69-.02.76-.21.76h-.06c-.64-.07-2.25-.13-3.3-.13q-.34,0-1.09.02l-.03,2.46c.22.51.3.91.3,1.63,0,1.89-.69,3.33-2.14,4.39-.6.45-1.37.84-1.63.84-.14,0-.21-.04-.33-.17-.42-.48-.74-.73-1.28-1.04.9-.25,1.37-.45,1.95-.82.43-.27.83-.6,1.11-.92.19-.23.34-.45.57-.95-.45.46-.79.62-1.35.62-1.26,0-2.08-.96-2.08-2.42,0-1.53.97-2.62,2.33-2.62.43,0,.7.04,1,.18v-1.14ZM221.19,156.45c0,.63.36,1.06.9,1.06.57,0,.92-.4.92-1.08s-.33-1.11-.9-1.11c-.54,0-.92.46-.92,1.12ZM226.92,150.99c-.42-.75-.75-1.2-1.12-1.58-.03-.03-.04-.08-.04-.12,0-.06.14-.19.35-.33q.36-.22.43-.22c.13,0,.34.2.78.74.39.48.64.85.64.97,0,.08-.04.12-.24.29-.24.21-.54.39-.63.39-.07,0-.12-.03-.17-.13ZM228.81,148.53c.42.46.79,1,.79,1.14,0,.11-.09.2-.39.41-.21.13-.39.22-.45.22q-.09,0-.36-.45c-.22-.41-.51-.77-.9-1.17-.03-.03-.04-.09-.04-.12,0-.11.09-.2.33-.33.2-.12.38-.2.45-.2.11,0,.27.13.57.5Z"/>
        <path d="M235.11,158.03c.04.06.06.11.06.17q0,.09-.25.78c-.32.92-.51,1.67-.57,2.25-.01.2-.08.27-.27.32-.21.06-.61.09-1,.09-.15,0-.22-.03-.27-.12-.13-.29-.38-1.32-.5-2.16-.1-.71-.15-1.44-.15-2.21,0-1.72.2-3.36.74-6.3.09-.48.12-.71.17-1.17.69.09,1.17.23,1.6.44.23.12.32.22.32.36,0,.09-.03.17-.11.29-.61,1.05-1.18,4.29-1.18,6.69,0,.36.01.93.06,1.65.36-.93.52-1.35.85-2.07.11.41.21.6.51,1ZM237.63,154.08c-.72,0-.87-.03-.92-.2-.04-.13-.09-.61-.09-.96,0-.12,0-.24.01-.51.41.03.64.04,1.14.04.81,0,1.32-.01,2.1-.08-.02-1.9-.03-2.14-.18-2.85.74.01,1.29.08,1.77.2.22.06.31.13.31.29,0,.06-.01.1-.06.22-.15.34-.23.93-.25,1.98.55-.07,1.03-.18,1.93-.39.08-.03.1-.03.15-.03.09,0,.13.04.17.15.03.13.07.71.07,1.02,0,.38-.01.44-.17.5-.24.12-.9.23-2.17.39,0,1.03.09,2.74.2,3.72.95.4,1.59.75,2.25,1.21.42.3.51.41.51.51,0,.17-.27.67-.58,1.11-.18.25-.27.33-.38.33s-.1,0-.45-.33c-.33-.33-.67-.58-1.33-1.02v.12c0,1.32-1.09,2.19-2.76,2.19s-2.8-.9-2.8-2.25,1.14-2.36,2.66-2.36c.55,0,.84.02,1.24.08q-.06-1.17-.1-3.18c-.65.04-1.67.09-2.26.09ZM238.86,158.49c-.75,0-1.25.34-1.25.87,0,.48.46.78,1.19.78.79,0,1.21-.36,1.21-1.05,0-.21-.02-.38-.02-.38-.39-.15-.73-.22-1.14-.22Z"/>
        <path d="M23.64,179.92h2.13c.68,0,1.1-.03,1.54-.09v1.63c-.48-.04-.93-.08-1.56-.08h-1.62c.86,1.5,2.1,2.75,3.58,3.58-.48.48-.69.78-.99,1.5-.61-.43-1.05-.86-1.62-1.5-.74-.85-1.05-1.32-1.53-2.22.03.54.04,1,.04,1.44v1.82c0,.67.03,1.2.09,1.67h-1.67c.06-.46.09-1,.09-1.68v-1.71c0-.4.02-.88.04-1.48-.91,1.65-1.93,2.76-3.39,3.73-.38-.71-.58-1-.9-1.36,1.54-.89,2.8-2.17,3.67-3.78h-.95c-.64,0-1.11.03-1.58.09v-.6c-.25.36-.43.69-.61,1.21-.38-.58-.6-1.05-.89-1.8.03.46.06,1.27.06,1.91v3.69c0,.76.03,1.32.09,1.77h-1.67c.06-.46.09-1.02.09-1.77v-3.1c0-.57.02-.93.11-1.86-.44,1.46-.87,2.43-1.52,3.41-.18-.68-.37-1.11-.67-1.61.72-.92,1.47-2.61,1.92-4.35h-.57c-.44,0-.69.01-.96.06v-1.53c.24.04.51.06.96.06h.72v-1.16c0-.76-.01-1.14-.08-1.5h1.65c-.06.39-.08.8-.08,1.5v1.16h.43c.36,0,.54-.01.78-.06v1.42c.57-1.02,1.05-2.52,1.09-3.5l1.46.38c-.06.17-.1.34-.21.79-.08.27-.1.41-.18.69h1.15v-.99c0-.62-.03-.99-.09-1.37h1.68c-.06.36-.09.77-.09,1.37v.99h1.7c.72,0,1.14-.03,1.54-.09v1.58c-.42-.04-.9-.08-1.54-.08h-1.7v1.82ZM20.5,178.11c-.25.62-.39.9-.81,1.61q-.36-.38-1.17-.95c.12-.17.17-.24.24-.34-.2-.03-.44-.04-.71-.04h-.38c.34.79.71,1.39,1.36,2.28v-.82c.45.06.87.09,1.56.09h1.53v-1.82h-1.63Z"/>
        <path d="M32.26,179.89c1.89-.52,3.25-.76,4.27-.76,2.12,0,3.42,1.16,3.42,3.03,0,1.12-.46,2.12-1.35,2.87-.58.5-1.46.92-2.61,1.26-.64.18-1.33.32-1.63.32-.18,0-.27-.04-.33-.2-.21-.52-.45-.9-.76-1.21,3.3-.34,4.98-1.39,4.98-3.1,0-.87-.72-1.54-1.65-1.54-1.62,0-3.39.54-5.25,1.57-.15.08-.24.12-.3.12-.25,0-.67-.75-1.02-1.83.74-.1.99-.17,2.24-.51Z"/>
        <path d="M45.73,178.47c-.39.09-.53.13-1.07.33-.19.08-.3.1-.39.1-.33,0-.63-.61-.9-1.9.96-.04,1.31-.09,2.97-.34,1.8-.27,4.08-.62,5.28-.77,1.35-.18,2.43-.36,3-.48.1-.03.15-.03.22-.03.2,0,.27.09.41.46.12.32.21.76.21.97,0,.18-.06.24-.27.24-.32,0-.6.03-.89.08-2.53.42-4.56,2.64-4.56,4.98,0,1.75,1.38,2.91,3.72,3.12.21.01.29.09.29.27,0,.38-.15,1.09-.29,1.42-.08.17-.19.24-.39.24s-.65-.09-1.11-.22c-2.55-.75-3.88-2.37-3.88-4.67,0-1.25.41-2.4,1.19-3.39.42-.54.78-.84,1.63-1.42-1.96.33-4.04.72-5.17,1Z"/>
        <path d="M60.73,185.77c0,.78.03,1.32.08,1.84h-1.7c.06-.57.09-1.09.09-1.86v-4.02c0-.69.01-1.06.04-1.6-.33.57-.66,1.02-1.14,1.59-.27-.72-.48-1.11-.81-1.6,1.01-1.08,1.74-2.19,2.34-3.56.38-.87.66-1.75.76-2.43l1.58.57c-.6,1.75-.65,1.84-1.25,3.19v7.88ZM63.72,176.55c-.75,0-1.26.01-1.68.08v-1.59c.48.06.99.09,1.65.09h5.43c.61,0,1.12-.03,1.63-.09v1.57c-.39-.04-.55-.04-1.07-.06v9.3c0,.71-.21,1.12-.64,1.29-.38.15-.98.21-1.89.21-.09,0-.32,0-.65-.02h-.52c-.09-.84-.15-1.09-.39-1.62.63.09,1.21.13,1.75.13.67,0,.81-.06.81-.39v-8.91h-4.44ZM66.85,182.59c0,.57.02.81.04,1.12-.3-.03-.52-.04-1.11-.04h-2.16v1.04h-1.5c.04-.35.06-.72.06-1.12v-4.44c0-.48-.02-.83-.06-1.14.3.03.65.04,1.16.04h2.5c.58,0,.84-.01,1.11-.04-.03.3-.04.55-.04,1.12v3.46ZM63.63,182.31h1.82v-2.91h-1.82v2.91Z"/>
        <path d="M73.8,178.8c-.27.01-.43.03-.61.04-.14.01-.15.01-.17.01-.12,0-.18-.04-.23-.19-.08-.24-.18-1.04-.19-1.49.17.01.6.03,1.14.03.17,0,1.35-.08,1.88-.12.25-1.21.34-1.84.34-2.66,1.54.21,2.1.39,2.1.68,0,.1-.01.13-.24.48-.12.18-.17.34-.42,1.28.7-.12,1.12-.23,1.68-.41.1-.03.15-.04.22-.04.11,0,.13.08.23.51.07.38.12.69.12.85,0,.18-.04.21-.43.3-.51.12-1.38.27-2.31.39-.56,1.68-.93,2.58-1.62,3.99-.53,1.05-.83,1.6-1.23,2.23-.12.18-.19.24-.3.24-.15,0-.57-.22-1.09-.62-.24-.17-.3-.24-.3-.34s.06-.2.25-.46c.43-.54,1-1.47,1.5-2.46.42-.83.57-1.17,1-2.36-.58.04-.63.06-1.32.11ZM78.73,187.44c-1.64,0-2.75-.9-2.75-2.24s1.15-2.41,2.7-2.41c.36,0,.53.01,1.14.1-.06-.72-.06-1-.12-2.4,0-.29-.03-.68-.06-1.16.77.08,1.35.17,1.64.29.12.04.18.12.18.24,0,.08-.01.14-.03.24-.08.32-.09.54-.09.95,0,.55.04,1.5.09,2.23,1.07.48,1.5.72,2.25,1.31.33.25.45.39.45.51,0,.15-.08.29-.5.96-.18.3-.31.43-.42.43q-.09,0-.51-.39c-.33-.33-.71-.58-1.23-.9,0,1.4-1.02,2.24-2.74,2.24ZM78.7,184.23c-.72,0-1.21.34-1.21.87,0,.5.45.81,1.12.81.79,0,1.21-.4,1.21-1.2,0-.12,0-.24-.02-.24-.3-.15-.7-.24-1.11-.24ZM84.31,179.97c-.18.25-.27.33-.38.33-.08,0-.13-.03-.24-.13-.38-.36-.9-.75-1.46-1.1q-.36-.22-1.02-.52c-.21-.09-.29-.15-.29-.27,0-.1.08-.24.3-.58.36-.52.45-.61.58-.61.28,0,1.39.57,2.19,1.11.65.44.84.62.84.78,0,.12-.24.57-.54,1Z"/>
        <path d="M92.32,183.97c-.72,1.25-1.71,1.93-2.73,1.93-1.56,0-2.67-1.53-2.67-3.66,0-2.37,1.2-4.41,3.25-5.49,1-.54,2.08-.78,3.51-.78,3.14,0,5.46,2.22,5.46,5.19,0,2.62-1.29,4.51-3.78,5.58-.5.21-.89.33-1.08.33-.18,0-.25-.06-.45-.34-.25-.39-.54-.67-.95-.95,3.09-.79,4.49-2.25,4.49-4.68,0-1.25-.53-2.29-1.46-2.96-.53-.36-.95-.51-1.77-.64-.42,3.17-.92,4.89-1.83,6.46ZM90.16,178.66c-1,.88-1.58,2.14-1.58,3.55,0,1.16.38,1.83,1,1.83.75,0,1.52-1.04,2.08-2.82.36-1.12.54-1.98.77-3.64-1.07.22-1.59.48-2.28,1.08Z"/>
        <path d="M102.58,179.92c-.12.03-.18.06-.27.1-.08.04-.12.06-.2.06-.32,0-.55-.58-.74-1.7.12.02.23.02.29.02.63,0,2.24-.2,3.2-.39.31-1.32.48-2.31.48-3.03,0-.06,0-.14-.01-.25.64.07,1.26.21,1.68.38.24.09.36.22.36.38,0,.07-.02.12-.09.24q-.23.41-.69,2.05c.36-.04.76-.07,1.02-.07.62,0,1.1.12,1.44.36.6.44.9,1.32.9,2.69,0,2.23-.41,4.14-1.1,5.08-.48.66-1.11.98-1.99.98-.54,0-1.05-.08-1.2-.17q-.12-.08-.17-.63c-.04-.41-.13-.75-.32-1.17.78.25.98.3,1.46.3.72,0,1.02-.34,1.35-1.54.23-.79.35-1.83.35-2.92,0-1.17-.29-1.59-1.08-1.59-.27,0-.71.03-1.05.09-.04.17-.06.18-.12.39-.42,1.53-1.19,3.55-1.95,5.17-.79,1.63-.99,1.96-1.18,1.96-.12,0-.53-.21-.96-.5-.35-.21-.44-.3-.44-.42q0-.07.62-1.05c.83-1.27,1.91-3.78,2.28-5.25-1.11.24-1.73.39-1.86.44ZM110.23,178.24c0-.11.14-.24.57-.58.3-.23.45-.32.55-.32.09,0,.17.04.36.24.88.85,1.71,2,2.19,2.98.15.33.24.54.24.63,0,.15-.04.2-.52.58-.3.24-.65.44-.77.44-.1,0-.15-.04-.25-.3-.3-.74-.58-1.31-.94-1.86-.39-.6-.47-.69-1.35-1.63-.06-.09-.08-.13-.08-.18Z"/>
        <path d="M121.24,181.72c-.54,1-1.16,2-1.71,2.8-.62.88-1.32,1.33-2.05,1.33-1.08,0-1.82-.88-1.82-2.21,0-1.14.57-2.11,1.63-2.74.71-.41,1.77-.69,2.62-.69h.15c.76-1.56.96-1.98,1.47-3.15-1.38.06-2.22.18-2.83.39-.03.01-.08.01-.11.01-.25,0-.49-.78-.57-1.9.33.06.64.09,1.05.09.51,0,1.38-.04,2.29-.13q.85-.08,1.05-.2c.12-.06.2-.09.27-.09.19,0,.49.24.82.64.24.32.39.57.39.67,0,.12-.06.23-.24.41-.22.24-.92,1.53-1.79,3.36,1.42.28,1.96.45,3,.9.08-.52.13-1.14.13-1.56,0-.2-.01-.42-.04-.67.65.09,1.19.19,1.62.3.27.08.36.15.36.27,0,.11-.03.21-.12.39-.13.28-.18.48-.29,1.09-.04.31-.09.52-.18.96.76.48,1.42.94,1.72,1.23.08.08.12.15.12.23,0,.42-.65,1.39-.92,1.39-.08,0-.15-.04-.27-.13-.4-.36-.9-.78-1.2-1-.51,1.08-1.04,1.77-1.86,2.47-.71.58-1.68,1.12-2.04,1.12-.12,0-.25-.06-.36-.15-.04-.04-.04-.06-.24-.33-.23-.35-.42-.51-.78-.68,1.2-.42,1.79-.72,2.43-1.27.65-.57,1.14-1.26,1.47-2.07-1.02-.55-2.03-.9-3.21-1.09ZM117.19,183.52c0,.36.13.58.38.58.33,0,.92-.73,1.86-2.35-1.42.15-2.23.79-2.23,1.77Z"/>
        <path d="M132.49,178.47c-.39.09-.53.13-1.07.33-.19.08-.3.1-.39.1-.33,0-.63-.61-.9-1.9.96-.04,1.31-.09,2.97-.34,1.8-.27,4.08-.62,5.28-.77,1.35-.18,2.43-.36,3-.48.1-.03.15-.03.22-.03.2,0,.27.09.41.46.12.32.21.76.21.97,0,.18-.06.24-.27.24-.32,0-.6.03-.89.08-2.53.42-4.56,2.64-4.56,4.98,0,1.75,1.38,2.91,3.72,3.12.21.01.29.09.29.27,0,.38-.15,1.09-.29,1.42-.08.17-.19.24-.39.24s-.65-.09-1.11-.22c-2.55-.75-3.88-2.37-3.88-4.67,0-1.25.41-2.4,1.19-3.39.42-.54.78-.84,1.63-1.42-1.96.33-4.04.72-5.17,1Z"/>
        <path d="M145.32,177.52c0-.43-.02-1.02-.04-1.35.69.08,1.2.18,1.6.33.36.13.48.22.48.39q0,.09-.06.24c-.2.51-.25,1.08-.25,2.45,0,1.92.12,3.12.42,4.03.22.71.57,1.11.97,1.11.62,0,1.12-.72,1.68-2.38.28.76.39.99.81,1.53.08.11.12.21.12.32,0,.24-.22.75-.53,1.18-.58.86-1.33,1.32-2.13,1.32-1.15,0-2.02-.93-2.56-2.78-.34-1.2-.51-2.71-.51-4.81v-1.58ZM154.24,177.76c.09,0,.17.04.29.15.75.72,1.53,1.92,2.03,3.09.33.79.64,1.86.64,2.17,0,.15-.08.22-.39.39-.34.18-1.05.42-1.23.42-.13,0-.19-.08-.24-.34-.2-1.16-.46-2-.93-2.97-.42-.87-.45-.92-1.47-2.17.63-.46,1.12-.74,1.3-.74Z"/>
        <path d="M168.04,175.83c0,.13-.06.18-.32.33-.1.06-.24.18-.38.34-.93,1.08-2.26,2.54-3.45,3.73-.25.26-.36.45-.36.63,0,.16.12.34.41.6.88.81,2.32,2.28,3.39,3.5.75.84.94,1.11.94,1.26,0,.17-.25.42-.87.9-.29.23-.47.33-.56.33-.13,0-.19-.06-.34-.3-.64-1.02-2.22-2.92-3.42-4.14-.67-.67-.81-.83-1.02-1.12-.25-.36-.36-.66-.36-1,0-.3.09-.62.27-.92q.17-.27,1.08-1.25c.87-.9,1.8-2.04,2.38-2.88.39-.55.59-.92.78-1.42,1.17.64,1.82,1.14,1.82,1.41Z"/>
        <path d="M176.32,185.05q0-1.63.01-2.34c-.75.82-1.26,1.48-1.51,1.95-.08.15-.18.24-.27.24-.15,0-.51-.31-.99-.85-.19-.24-.28-.38-.28-.44q0-.1.76-.85c.64-.65,1.51-1.67,2.33-2.75,0-.09,0-.43.01-1.04-.74.13-1.68.39-1.93.53-.15.08-.18.09-.25.09-.26,0-.47-.58-.66-1.75.79-.01,1.79-.12,2.88-.3,0-.54.01-1.31.01-1.73,0-.45-.03-.81-.09-1.11.95.06,1.41.12,1.83.22.22.06.31.15.31.32,0,.08-.03.15-.09.3-.15.3-.17.41-.29,1.59.36.22.71.6.71.79q0,.13-.46.71c-.04.06-.18.25-.41.54q-.01.48-.01.58c1.47-1.25,2.71-1.77,4.18-1.77,2.34,0,3.81,1.48,3.81,3.87,0,1.83-.84,3.2-2.57,4.12-.66.38-1.79.78-2.12.78-.09,0-.19-.03-.24-.09t-.23-.3c-.25-.36-.54-.64-.84-.85,2.99-.81,4.17-1.86,4.17-3.71,0-1.44-.85-2.37-2.21-2.37-.88,0-1.69.29-2.65.92q-.48.32-1.33,1.04.01.12.01.32c0,1.6,0,1.74.09,4.89.02.17.02.29.02.31,0,.29-.21.35-1.31.35-.39,0-.42-.04-.42-.47l.02-1.74Z"/>
        <path d="M194.82,179.64c.03,1.12.06,1.71.21,3.21,1.26.41,1.86.66,2.75,1.14,1.18.67,1.79,1.12,1.79,1.33,0,.18-.2.53-.54,1.02-.22.33-.39.48-.51.48-.08,0-.14-.03-.24-.13-1.07-1.02-1.92-1.58-3.18-2.08-.03.92-.2,1.39-.63,1.84-.53.53-1.44.81-2.62.81-1.96,0-3.17-.87-3.17-2.29,0-1.52,1.32-2.48,3.38-2.48.5,0,.93.03,1.3.08-.15-2.46-.2-3.64-.21-5.85-.01-.87-.04-1.39-.13-2.1.69.01,1.38.09,1.79.19.24.08.33.15.33.32,0,.08-.01.12-.06.24-.17.39-.22.96-.25,2.62q.12,0,.58-.03c.72-.04,1.74-.23,2.88-.54.04-.01.08-.01.12-.01.09,0,.12.03.18.18.15.36.32,1.09.32,1.35,0,.12-.06.17-.2.21-1.16.27-2.78.5-3.66.5h-.21ZM191.88,183.96c-1.02,0-1.63.34-1.63.91,0,.53.51.8,1.46.8,1.15,0,1.66-.41,1.66-1.35v-.12c-.49-.18-.92-.24-1.48-.24Z"/>
        <path d="M209.94,186.09c0,.66-.52,1.18-1.18,1.18s-1.19-.53-1.19-1.18.53-1.19,1.19-1.19,1.18.53,1.18,1.19ZM209.42,183.87h-1.33l-.41-8.98h2.16l-.42,8.98Z"/>
      </g>
      <circle class="cls-9" cx="308.24" cy="187.19" r="30"/>
      <path class="cls-8" d="M329.77,1.42H90.4c-4.68,0-8.47,3.79-8.47,8.47v43.9s-9.69,9.69-9.69,9.69h9.69s0,.5,0,.5c0,4.68,3.79,8.47,8.47,8.47h239.38c4.68,0,8.47-3.79,8.47-8.47V9.89c0-4.68-3.79-8.47-8.47-8.47Z"/>
      <g>
        <path d="M98.05,21.27c2.49-.71,3.78-.93,5.19-.93,1.51,0,2.7.41,3.5,1.19.66.68,1.02,1.6,1.02,2.7,0,1.92-1.03,3.54-2.83,4.47-.96.48-1.93.81-3.27,1.06-.58.12-.88.17-1.11.17-.18,0-.27-.06-.36-.23-.34-.69-.48-.9-.93-1.36,2.23-.27,3.45-.57,4.62-1.16,1.28-.63,1.98-1.67,1.98-2.92,0-1.41-.96-2.32-2.43-2.32-1.78,0-3.76.51-6.04,1.56-.41.18-.62.29-.77.38-.27.15-.34.18-.43.18-.29,0-.79-.92-1.14-2.07.69-.09,1.38-.25,3.01-.71Z"/>
        <path d="M110.5,21.15c0-.44-.02-1.02-.04-1.35.69.07,1.2.18,1.6.33.36.14.48.23.48.39q0,.09-.06.24c-.2.51-.25,1.08-.25,2.44,0,1.92.12,3.12.42,4.03.22.71.57,1.11.97,1.11.62,0,1.12-.72,1.68-2.38.28.77.39.99.81,1.53.08.1.12.21.12.31,0,.24-.22.75-.53,1.19-.58.85-1.33,1.32-2.13,1.32-1.15,0-2.02-.93-2.56-2.77-.34-1.2-.51-2.71-.51-4.81v-1.58ZM119.43,21.4c.09,0,.17.04.29.15.75.72,1.53,1.92,2.03,3.09.33.79.64,1.86.64,2.17,0,.15-.08.23-.39.39-.34.18-1.05.42-1.23.42-.13,0-.19-.08-.24-.34-.2-1.16-.46-2-.93-2.97-.42-.87-.45-.92-1.47-2.17.63-.46,1.12-.73,1.3-.73Z"/>
        <path d="M128.08,26.88c.04.07.06.13.06.21,0,.1-.02.12-.15.45-.3.69-.66,1.77-.84,2.58-.04.17-.09.25-.15.29-.08.03-.59.1-.75.1h-.06c-.08,0-.18-.02-.3-.02-.2,0-.24-.04-.3-.23-.29-.97-.51-2.98-.51-4.5,0-1.65.1-2.67.52-4.92.15-.81.22-1.26.29-1.75.63.12,1.17.27,1.62.48.25.1.33.18.33.33,0,.1-.02.15-.18.39-.5.79-1.05,3.98-1.05,6.12,0,.34.02.81.06,1.56.42-.94.57-1.23.92-1.96.13.31.22.46.49.87ZM131.34,27.95c.48.25,1.05.34,2.06.34s1.53-.07,2.46-.34c.09-.03.16-.04.21-.04.1,0,.18.06.19.21.08.51.13,1.11.13,1.41,0,.15-.04.2-.25.26-.81.21-1.63.31-2.64.31-1.38,0-2.23-.17-2.94-.58-.66-.41-1.35-1.23-1.35-1.64,0-.21.32-.49,1.12-.99.27.54.53.81,1,1.06ZM130.29,20.3c.33.08,1.29.14,2.03.14.99,0,1.98-.08,2.91-.24q.08-.01.14-.01c.1,0,.15.04.18.16.03.15.08.81.08,1.22,0,.22-.04.3-.21.33-.62.12-1.63.19-2.71.19-1.29,0-2.45-.08-2.59-.17-.08-.04-.11-.15-.11-.42,0-.41.04-1,.08-1.12.01-.06.06-.09.15-.09.02,0,.04,0,.08.01Z"/>
        <path d="M147.16,24.61v-7.04h4.79v1.64h-3v5.4h-1.79Z"/>
        <path d="M162.34,23.55h2.13c.68,0,1.1-.03,1.54-.09v1.63c-.48-.04-.93-.07-1.56-.07h-1.62c.86,1.5,2.1,2.74,3.58,3.58-.48.48-.69.78-.99,1.5-.61-.43-1.05-.85-1.62-1.5-.74-.85-1.05-1.32-1.53-2.22.03.54.04,1,.04,1.44v1.81c0,.67.03,1.2.09,1.67h-1.67c.06-.46.09-1,.09-1.68v-1.71c0-.4.02-.88.04-1.48-.91,1.65-1.93,2.76-3.39,3.73-.38-.71-.58-1-.9-1.36,1.54-.89,2.8-2.17,3.67-3.78h-.95c-.64,0-1.11.03-1.58.09v-.6c-.25.36-.43.69-.61,1.22-.38-.59-.6-1.05-.89-1.8.03.47.06,1.27.06,1.91v3.69c0,.77.03,1.32.09,1.77h-1.67c.06-.46.09-1.02.09-1.77v-3.1c0-.57.02-.93.11-1.86-.44,1.46-.87,2.43-1.52,3.41-.18-.68-.37-1.11-.67-1.6.72-.92,1.47-2.61,1.92-4.35h-.57c-.44,0-.69.02-.96.06v-1.53c.24.04.51.06.96.06h.72v-1.16c0-.76-.01-1.14-.08-1.5h1.65c-.06.39-.08.8-.08,1.5v1.16h.43c.36,0,.54-.02.78-.06v1.42c.57-1.02,1.05-2.52,1.09-3.49l1.46.38c-.06.17-.1.34-.21.79-.08.27-.1.4-.18.69h1.15v-.99c0-.61-.03-.99-.09-1.36h1.68c-.06.36-.09.77-.09,1.36v.99h1.7c.72,0,1.14-.03,1.54-.09v1.58c-.42-.04-.9-.08-1.54-.08h-1.7v1.81ZM159.21,21.74c-.25.62-.39.9-.81,1.6q-.36-.38-1.17-.94c.12-.17.17-.24.24-.35-.2-.03-.44-.04-.71-.04h-.38c.34.79.71,1.4,1.36,2.28v-.82c.45.06.87.09,1.56.09h1.53v-1.81h-1.63Z"/>
        <path d="M171.79,24.59v7.02h-4.78v-1.63h3.01v-5.38h1.77Z"/>
        <path d="M187.65,27.6c-.72,1.25-1.71,1.94-2.73,1.94-1.56,0-2.67-1.53-2.67-3.66,0-2.37,1.2-4.41,3.25-5.49,1-.54,2.08-.78,3.51-.78,3.14,0,5.46,2.22,5.46,5.19,0,2.62-1.29,4.51-3.78,5.58-.5.21-.89.33-1.08.33-.18,0-.25-.06-.45-.34-.25-.39-.54-.68-.95-.95,3.09-.79,4.49-2.25,4.49-4.68,0-1.25-.53-2.29-1.46-2.96-.53-.36-.95-.51-1.77-.64-.42,3.16-.92,4.89-1.83,6.46ZM185.49,22.29c-1,.88-1.58,2.15-1.58,3.55,0,1.16.38,1.83,1,1.83.75,0,1.52-1.04,2.08-2.82.36-1.12.54-1.98.77-3.65-1.07.23-1.59.48-2.28,1.08Z"/>
        <path d="M204.94,20.65v-.85c0-1.1-.02-1.31-.08-1.75h1.62c-.06.34-.09.66-.09,1.23,0,.4,0,.75-.03,1.38h1.44c.65,0,.99-.02,1.4-.06-.03.51-.04.85-.08,1.75-.08,2.83-.27,4.67-.54,5.47.41.14.69.2,1.11.26-.08,1.48-.33,2.17-.93,2.52-.55.33-1.35.39-4.71.39s-3.64-.18-3.64-1.46v-3.61h-.67c-.11,1.32-.18,1.74-.39,2.38-.27.83-.71,1.54-1.29,2.15-.24.25-.46.45-.95.84-.27-.48-.6-.88-1.05-1.27,1.16-.81,1.59-1.33,1.89-2.26.2-.58.25-.99.29-1.83h-.12c-.42,0-.78.02-1.16.04.03-.3.05-.58.05-1.05v-2.16c-.17.15-.21.2-.39.36-.13-.51-.36-1-.66-1.46.71-.56,1.1-.96,1.61-1.69.52-.77.87-1.47,1.02-2.12l1.67.23q-.04.06-.42.83h1.18c.5,0,.78-.02,1.12-.04l.62.66c-.1.15-.24.36-.38.62-.3.57-.67,1.15-.96,1.56h1c.41,0,.71-.01,1-.03v-1.08c.36.06.6.08,1.2.08h.32ZM199.86,21.68c.39-.54.66-1,.85-1.47h-1.6c-.32.51-.58.87-1.08,1.47h1.83ZM198.31,24.56h1.32v-1.54h-1.32v1.54ZM200.86,24.56h1.37v-1.54h-1.37v1.54ZM206.31,22.05c-.07,1.17-.3,2.39-.61,3.38-.48,1.5-1.1,2.49-2.36,3.79-.21-.39-.52-.72-1.06-1.15.71-.63,1.03-1.04,1.47-1.8.63-1.05.97-2.32,1.12-4.21h-.29c-.53,0-.79.02-1.05.05-.02.21-.02.38-.02.6v2.23c0,.42.02.72.05,1.02-.41-.04-.6-.04-1.14-.04h-.54v3.06c0,.54.23.6,2.49.6,3.55,0,3.63-.03,3.75-1.16-.33.2-.66.27-1.3.27-.29,0-.72-.02-1.19-.06-.06-.78-.09-.97-.29-1.48.66.12,1.1.17,1.4.17.42,0,.57-.18.66-.83.18-1.3.24-2.29.28-4.42h-1.38Z"/>
        <path d="M214.15,24.81c.5,0,.78-.02,1-.04q-.01.34-.09,1.95c-.04,1.17-.23,2.38-.45,3.07-.18.58-.48.95-.95,1.12-.25.09-.61.14-1.15.14-.42,0-.83-.02-1.25-.05-.06-.66-.12-.94-.3-1.59.52.09,1.06.14,1.42.14.52,0,.71-.08.81-.36.24-.62.36-1.56.39-3.02h-1.67c-.41,0-.57,0-.99.03.24-1.21.41-2.95.42-4.57.34.04.5.04,1.21.04h1.09v-1.75h-1.42c-.57,0-.93.02-1.26.06v-1.53c.32.06.71.07,1.35.07h1.75c.48,0,.77-.01,1.11-.04-.03.42-.04.66-.04,1.1v2.16c0,.44.01.83.04,1.33-.27-.03-.57-.04-1.02-.04h-1.37q-.11,1.23-.18,1.79h1.51ZM218.79,22.02c-1.92.1-2.96.18-3.13.19l-.15-1.5c.21.02.48.03.74.03h.42c.63-1.04,1.02-1.86,1.33-2.79l1.65.31q-.17.3-.52.99c-.27.52-.48.87-.86,1.44q1.75-.09,3.06-.18c-.33-.44-.54-.69-1.12-1.33l1.18-.65c1,1.04,1.79,2.02,2.62,3.29l-1.25.87c-.29-.49-.39-.67-.58-.96-.73.08-1.17.12-1.96.18v1.21h1.95c.52,0,.79-.02,1.15-.06-.04.33-.06.58-.06,1.02v2.15c0,.46.01.73.06,1.09-.38-.03-.78-.04-1.2-.04h-1.91v1.71q.79-.09,1.51-.19c-.13-.25-.24-.45-.5-.85l1.25-.5c.87,1.37,1.11,1.85,1.71,3.27l-1.36.55c-.23-.64-.33-.9-.5-1.27-1.68.29-4.23.63-5.96.79-.67.08-.71.08-.96.12l-.25-1.63c.18.02.25.02.43.02.63,0,1.75-.06,3.2-.17v-1.85h-1.72c-.53,0-.86.02-1.23.06.03-.34.04-.72.04-1.14v-2.04c0-.39-.01-.72-.04-1.08.34.03.67.04,1.2.04h1.75v-1.11ZM217.24,24.41v1.6h1.54v-1.6h-1.54ZM220.21,26.01h1.65v-1.6h-1.65v1.6Z"/>
        <path d="M231.63,26.6c-1.48.87-1.91,1.31-1.91,1.96,0,.27.11.45.33.58.33.2,1.07.3,2.01.3.81,0,1.93-.08,2.7-.18.32-.04.5-.09,1.09-.24h.08c.11,0,.18.07.23.18.09.31.15.77.15,1.31,0,.23-.08.31-.27.36-.36.08-2.03.17-3.12.17-1.83,0-2.8-.12-3.52-.42-.87-.36-1.31-1.04-1.31-1.98,0-.87.41-1.63,1.21-2.28.65-.51.79-.62,2.18-1.4-.12-.5-.35-.71-.81-.71-.62,0-1.26.24-1.96.71-.43.3-.95.72-1.26,1.03-.45.47-.5.5-.62.5-.15,0-.46-.34-.78-.87-.15-.25-.24-.45-.24-.55,0-.14.03-.17.39-.39,1.23-.82,2.25-1.88,2.87-2.95-1.07.07-1.62.09-2.21.09-.23,0-.27-.04-.34-.3-.05-.2-.12-.99-.14-1.4.51.07.81.09,1.53.09.58,0,1.23-.02,1.91-.04.31-.85.42-1.4.43-2.1,1.33.23,1.95.45,1.95.71,0,.06-.02.09-.06.18-.1.19-.22.43-.42.9q-.03.06-.04.1c.86-.12,1.61-.27,2.13-.39.33-.09.41-.1.48-.1.12,0,.18.04.21.14.06.27.15.96.15,1.17,0,.17-.06.24-.25.28-.48.14-2.13.39-3.51.52-.45.83-.76,1.31-1.23,1.81.67-.31,1.18-.43,1.78-.43.68,0,1.12.39,1.43,1.23,1.48-.81,2.28-1.24,2.37-1.3.69-.4.98-.63,1.31-1,.61.63,1.27,1.57,1.27,1.83,0,.09-.06.15-.25.2-.74.19-2.1.78-4.38,1.89.01.27.04.96.04,1.44v.72c0,.18-.03.27-.1.31-.08.08-.48.12-.93.12-.51,0-.6-.04-.6-.29v-.06c.03-.44.04-1,.04-1.36v-.08Z"/>
        <path d="M246.12,21.89c-3.29.21-4.56.34-5.5.6-.06.02-.12.03-.17.03-.11,0-.2-.08-.24-.2-.13-.38-.21-.87-.25-1.62h.36c.48,0,.93-.02,2.37-.1,1.11-.06,2.05-.1,3.4-.15-.01-1.35-.03-1.56-.17-2.23,1.16.03,1.74.08,1.95.17.09.04.13.12.13.27,0,.03-.01.09-.04.17-.13.33-.18.66-.21,1.59,2.19-.06,2.52-.06,4.02-.06.41,0,.46,0,.51.05.06.06.09.28.09.79,0,.69-.02.76-.21.76h-.06c-.64-.06-2.25-.12-3.3-.12q-.34,0-1.09.01l-.03,2.46c.23.5.3.92.3,1.64,0,1.87-.69,3.31-2.14,4.38-.6.45-1.37.84-1.63.84-.13,0-.21-.04-.33-.17-.42-.48-.74-.72-1.28-1.02.9-.25,1.37-.46,1.95-.83.44-.28.83-.6,1.11-.91.19-.24.34-.47.57-.95-.43.45-.79.62-1.35.62-1.26,0-2.08-.96-2.08-2.42,0-1.53.97-2.64,2.33-2.64.43,0,.71.06,1,.19v-1.15ZM244.3,25.4c0,.63.36,1.06.9,1.06.57,0,.92-.41.92-1.1s-.33-1.11-.9-1.11c-.54,0-.92.46-.92,1.14Z"/>
        <path d="M262.26,23.25c2.12,0,3.62,1.44,3.62,3.48,0,1.39-.74,2.65-1.96,3.39-.86.51-1.91.77-3.09.77-1.91,0-3.02-.77-3.02-2.07,0-1.19.99-2.02,2.4-2.02,1.27,0,2.19.64,2.8,1.96.76-.56,1.08-1.14,1.08-1.95,0-1.29-.92-2.13-2.36-2.13s-3.04.73-4.35,2.04c-.24.24-.46.5-.73.84-.11.15-.18.21-.27.21-.27,0-1.33-1.05-1.33-1.32,0-.13.06-.21.39-.45.34-.27.84-.7,1.47-1.3,1.46-1.38,2.52-2.54,4.09-4.46-1.88.24-3.13.45-3.6.62-.08.02-.12.03-.17.03-.12,0-.2-.07-.29-.3-.18-.45-.27-.94-.32-1.6.41.06.69.08,1.02.08.72,0,1.93-.1,3.51-.29.55-.06.73-.1,1.16-.27.13-.06.21-.08.3-.08.21,0,.42.18.81.78.29.39.38.58.38.71,0,.19-.04.25-.38.46-.27.17-.43.3-.78.63-.75.72-.76.72-1.69,1.67-.66.67-.74.75-1.33,1.35.97-.54,1.74-.77,2.64-.77ZM260.82,28.44c-.23-.15-.48-.23-.77-.23-.46,0-.76.23-.76.58,0,.44.46.71,1.18.71.33,0,.62-.03.99-.14-.18-.5-.33-.72-.64-.93Z"/>
        <path d="M275.64,18.96c.18.12.25.21.25.31s-.01.12-.24.38c-.08.09-.3.42-.54.83q-.75,1.25-1.16,1.96c-.42.71-.69,1.19-.84,1.41q-.04.07-.25.45c-.2.35-.32.52-.53.81.97-.85,1.5-1.08,2.49-1.08.66,0,1.25.29,1.62.78.31.42.4.81.54,2.28.07.88.15,1.27.25,1.5.1.21.31.33.58.33,1.03,0,2.26-1.25,2.86-2.88.15.63.27.93.58,1.48.11.18.14.3.14.45,0,.17-.08.38-.26.66-.78,1.26-2.05,2.01-3.42,2.01-.86,0-1.58-.3-1.95-.79-.3-.42-.44-.98-.56-2.44-.07-.96-.15-1.29-.36-1.53-.17-.18-.41-.27-.74-.27-.99,0-2.29,1.33-3.06,3.1-.22.51-.38.97-.54,1.54-.06.22-.13.31-.24.31-.31,0-1.04-.3-1.42-.58-.1-.09-.15-.15-.15-.24,0-.07.03-.15.22-.57.12-.27.17-.35.27-.62q1.11-2.59,4.19-8.82c.34-.69.51-1.12.61-1.58.78.29,1.14.47,1.62.79Z"/>
        <path d="M284.05,22.98h-.09c-.08.02-.13.02-.17.02-.13,0-.21-.06-.25-.26-.09-.38-.15-.82-.18-1.41.21.02.38.02.48.02.81,0,1.75-.06,2.55-.17.15-.99.23-1.74.23-2.37v-.34c1.74.24,2.07.33,2.05.6,0,.08-.03.12-.09.26-.18.34-.2.39-.44,1.57.58-.1,1.33-.3,1.64-.4.06-.03.07-.03.12-.03.13,0,.16.06.28.58.06.3.12.72.12.84,0,.1-.04.16-.18.19q-.27.09-2.33.45c-.69,3.06-1.41,5.29-2.56,8-.08.19-.15.27-.24.27-.2,0-.72-.21-1.23-.49-.26-.14-.33-.2-.33-.29,0-.06.04-.17.12-.31,1.14-2.16,1.97-4.46,2.54-6.91-.66.07-1.12.12-2.04.19ZM290.46,28.68c.43.29,1.06.42,1.95.42.97,0,1.81-.09,2.29-.24.12-.03.15-.04.21-.04.13,0,.19.04.24.18.11.31.18.93.18,1.4,0,.19-.06.27-.26.31-.49.1-1.33.17-2.22.17-1.88,0-2.92-.3-3.61-1.02-.25-.27-.46-.6-.58-.98-.09-.22-.15-.48-.15-.57,0-.25.45-.52,1.23-.78.17.63.34.92.72,1.15ZM294.67,24.32c-.3-.04-.93-.08-1.46-.08-1.11,0-1.58.04-2.89.27-.03.02-.08.02-.11.02-.09,0-.13-.03-.17-.12-.04-.1-.1-.84-.1-1.15,0-.19.03-.29.15-.33.06-.03.15-.04.46-.1,1.02-.18,1.88-.25,2.92-.25.87,0,1.32.03,1.43.1.07.06.09.18.09.67,0,.44-.03.83-.06.92-.01.04-.08.08-.15.08-.03,0-.08,0-.12-.02ZM293.02,19.04c.2,0,1.47,1.42,1.47,1.65,0,.06-.1.19-.22.29-.06.04-.15.12-.25.21-.13.12-.18.15-.33.21t-.08.03c-.06,0-.06-.02-.34-.45-.25-.39-.74-.99-.99-1.22-.03-.03-.07-.09-.07-.1.03-.06.04-.09.04-.09.07-.09.33-.3.39-.34.15-.08.24-.14.25-.15.01-.03.03-.03.04-.03h.09ZM295.56,20.09c-.21.15-.36.24-.43.24-.06,0-.09-.03-.17-.15-.33-.54-.65-.93-1.14-1.43-.04-.04-.06-.07-.06-.12,0-.14.57-.56.76-.56.11,0,.29.15.62.5.48.49.83.94.83,1.09,0,.09-.11.19-.41.42Z"/>
        <path d="M300.27,22.58c-1.06.18-1.3.22-1.56.3-.15.04-.27.06-.36.06-.27,0-.4-.48-.46-1.65.87,0,1.35-.04,2.42-.24,0-.48.01-1.03.01-1.23,0-.58-.03-1.09-.09-1.47,1.58.07,2.04.18,2.04.46q0,.08-.13.39t-.2,1.62c.48.38.74.68.72.87,0,.04-.03.08-.09.14-.22.19-.25.22-.52.61q-.06.08-.15.19l-.06.09c0,.23,0,.25-.02.54.45-.51.87-.93,1.28-1.26,1.32-1.08,2.31-1.53,3.39-1.53s1.77.44,2.29,1.33c.45.78.69,1.88.69,3.17,0,.78-.06,1.38-.23,2.5.72.51,1.5,1.3,1.5,1.51,0,.24-.84,1.08-1.09,1.08-.1,0-.12-.02-.32-.31-.12-.17-.28-.36-.61-.72-.21.39-.33.56-.54.75-.55.51-1.3.78-2.19.78-1.56,0-2.56-.79-2.56-2,0-1.27,1.04-2.23,2.4-2.23.78,0,1.35.1,1.86.33.06-.56.08-.83.08-1.31,0-2.37-.45-3.3-1.59-3.3-.81,0-1.89.57-3.03,1.59-.41.38-.72.69-1.37,1.4v.87c0,1.99.04,4,.11,4.53v.06c0,.27-.21.34-.93.34-.66,0-.79-.06-.79-.34v-.12c.03-.44.04-.96.04-1.62q0-.99.01-2.17s-.03.04-.06.08c-.33.4-.87,1.14-1.22,1.63-.17.24-.25.31-.36.31-.15,0-.42-.27-.88-.87-.18-.23-.29-.42-.29-.5s.08-.17.45-.5c.27-.25,1.29-1.5,1.81-2.19.27-.38.46-.65.58-.84v-1.15ZM306.01,27.72c-.69,0-1.11.29-1.11.75s.32.69.89.69c.5,0,.9-.15,1.17-.45.13-.14.34-.51.34-.57v-.02c-.51-.31-.81-.4-1.29-.4Z"/>
        <path d="M319.72,29.72c0,.66-.52,1.18-1.18,1.18s-1.19-.52-1.19-1.18.53-1.19,1.19-1.19,1.18.52,1.18,1.19ZM319.2,27.5h-1.33l-.41-8.98h2.16l-.42,8.98Z"/>
        <path d="M106.38,51.6h.33c.58,0,.96-.03,1.23-.08v1.48c-.3-.04-.68-.06-1.23-.06h-.33v1.73h.57c.78,0,1.04-.02,1.41-.08v1.53c-.42-.04-.77-.06-1.44-.06h-3.27v.69h-1.53c.06-.36.08-.67.08-1.46v-6.79c-.15.19-.18.24-.38.46-.13-.4-.21-.57-.38-.87v1.33c0,.24.01.5.03.65q-.18-.02-.87-.03h-1.44v.38q-.01.15-.01.27h1.28c.54,0,.7-.02,1-.05v1.22c-.32-.03-.51-.04-1-.04h-1.35c-.04.39-.04.46-.08.73h1.67c.54,0,.72-.02,1-.04v1.26c-.28-.03-.52-.04-1.02-.04h-1.17c.62.6,1.09.92,2.1,1.36-.36.52-.52.83-.69,1.29-1.05-.54-1.75-1.11-2.46-1.96-.56,1.06-1.26,1.71-2.62,2.35-.21-.44-.53-.92-.84-1.27.81-.3,1.09-.47,1.51-.83.34-.3.55-.55.75-.94h-1.08c-.46,0-.75.02-1.08.06v-1.29c.3.04.58.06,1.08.06h1.47c.06-.3.08-.39.11-.73h-1.3c-.48,0-.78.01-1.08.06v-1.24c.31.04.58.06,1.08.06h1.39q.01-.15.03-.65h-1.52c-.51,0-.67,0-.9.03.01-.31.03-.48.03-.75v-1.72c0-.27-.02-.44-.03-.75.25.03.34.03.9.03h4.33c.39,0,.51,0,.81-.03-.02.12-.02.15-.03.3.75-.98,1.38-2.48,1.63-3.81l1.5.38c-.09.18-.12.27-.29.78-.13.38-.31.85-.54,1.36h1.16c.48-.92.71-1.53.9-2.42l1.42.33c-.39,1.06-.53,1.37-.9,2.08h.41c.69,0,1.05-.02,1.46-.07v1.48c-.33-.04-.83-.06-1.46-.06h-.36v1.47h.36c.58,0,.93-.03,1.21-.07v1.48c-.29-.06-.66-.08-1.21-.08h-.36v1.58ZM96.52,44.36c0-.35-.01-.57-.06-.84h1.5c-.03.2-.04.42-.04.84v.15h1.17v-.15c0-.41,0-.58-.04-.84h1.5c-.04.21-.06.41-.06.83v.17c.64,0,.92-.02,1.29-.06v1.4c-.3-.04-.74-.06-1.29-.06.01.54.01.55.03.82h-1.44c.02-.25.02-.3.02-.82h-1.17c0,.48,0,.58.01.82h-1.44c.02-.24.03-.39.03-.82h-.25c-.58,0-.88.02-1.2.06v-1.41c.29.06.63.08,1.21.08h.24v-.15ZM96.7,47.96v1.02h1.16v-1.02h-1.16ZM99.19,48.98h1.09v-1.02h-1.09v1.02ZM104.97,47.22h-1.32v1.47h1.32v-1.47ZM103.65,50.03v1.58h1.32v-1.58h-1.32ZM103.65,54.68h1.32v-1.73h-1.32v1.73Z"/>
        <path d="M114.46,44.16c.37.1.48.18.48.35,0,.1-.01.15-.09.36-.17.44-.29,1.2-.34,2.25-.12,2.42-.18,4.29-.18,5.77,0,.48.04.84.12,1.08.17.5.69.75,1.53.75,1.35,0,2.62-.55,3.79-1.65.54-.51.87-.92,1.42-1.74.09.48.21.79.54,1.47.04.12.08.21.08.35,0,.27-.29.63-1.04,1.3-1.49,1.33-3.13,2.02-4.86,2.02-1.14,0-1.98-.28-2.52-.82-.57-.6-.79-1.38-.79-2.86,0-1.17.01-2.07.13-5.56.02-.52.03-.84.03-.98,0-1.27-.01-1.65-.11-2.29.77.03,1.35.09,1.8.21Z"/>
        <path d="M135.69,49.8c-.69,0-1.79.23-2.54.51-1.59.61-2.64,1.74-2.64,2.83,0,.69.45,1.15,1.35,1.38.41.1,1.11.18,1.6.17h.15c.25,0,.34.09.34.28,0,.5-.09,1.19-.17,1.38-.06.12-.13.16-.29.16-.91,0-2.07-.24-2.85-.6-1.15-.51-1.79-1.4-1.79-2.5,0-.71.27-1.43.78-2.07.29-.35.51-.56,1.05-.93-2.73.83-4.09,1.35-5.01,1.95-.12.08-.19.1-.27.1-.17,0-.3-.13-.51-.51-.21-.35-.36-.77-.36-.99,0-.14.06-.18.42-.29.34-.1.58-.25,1.16-.66.69-.51,1.77-1.44,2.7-2.32.77-.73,1.2-1.19,2.1-2.23-.87.1-3.23.51-3.57.6-.21.06-.22.06-.27.06-.14,0-.2-.06-.25-.21-.12-.33-.23-.88-.3-1.51.21.01.32.01.45.01.67,0,2.13-.12,3.93-.34.67-.08,1.07-.17,1.33-.3.18-.09.21-.1.32-.1.18,0,.42.19.84.7.3.35.39.51.39.68s-.06.24-.25.38q-.27.17-1.53,1.33c-1.04.96-2.27,2.01-3.65,3.1,2.12-.63,3.22-.93,5.52-1.44.51-.1,1.01-.24,1.58-.42.08-.03.13-.04.18-.04.12,0,.18.06.25.19.17.35.36,1.08.36,1.35,0,.21-.06.3-.22.3h-.34Z"/>
        <path d="M143.19,47.6c.97-.25,1.62-.35,2.33-.35,2.13,0,3.36,1.26,3.36,3.42,0,1.88-.81,3.39-2.45,4.59-.87.65-2.19,1.29-2.62,1.29-.2,0-.24-.04-.56-.5-.22-.34-.45-.55-.82-.82,1.72-.58,2.44-.96,3.22-1.64.9-.79,1.35-1.75,1.35-2.89,0-1.22-.57-1.91-1.58-1.91-.81,0-1.86.31-3.22.98-.2.09-.3.17-.55.35-.06.03-.12.06-.18.06-.29,0-.77-.84-1.1-1.96.56-.04.84-.12,2.82-.61ZM144.19,43.94c.54.17,1.35.32,2.08.41.3.03.41.04,1.17.07.22,0,.29.06.29.23,0,.5-.11,1.31-.2,1.46-.03.09-.1.12-.21.12-.34,0-1.56-.17-2.26-.31-1.19-.24-2.22-.54-2.43-.71-.05-.04-.08-.1-.08-.17,0-.12.31-.93.46-1.21.08-.12.12-.15.21-.15q.08,0,.96.27Z"/>
        <path d="M153.91,48.5h-.09c-.08.02-.13.02-.17.02-.13,0-.21-.06-.25-.26-.09-.38-.15-.82-.18-1.41.21.02.38.02.48.02.81,0,1.75-.06,2.55-.17.15-.99.23-1.74.23-2.37v-.34c1.74.24,2.07.33,2.05.6,0,.08-.03.12-.09.26-.18.34-.2.39-.44,1.57.58-.1,1.33-.3,1.64-.4.06-.03.07-.03.12-.03.13,0,.16.06.28.58.06.3.12.72.12.84,0,.1-.04.16-.18.19q-.27.09-2.33.45c-.69,3.06-1.41,5.29-2.56,8-.08.19-.15.27-.24.27-.2,0-.72-.21-1.23-.49-.26-.14-.33-.2-.33-.29,0-.06.04-.17.12-.31,1.14-2.16,1.97-4.46,2.54-6.91-.66.07-1.12.12-2.04.19ZM160.32,54.2c.43.29,1.06.42,1.95.42.97,0,1.81-.09,2.29-.24.12-.03.15-.04.21-.04.13,0,.19.04.24.18.11.31.18.93.18,1.4,0,.19-.06.27-.26.31-.49.1-1.33.17-2.22.17-1.88,0-2.92-.3-3.61-1.02-.25-.27-.46-.6-.58-.98-.09-.22-.15-.48-.15-.57,0-.25.45-.52,1.23-.78.17.63.34.92.72,1.15ZM164.53,49.83c-.3-.04-.93-.08-1.46-.08-1.11,0-1.58.04-2.89.27-.03.02-.08.02-.11.02-.09,0-.13-.03-.17-.12-.04-.1-.1-.84-.1-1.15,0-.19.03-.29.15-.33.06-.03.15-.04.46-.1,1.02-.18,1.88-.25,2.92-.25.87,0,1.32.03,1.43.1.07.06.09.18.09.67,0,.44-.03.83-.06.92-.01.04-.08.08-.15.08-.03,0-.08,0-.12-.02ZM162.88,44.55c.2,0,1.47,1.42,1.47,1.65,0,.06-.1.19-.22.29-.06.04-.15.12-.25.21-.13.12-.18.15-.33.21t-.08.03c-.06,0-.06-.02-.34-.45-.25-.39-.74-.99-.99-1.22-.03-.03-.07-.09-.07-.1.03-.06.04-.09.04-.09.07-.09.33-.3.39-.34.15-.08.24-.14.25-.15.01-.03.03-.03.04-.03h.09ZM165.42,45.6c-.21.15-.36.24-.43.24-.06,0-.09-.03-.17-.15-.33-.54-.65-.93-1.14-1.43-.04-.04-.06-.07-.06-.12,0-.14.57-.56.76-.56.11,0,.29.15.62.5.48.49.83.94.83,1.09,0,.09-.11.19-.41.42Z"/>
        <path d="M169.26,44.45v-.21c.94.17,1.42.3,1.81.5.11.04.13.1.13.21,0,.06-.03.13-.09.24-.13.24-.18.42-.41,1.41-.28,1.29-.43,2.73-.43,4.3,0,.84.03,1.31.12,2.1l.79-1.6c.09.31.21.57.39.78.12.15.14.19.14.31s0,.12-.29.75c-.32.67-.5,1.26-.66,2.02-.04.24-.09.31-.17.35-.12.06-.63.13-.93.13-.21,0-.29-.04-.33-.18-.36-1.02-.66-3.12-.66-4.62,0-1.29.17-3.07.43-4.95.09-.62.14-1.06.14-1.38v-.17ZM174.37,48.69c-.84,0-1.08-.03-1.16-.13-.1-.14-.19-.75-.19-1.31v-.22c.6.06,1.08.09,1.84.09.58,0,.92-.02,1.51-.06-.04-1.56-.13-2.49-.31-2.97h.4c.53,0,1.17.04,1.5.12.15.03.23.12.23.24,0,.06-.02.12-.04.23-.08.21-.12.54-.12.93,0,.23.01.93.01,1.11v.15c.75-.12,1.11-.2,1.74-.41.06-.01.12-.03.18-.03.09,0,.13.04.17.13.06.17.12.75.12,1.08,0,.24-.04.35-.17.39-.2.07-1.11.25-2,.38.02.42.02.65.02.88,0,2.21-.27,3.78-.87,4.96-.54,1.06-1.71,2.31-2.19,2.31-.13,0-.19-.03-.36-.18-.5-.44-.58-.51-1.17-.78,1.05-.58,1.72-1.22,2.19-2.07.5-.91.76-2.17.76-3.55,0-.1,0-.36-.01-.72-.01-.15-.01-.38-.03-.68-.54.04-1.75.1-2.05.1Z"/>
        <path d="M186.34,48.51c-.19-.66-.25-1.06-.43-2.91-.06-.72-.12-1.08-.27-1.59.91.02,1.5.06,1.9.17.23.06.33.17.33.33,0,.06-.01.13-.04.25-.1.36-.15.63-.15,1.02,0,.73.15,1.94.32,2.46.09.28.18.39.34.39.36,0,1.68-.69,2.4-1.24.19-.15.22-.17.3-.17.13,0,.27.1.5.39.38.51.67,1.06.67,1.27,0,.17-.11.27-.36.34-.93.25-2.46.85-3.49,1.35-1.83.9-2.66,1.73-2.66,2.65s.76,1.29,2.7,1.29c1.12,0,2.14-.1,3.52-.33.06-.02.17-.03.2-.03.12,0,.19.06.25.18.04.15.15,1.06.15,1.43,0,.21-.06.28-.26.34-.33.08-2.14.18-3.28.18-1.92,0-3.2-.25-3.99-.79-.67-.47-1.04-1.2-1.04-2.1,0-.69.2-1.31.6-1.9.52-.78,1.09-1.27,2.35-2.02-.31-.29-.43-.5-.57-.96ZM191.79,45.15c.12-.09.2-.12.29-.12.21,0,1.51,1.38,1.51,1.6,0,.09-.12.23-.41.46-.3.25-.33.27-.4.27-.09,0-.11,0-.39-.42-.3-.42-.72-.9-1.04-1.17-.04-.04-.07-.09-.07-.14,0-.07.13-.21.51-.49ZM195.04,45.56c0,.09-.04.15-.22.3-.21.18-.5.38-.56.38-.09,0-.12-.04-.3-.28-.34-.5-.55-.73-1.09-1.23-.06-.06-.08-.09-.08-.14,0-.13.57-.57.75-.57.25,0,1.5,1.27,1.5,1.54Z"/>
        <path d="M196.65,52.94c.27-.24.34-.3.45-.3.19,0,1.09.66,1.75,1.29.75.69,1.59,1.69,1.59,1.9,0,.14-.03.17-.46.56-.57.52-.69.62-.79.62-.09,0-.18-.06-.25-.21-.53-.93-1.73-2.16-2.79-2.85-.12-.09-.18-.15-.18-.24,0-.1.03-.15.69-.76Z"/>
        <path d="M213.39,48.72c-.02,2.34-.08,3.13-.3,4.35-.22,1.25-.71,2.22-1.54,3.19-.22-.46-.58-.87-1.14-1.32.83-.84,1.12-1.41,1.33-2.56.18-1,.22-1.65.22-3.66-.52,0-.81.01-1.26.07v-1.54c.44.06.75.08,1.37.08h3.4c.59,0,.92-.02,1.26-.06v1.5c-.39-.03-.58-.04-1.17-.04v4.06c.54-.24.72-.33,1.2-.6v1.45c-.84.48-1.18.65-1.99.99-.86.36-.89.38-1.14.5l-.3-1.59c.24-.03.53-.09.84-.21v-4.6h-.78ZM211.18,44.24c.38.04.58.06,1.25.06h2.58c.68,0,.89-.02,1.25-.06v1.5c-.34-.04-.48-.04-1.25-.04h-2.58c-.66,0-.89.01-1.25.06v-1.51ZM218.23,45.32c-.72,0-1.12.01-1.53.07v-1.53c.41.06.76.07,1.53.07h4.05c.78,0,1.18-.01,1.56-.07v1.53c-.42-.06-.81-.07-1.56-.07h-1.29c-.12.34-.27.72-.42,1.05h1.39c.75,0,1.14-.02,1.37-.04-.03.34-.04.76-.04,1.32v4.78c0,.58.01,1.08.04,1.48-.33-.03-.74-.04-1.2-.04h-.48c.42.44.46.48.78.72.58.45,1.04.71,1.83,1.06-.48.45-.72.75-1.08,1.27-1.17-.73-1.72-1.19-2.75-2.22l1.12-.84h-3.03l1.11.89c-1.05,1.02-1.72,1.51-3.06,2.17-.25-.44-.6-.81-1.09-1.21,1.44-.54,2-.89,2.97-1.85h-.18c-.48,0-.84.02-1.1.03.02-.44.03-.84.03-1.31v-4.92c0-.66-.01-.9-.04-1.33.21.02.53.03,1.18.03h.69c.18-.39.29-.67.41-1.05h-1.21ZM218.64,48.45h3.21v-.9h-3.21v.9ZM218.64,50.52h3.21v-.9h-3.21v.9ZM218.64,52.62h3.21v-.93h-3.21v.93Z"/>
        <path d="M232.18,51.35v3.39c1.14-.24,1.32-.3,2.15-.54l.04,1.38c-1.19.35-2.5.66-3.95.92l-.73.15-.29-1.5c.39,0,.46-.01,1.3-.13v-3.66h-.24c-.38,0-.64.01-.87.03-.08,1.83-.11,2.1-.26,2.97-.22,1.27-.45,1.73-1,2.02-.28.15-.66.23-1.23.23-.45,0-.81-.02-1.33-.04-.04-.62-.12-.94-.3-1.59.66.09,1.14.13,1.48.13.46,0,.63-.09.74-.36.24-.58.36-1.52.41-3.02h-1.71c-.41,0-.56,0-.99.03.25-1.41.41-3.04.42-4.57.34.04.5.04,1.2.04h1.18v-1.75h-1.46c-.54,0-.92.02-1.26.06v-1.54c.34.06.75.09,1.35.09h1.8c.39,0,.7-.02,1.09-.06-.03.36-.04.67-.04,1.12v2.15c0,.42.01.92.04,1.33-.29-.03-.58-.04-1.02-.04h-1.42q-.08.99-.18,1.78h1.67c.36,0,.6-.02.81-.03v-.41c.33.03.63.04,1.16.04h.09v-4.72c0-.6-.01-.96-.06-1.32.51.04.9.06,1.6.06h3.76c.69,0,1.23-.03,1.62-.09v1.47c-.42-.04-.84-.06-1.56-.06h-3.92v.72h3.79c.57,0,.93-.01,1.26-.07v1.35c-.39-.04-.75-.06-1.25-.06h-3.81v.73h3.83c.61,0,.93-.02,1.23-.06v1.35c-.42-.06-.75-.08-1.25-.08h-3.81v.78h4.63c.6,0,1.02-.01,1.39-.07v1.53c-.4-.06-.78-.07-1.35-.07h-2.5c.21.64.42,1.06.79,1.57.67-.54,1.08-.93,1.5-1.48l1.12.87c-.62.64-1.12,1.11-1.72,1.56.81.69,1.36,1,2.44,1.41-.43.58-.55.82-.81,1.5-1.35-.69-2.28-1.4-3.03-2.25-.83-.96-1.32-1.89-1.68-3.18h-.9Z"/>
        <path d="M247.8,48.77c2.12,0,3.62,1.44,3.62,3.48,0,1.39-.74,2.65-1.96,3.39-.86.51-1.91.77-3.09.77-1.91,0-3.02-.77-3.02-2.07,0-1.19.99-2.02,2.4-2.02,1.27,0,2.19.64,2.8,1.96.76-.56,1.08-1.14,1.08-1.95,0-1.29-.92-2.13-2.36-2.13s-3.04.73-4.35,2.04c-.24.24-.46.5-.73.84-.11.15-.18.21-.27.21-.27,0-1.33-1.05-1.33-1.32,0-.13.06-.21.39-.45.34-.27.84-.7,1.47-1.3,1.46-1.38,2.52-2.54,4.09-4.46-1.88.24-3.13.45-3.6.62-.08.02-.12.03-.17.03-.12,0-.2-.07-.29-.3-.18-.45-.27-.94-.32-1.6.41.06.69.08,1.02.08.72,0,1.93-.1,3.51-.29.55-.06.73-.1,1.15-.27.14-.06.21-.08.3-.08.21,0,.42.18.81.78.29.39.38.58.38.71,0,.19-.04.25-.38.46-.27.17-.43.3-.78.63-.75.72-.76.72-1.69,1.67-.66.67-.74.75-1.33,1.35.97-.54,1.74-.77,2.64-.77ZM246.36,53.96c-.23-.15-.48-.23-.77-.23-.46,0-.76.23-.76.58,0,.44.46.71,1.18.71.33,0,.62-.03.99-.14-.18-.5-.33-.72-.64-.93Z"/>
        <path d="M261.22,48.78c.03,1.12.06,1.71.21,3.21,1.26.41,1.86.66,2.75,1.14,1.18.67,1.79,1.12,1.79,1.33,0,.18-.2.52-.54,1.02-.23.33-.39.48-.51.48-.08,0-.14-.03-.24-.14-1.07-1.02-1.92-1.57-3.18-2.08-.03.91-.2,1.39-.63,1.84-.53.52-1.44.81-2.62.81-1.96,0-3.17-.87-3.17-2.29,0-1.52,1.32-2.48,3.38-2.48.5,0,.93.03,1.3.08-.15-2.46-.2-3.65-.21-5.85-.01-.87-.04-1.39-.13-2.1.69.02,1.38.09,1.79.19.24.08.33.15.33.31,0,.08-.01.12-.06.24-.17.39-.22.96-.25,2.62q.12,0,.58-.03c.72-.04,1.74-.23,2.88-.54.04-.01.08-.01.12-.01.09,0,.12.03.18.18.15.36.32,1.1.32,1.35,0,.12-.06.17-.2.21-1.16.27-2.77.5-3.66.5h-.21ZM258.28,53.1c-1.02,0-1.63.34-1.63.91,0,.53.51.8,1.46.8,1.15,0,1.66-.41,1.66-1.35v-.12c-.49-.18-.92-.24-1.48-.24Z"/>
        <path d="M276.34,55.23c0,.66-.52,1.18-1.18,1.18s-1.19-.52-1.19-1.18.53-1.19,1.19-1.19,1.18.52,1.18,1.19ZM275.82,53.01h-1.33l-.41-8.98h2.16l-.42,8.98Z"/>
        <path d="M290.8,55.23c0,.66-.52,1.18-1.18,1.18s-1.19-.52-1.19-1.18.53-1.19,1.19-1.19,1.18.52,1.18,1.19ZM290.28,53.01h-1.33l-.41-8.98h2.16l-.42,8.98Z"/>
      </g>
      <circle class="cls-10" cx="31.42" cy="60.58" r="30"/>
      <g>
        <path class="cls-7" d="M40.46,50.61c5.99-4.82,10.66-4.4,11.63-2.77.89,1.5-.2,9.39-9.12,4.98"/>
        <path class="cls-4" d="M44.7,53.19c2.15-3.7,6.52-2.97,7.65-2.44-1.95,3.62-3.96,4.96-7.65,2.44Z"/>
        <path class="cls-1" d="M47.7,54.76c-1.31,0-2.95-.38-4.99-1.39-.3-.15-.43-.52-.28-.82.15-.3.52-.42.82-.28,3.32,1.64,5.84,1.68,7.3.12,1.3-1.4,1.35-3.69,1.02-4.24-.21-.35-.72-.62-1.4-.75-.91-.17-4.28-.39-9.33,3.68-.26.21-.65.17-.86-.09-.21-.26-.17-.65.09-.86,3.68-2.96,7.54-4.43,10.31-3.93,1.04.19,1.83.66,2.23,1.32.64,1.09.43,3.95-1.18,5.69-.75.81-1.93,1.54-3.74,1.54Z"/>
        <path class="cls-7" d="M45.95,64.84c1.64-16.83-17.12-22.81-25.65-13.47-2.98,3.26-5.19,9.03-4.06,15.78-3.29,3.25-2.73,7.92,2.42,10.47,3.1,1.53,6.2,2.2,13.34,2.2,6.63,0,14.3-2.8,16.45-6.94,1.2-2.31.78-5.73-2.5-8.03Z"/>
        <path class="cls-2" d="M35.72,47.2c-.6-4.19-4.15-6.53-4.34-.47"/>
        <path class="cls-2" d="M24.04,48.27c-.51-4.21,2.31-7.38,4.07-1.58"/>
        <path class="cls-7" d="M19.58,51.33c-6.66-3.83-11.22-2.69-11.92-.92-.65,1.62,2.36,9.82,10.47,4.08"/>
        <path class="cls-4" d="M16.3,55.15c-2.15-3.7-7.04-2.78-8.16-2.25,1.95,3.62,4.48,4.77,8.16,2.25Z"/>
        <path class="cls-4" d="M29.14,46.72c1.23,7.47-2.33,14.46-12.54,14.46,0-11.43,12.54-14.46,12.54-14.46Z"/>
        <path class="cls-4" d="M31.38,46.73c0,8.41,6.81,12.73,13.85,13.26,0-11.43-13.85-13.26-13.85-13.26Z"/>
        <path class="cls-4" d="M15.15,73.61c13.82-6.39,25.47-3.61,33.3-.74-3.13,7.58-29.27,10.16-33.3.74Z"/>
        <path class="cls-1" d="M32,80.42c-7.6,0-10.65-.79-13.61-2.26-2.69-1.33-4.37-3.31-4.74-5.59-.32-1.98.37-3.97,1.94-5.63-1.1-7.14,1.47-12.92,4.26-15.98,4.25-4.65,11.26-5.93,17.43-3.18,3.01,1.34,5.47,3.51,7.11,6.28,1.79,3.02,2.53,6.55,2.2,10.5,3.38,2.57,3.64,6.23,2.4,8.6-2.36,4.55-10.5,7.26-17,7.26ZM30.62,47.56c-3.76,0-7.35,1.46-9.87,4.22-2.64,2.89-5.06,8.42-3.91,15.27.03.2-.03.39-.17.53-1.44,1.42-2.08,3.13-1.81,4.8.3,1.88,1.75,3.55,4.07,4.69,2.8,1.38,5.72,2.13,13.07,2.13,6.88,0,14.02-2.96,15.91-6.61,1.03-1.99.75-5.1-2.31-7.25-.18-.13-.28-.34-.26-.56.71-7.25-2.5-13.19-8.57-15.9-2.01-.89-4.11-1.33-6.16-1.33Z"/>
        <path class="cls-1" d="M12.92,57.12c-1.46,0-2.58-.54-3.4-1.18-2.09-1.64-2.9-4.58-2.44-5.76.29-.72.99-1.31,1.99-1.65,2.66-.93,6.7-.08,10.8,2.27.29.17.39.54.23.83-.17.29-.54.39-.83.23-5.62-3.23-8.91-2.49-9.79-2.18-.65.23-1.11.57-1.26.95-.21.53.31,2.97,2.06,4.35,1.89,1.49,4.48,1.14,7.5-.99.27-.19.65-.13.85.15.19.27.13.66-.15.85-2.23,1.58-4.07,2.14-5.56,2.14Z"/>
        <path class="cls-1" d="M35.72,47.81c-.3,0-.56-.22-.6-.52-.32-2.23-1.49-3.66-2.13-3.63-.31.02-.93.69-1,3.09-.01.34-.3.6-.63.59-.34-.01-.6-.29-.59-.63.11-3.62,1.4-4.23,2.15-4.27.03,0,.06,0,.09,0,1.46,0,2.94,2.06,3.31,4.67.05.33-.18.64-.52.69-.03,0-.06,0-.09,0Z"/>
        <path class="cls-1" d="M24.03,48.88c-.3,0-.57-.23-.6-.54-.32-2.67.61-5.08,2.07-5.39.74-.15,2.14.1,3.19,3.56.1.32-.08.66-.41.76-.32.1-.66-.08-.76-.41-.7-2.3-1.46-2.79-1.77-2.72-.62.13-1.38,1.81-1.11,4.05.04.33-.2.64-.53.68-.02,0-.05,0-.07,0Z"/>
        <path class="cls-1" d="M36.97,58.72c-.65-1.09-1.64-1.26-2.42-.7-.18.13-.11.42.12.44.71.07,1.33.3,1.99.61.22.1.44-.14.31-.35Z"/>
        <path class="cls-1" d="M26,58.92c.65-1.09,1.64-1.26,2.42-.7.18.13.11.42-.12.44-.71.07-1.33.3-1.99.61-.22.1-.44-.14-.31-.35Z"/>
        <circle class="cls-1" cx="32.85" cy="72.73" r=".57"/>
        <circle class="cls-1" cx="31.06" cy="72.73" r=".57"/>
        <path class="cls-1" d="M31.73,77.06c-.21,0-.41-.01-.6-.04-1.65-.22-2.98-1.29-3.43-2.66l-.43.02c-.33.01-.63-.25-.64-.59-.01-.34.25-.63.59-.64l.94-.04c.31,0,.59.22.63.53.16,1.1,1.18,1.99,2.5,2.16,1.47.2,2.73-.55,3.36-2,.12-.27.4-.42.69-.36l.78.16c.33.07.55.4.48.73s-.4.55-.73.48l-.31-.06c-.93,1.71-2.48,2.32-3.84,2.32Z"/>
        <path class="cls-1" d="M34.39,68.25c-.11,0-.22-.03-.32-.11-.24-.18-.29-.52-.11-.75.44-.59,1.04-.92,1.7-.93.69,0,1.35.32,1.82.92.19.23.15.57-.09.76-.23.19-.57.15-.76-.08-.26-.33-.61-.51-.95-.51,0,0-.01,0-.02,0-.32,0-.62.18-.85.5-.11.14-.27.22-.43.22Z"/>
        <path class="cls-1" d="M29.19,68.25c-.16,0-.33-.08-.43-.22-.24-.32-.53-.49-.85-.5,0,0-.01,0-.02,0-.34,0-.68.19-.95.51-.19.23-.53.27-.76.08-.23-.19-.27-.53-.09-.76.48-.6,1.14-.94,1.82-.92.66.01,1.26.34,1.7.93.18.24.13.58-.11.75-.1.07-.21.11-.32.11Z"/>
      </g>
      <g>
        <path class="cls-1" d="M326.17,179.32c1.98.16,1.35,2.34.38,3.61-.2.27-.59.3-.85.08-1.72-1.47-1.12-3.82.47-3.69Z"/>
        <path class="cls-1" d="M326.07,180.19c-.34,0-.62-.28-.62-.62v-3.92l-.99-1.38c-.2-.28-.14-.67.14-.87.28-.2.67-.14.87.14l1.1,1.54c.08.11.12.23.12.36v4.12c0,.34-.28.62-.62.62Z"/>
        <path class="cls-6" d="M310.89,205.2c1.36-.08,2.68-.26,3.95-.54,9.96-2.2,10.33-7.28,10.2-11.51s-1.05-19.4-13.27-20.23c-12.22-.83-15.37,8.9-17.74,12.05s-10.98,13.01,5.18,18.52c1.58.54,3.14.95,4.68,1.24"/>
        <polygon class="cls-5" points="323.03 169.31 316.84 168.73 319.59 174.3 325.9 174.97 323.03 169.31"/>
        <rect class="cls-5" x="316.25" y="172.45" width="6.74" height="2.93" transform="translate(177.48 -161.05) rotate(38.45)"/>
        <path class="cls-11" d="M290.32,190.88c5.12.33,8.07,5.74,6.18,11.54-4.99-2.72-7.78-5.48-6.18-11.54Z"/>
        <path class="cls-11" d="M324.52,193.04c-5.9-.82-10.43,4.27-9.51,10.87,6.27-1.75,10.04-4.05,9.51-10.87Z"/>
        <ellipse class="cls-1" cx="302.51" cy="193.22" rx="1.86" ry="1.71" transform="translate(64.58 461.99) rotate(-81.05)"/>
        <path class="cls-1" d="M302.34,183.44c1.67-.68,3.18-.04,3.89,1.27.17.31-.14.57-.47.41-1.05-.53-2.09-.79-3.22-1.01-.38-.07-.52-.54-.2-.67Z"/>
        <path class="cls-1" d="M315.65,185.99c-1.24-1.32-2.88-1.35-4.07-.46-.28.21-.11.58.26.56,1.18-.05,2.23.15,3.35.42.37.09.69-.27.46-.52Z"/>
        <path class="cls-1" d="M310.89,205.8c-.32,0-.58-.25-.6-.57-.02-.33.24-.62.57-.64,1.31-.08,2.61-.25,3.85-.53,9.99-2.21,9.83-7.44,9.72-10.9-.13-4.35-.83-8.12-2.06-11.19-2.12-5.28-5.7-8.12-10.65-8.46-9.8-.66-13.46,5.57-15.88,9.7-.49.84-.91,1.56-1.33,2.11-.12.16-.25.33-.39.51-1.69,2.2-4.83,6.29-3.64,10.22.85,2.82,3.86,5.13,8.92,6.86,1.53.52,3.07.93,4.59,1.21.33.06.54.38.48.71-.06.33-.38.55-.71.48-1.58-.3-3.18-.72-4.76-1.26-5.46-1.86-8.72-4.43-9.69-7.65-1.37-4.52,2.15-9.1,3.84-11.3.14-.18.27-.35.38-.5.38-.5.78-1.2,1.26-2,2.42-4.12,6.46-11.01,17.01-10.29,5.45.37,9.39,3.47,11.69,9.21,1.28,3.2,2.01,7.11,2.15,11.6.15,4.69-.55,9.89-10.67,12.12-1.3.29-2.66.47-4.04.55-.01,0-.02,0-.04,0Z"/>
        <path class="cls-1" d="M301.57,192.59c-.07,0-.13-.02-.19-.07-.77-.61-1.16-1.23-1.45-2.3-.04-.16.05-.33.21-.37.16-.04.33.05.37.21.29,1.08.66,1.53,1.24,1.99.13.1.15.29.05.42-.06.08-.15.11-.24.11Z"/>
        <path class="cls-1" d="M301.37,193.19c-.81,0-1.68-.47-2.38-1.28-.11-.13-.09-.32.03-.43.13-.11.32-.09.43.03.63.74,1.4,1.13,2.08,1.06.16-.02.32.1.33.27s-.1.32-.27.33c-.08,0-.15.01-.23.01Z"/>
        <path class="cls-1" d="M321.37,178.22c-.13,0-.26-.04-.37-.13-.26-.21-.31-.59-.1-.85l2.28-2.89c.13-.16.33-.25.54-.23l1.15.12-2.22-4.37-4.78-.45.68,1.37c.1.2.08.45-.06.63l-1.83,2.43c-.2.27-.58.32-.85.12-.27-.2-.32-.58-.12-.85l1.6-2.13-1-2.01c-.1-.2-.08-.43.04-.61.12-.18.34-.28.55-.26l6.19.58c.21.02.39.14.48.33l2.88,5.66c.1.2.08.43-.04.62-.13.18-.34.28-.56.26l-1.93-.21-2.07,2.62c-.12.15-.3.23-.48.23Z"/>
        <path class="cls-3" d="M311.57,199.01c-.68-1.85-3.69-3.85-5.22-3.63s-4.76,2.08-5.76,2.02-1.7-.74-1.82,1.61,1.72,3.55,4.17,2.69c3.41,1.94,9.79.49,8.63-2.69Z"/>
        <path class="cls-3" d="M311.57,201.11c-.76,2.94-4.99,4.67-6.27,4.24s-3.94-1.64-2.54-4.21c2.53.42,8.05.42,8.16-.8s.64.77.64.77Z"/>
        <path class="cls-1" d="M306.59,203.18c-1.07,0-2.22-.33-3.41-1-2.32.66-3.62.04-4.3-.61-.86-.82-1.18-2.14-.84-3.43.35-1.31.93-1.42,1.84-1.44.65-.02,1.64-.04,3.25-.88,3.58-1.88,5.67-.8,7.71,1.4.2.21.19.55-.03.75s-.55.19-.75-.03c-1.8-1.94-3.44-2.76-6.44-1.18-1.83.96-3.01.99-3.72,1q-.67.02-.84.65c-.24.91-.02,1.85.55,2.4.71.68,1.92.79,3.47.3.14-.04.3-.03.43.05,1.94,1.14,4.71,1.83,6.92-1.39.14-.21.4-.28.64-.19,0,0,.73.29,1.37.44.29.06.47.35.4.63-.06.29-.35.47-.63.4-.42-.09-.85-.23-1.14-.34-1.24,1.64-2.77,2.48-4.47,2.48Z"/>
        <path class="cls-1" d="M305.84,205.89c-.57,0-1.12-.1-1.63-.29-2.62-1.02-2.61-3.62-2.61-3.73,0-.29.24-.52.53-.52h0c.29,0,.53.24.52.54,0,.08.02,1.98,1.94,2.73,1.12.44,2.58.22,3.89-.58,1.45-.88,2.41-2.28,2.56-3.74.03-.29.29-.5.58-.47.29.03.5.29.47.58-.19,1.78-1.33,3.48-3.06,4.54-1.03.63-2.15.95-3.19.95Z"/>
        <path class="cls-1" d="M310.74,195.34c-.15,0-.29-.05-.41-.15-.27-.23-.3-.63-.08-.9.73-.86,1.61-1.32,2.49-1.27.79.04,1.53.49,2.06,1.26.2.29.13.69-.16.89-.29.2-.69.13-.89-.16-.21-.31-.57-.68-1.07-.71-.47-.02-.99.27-1.45.82-.13.15-.31.23-.49.23Z"/>
        <path class="cls-1" d="M313.81,194.23c-.15,0-.28-.11-.3-.26-.02-.17.09-.32.26-.34.71-.1,1.53-.71,1.99-1.49.09-.14.27-.19.41-.11.14.09.19.27.11.41-.56.94-1.53,1.66-2.43,1.78-.01,0-.03,0-.04,0Z"/>
        <path class="cls-1" d="M315.24,194.81c-.39,0-.8-.07-1.19-.25-.15-.07-.22-.25-.15-.4.07-.15.25-.22.4-.15.91.42,1.95.09,2.65-.26.15-.07.33-.01.4.14.07.15.01.33-.14.41-.54.26-1.24.52-1.98.52Z"/>
      </g>
    </g>
  </g>
</svg>