<?xml version="1.0" encoding="UTF-8"?>
<svg id="_レイヤー_2" data-name="レイヤー 2" xmlns="http://www.w3.org/2000/svg" width="339.72" height="248.25" viewBox="0 0 339.72 248.25">
  <defs>
    <style>
      .cls-1 {
        fill: #211815;
      }

      .cls-2 {
        fill: #f5f19b;
      }

      .cls-3 {
        fill: #e0a99c;
      }

      .cls-4 {
        fill: #ecbb6e;
      }

      .cls-5 {
        fill: #93c9ce;
      }

      .cls-6 {
        fill: #5c948d;
      }

      .cls-7 {
        fill: #fffba1;
      }

      .cls-8, .cls-9 {
        fill: #fff;
      }

      .cls-10 {
        fill: #d3f2c9;
      }

      .cls-11 {
        fill: #de8a4c;
      }

      .cls-12 {
        fill: #ceeaeb;
      }

      .cls-13 {
        fill: #f2d496;
      }

      .cls-9 {
        stroke: #ceeaeb;
        stroke-miterlimit: 10;
        stroke-width: 2.83px;
      }
    </style>
  </defs>
  <g id="_レイヤー_1-2" data-name="レイヤー 1">
    <g>
      <circle class="cls-12" cx="30" cy="59.77" r="30"/>
      <path class="cls-9" d="M9.95,107.66h239.38c4.68,0,8.47,3.79,8.47,8.47v97.34s9.69,9.69,9.69,9.69h-9.69s0,.5,0,.5c0,4.68-3.79,8.47-8.47,8.47H9.95c-4.68,0-8.47-3.79-8.47-8.47v-107.53c0-4.68,3.79-8.47,8.47-8.47Z"/>
      <g>
        <path d="M14.13,127.17c0-1.14.83-2.42,1.79-3.15h1.39c-.96.79-1.86,1.98-1.75,2.87.78.04,1.37.42,1.37,1.05s-.51,1.11-1.18,1.11c-.95,0-1.61-.76-1.61-1.87ZM17.45,127.17c0-1.14.83-2.42,1.79-3.15h1.4c-.96.79-1.86,1.98-1.75,2.87.78.04,1.36.42,1.36,1.05s-.51,1.11-1.18,1.11c-.95,0-1.61-.76-1.61-1.87Z"/>
        <path d="M21.66,135.5c1.54-.32,3.07-.79,4.27-1.38h-2.52v-5.88h.38v-1.58c-.44.36-.93.74-1.52,1.14l-.88-1.02c1.52-.87,2.92-2.16,3.86-3.54l1.26.54c-.39.56-.86,1.1-1.32,1.58v2.88h5.89c-.87-.46-1.5-1.04-2.02-1.83l-3.34.15-.06-1.17,2.81-.11c-.21-.55-.41-1.25-.56-1.96h1.41c.15.74.36,1.4.6,1.91l2.08-.09c-.58-.57-1.03-.93-1.51-1.26l1.12-.63c.54.35,1.14.79,1.54,1.19l-1.08.71,2.31-.08.06,1.12-3.83.17c.69.73,1.83,1.38,2.45,1.38.25,0,.29-.04.5-.99l.03-.12,1.11.67c-.3,1.35-.57,1.74-1.14,1.74-.17,0-.3-.01-.63-.09v5.17h-2.57c1.51.38,2.8.76,4.18,1.3l-1.14,1.19c-1.38-.65-2.82-1.19-4.42-1.68l1.05-.81h-3.99l1.08.81c-1.35.75-2.97,1.42-4.5,1.83l-.96-1.26ZM31.47,129.89v-.72h-6.62v.72h6.62ZM31.47,131.49v-.72h-6.62v.72h6.62ZM31.47,133.16v-.78h-6.62v.78h6.62Z"/>
        <path d="M40.46,135.44c1.35-.5,2.59-1.43,3.06-2.49-.32.25-.72.41-1.16.41-1.53,0-2.5-1.14-2.5-2.69,0-1.38,1.11-2.35,2.42-2.35.43,0,.87.15,1.16.34l-.04-1.32c-2.28.09-4.63.19-6.66.28l-.1-1.5c1.99-.04,4.39-.1,6.7-.21l-.08-2.43,1.58.04c-.01.74-.01,1.53-.01,2.33,1.41-.08,2.76-.15,3.92-.24l.09,1.49c-1.19.06-2.57.12-4,.18l.04,2.4c.17.52.22,1.18.22,1.83,0,2.08-.78,3.72-3.39,5.03l-1.23-1.09ZM43.41,130.7c0-.66-.43-1.07-.99-1.07-.68,0-1.1.53-1.1,1.16s.41,1.21,1.07,1.21,1.02-.51,1.02-1.3Z"/>
        <path d="M51.93,126.17c-.78-.03-1.37-.4-1.37-1.03s.51-1.11,1.19-1.11c.94,0,1.6.76,1.6,1.86s-.83,2.42-1.79,3.16h-1.39c.96-.81,1.86-1.98,1.75-2.88ZM55.25,126.17c-.78-.03-1.36-.4-1.36-1.03s.51-1.11,1.18-1.11c.95,0,1.61.76,1.61,1.86s-.83,2.42-1.79,3.16h-1.4c.96-.81,1.86-1.98,1.75-2.88Z"/>
        <path d="M67.28,132.75c0-1.32,1-2.5,2.88-3.69-.61-1.41-1.3-3.21-1.71-4.98l1.58-.38c.27,1.41.88,3.25,1.44,4.62,1.14-.6,2.5-1.21,4.02-1.84l.69,1.47c-3.94,1.35-7.35,3.11-7.35,4.63,0,.95.79,1.52,2.99,1.52,1.32,0,2.92-.11,4.67-.44l.27,1.61c-1.79.3-3.62.36-4.79.36-3.46,0-4.68-1.15-4.68-2.88Z"/>
        <path d="M81.77,132.56c-.33-1.07-.55-2.97-.55-4.71,0-.75.03-1.82.09-2.75l1.59.33c-.09,1.02-.13,1.92-.13,2.88,0,1.63.17,2.8.43,3.67.32,1.02.76,1.63,1.2,1.63.48,0,1.11-1.04,1.51-2.94l1.32,1.11c-.63,2.37-1.7,3.51-2.8,3.51-1.22,0-2.13-1.06-2.66-2.74ZM88.62,126.9l1.14-1.02c1.8,1.65,2.32,3.67,2.71,6.52l-1.54.48c-.35-2.65-.9-4.77-2.31-5.98Z"/>
        <path d="M98.76,135.36c1.84-.72,2.59-1.23,3.33-2.01.67-.72,1.26-1.88,1.26-2.96,0-1.47-.98-2-1.91-2-.5,0-.97.08-2.21.41-1.12.3-1.69.46-2.61.72l-.44-1.47c.92-.23,1.49-.38,2.54-.63,1.39-.35,2.13-.48,2.94-.48,1.77,0,3.36.99,3.36,3.21,0,1.89-.79,3.13-1.56,4.04-.81.94-1.95,1.68-3.45,2.26l-1.26-1.09ZM98.37,124.89l.57-1.33c1.5.27,2.91.57,4.54,1.35l-.63,1.38c-1.46-.72-3-1.09-4.49-1.39Z"/>
        <path d="M110.34,133.62c0-1.27,1.11-2.22,3.15-2.22.36,0,.72.03,1.11.08-.02-.32-.04-.65-.06-.96-.09-1.37-.17-3.42-.17-4.41,0-.71-.01-1.5.02-2.47l1.6.08c-.09,1-.1,1.69-.12,2.65,1.23-.06,2.49-.21,3.72-.46l.17,1.5c-1.41.22-2.7.36-3.87.42.01.88.06,1.91.12,2.68.03.44.06.89.07,1.31,1.44.4,2.94,1.11,4.21,2.04l-.85,1.31c-1.19-.9-2.31-1.5-3.29-1.88v.29c0,1.57-.94,2.37-2.8,2.37s-3.01-.85-3.01-2.31ZM113.22,134.51c.84,0,1.44-.29,1.44-1.18,0-.11,0-.25-.01-.46-.41-.08-.79-.11-1.12-.11-1.09,0-1.65.38-1.65.88,0,.58.57.87,1.35.87Z"/>
        <path d="M125.85,127.92c0-1.29.17-2.5.5-4.14l1.5.36c-.36,1.44-.6,2.98-.6,4.08,0,.3,0,.58.02.84.3-.75.67-1.53.97-2.12l.76,1.04c-.46.76-.78,1.5-.96,2.02-.27.81-.3,1.33-.27,2.07l-1.2.41c-.55-1.58-.72-3.08-.72-4.56ZM128.1,135.41c2.73-1.65,3.96-3.45,3.96-6.75,0-1.18-.12-2.92-.33-4.63l1.59-.2c.18,1.82.27,3.36.27,4.67,0,3.95-1.15,5.94-4,7.83l-1.48-.92Z"/>
        <path d="M137.25,133.47l1.3-1.12c.92.78,1.98,1.99,2.77,3.13l-1.41,1.24c-.69-1.15-1.64-2.29-2.67-3.25Z"/>
        <path d="M151.98,127.17c0-1.14.83-2.42,1.79-3.15h1.39c-.96.79-1.86,1.98-1.75,2.87.78.04,1.37.42,1.37,1.05s-.51,1.11-1.18,1.11c-.95,0-1.61-.76-1.61-1.87ZM155.3,127.17c0-1.14.83-2.42,1.79-3.15h1.4c-.96.79-1.86,1.98-1.75,2.87.78.04,1.36.42,1.36,1.05s-.51,1.11-1.18,1.11c-.95,0-1.61-.76-1.61-1.87Z"/>
        <path d="M160.22,131.22h1.5v3.07h3.49v-4.68h-2.92v.76h-1.47v-5.4h1.47v3.33h2.92v-4.67h1.53v4.67h3.01v-3.33h1.47v5.4h-1.47v-.76h-3.01v4.68h3.58v-3.07h1.5v5.32h-1.5v-.9h-8.61v.9h-1.5v-5.32Z"/>
        <path d="M173.9,128.03c1.29-.53,2.55-1.23,3.75-2.08l.48,1.08c-.97.74-2.37,1.59-3.55,2.17l-.67-1.17ZM174.08,135.54c1.68-.36,3.11-.81,4.26-1.37h-2.44v-5.44h2.42l-.54-.76c2.35-.42,3.39-1.23,3.48-2.73h-1c-.39.6-.79,1.08-1.23,1.46l-.99-.83c.83-.72,1.47-1.69,1.77-2.71l1.38.24c-.13.33-.24.57-.34.79h5.04l.71.55c-.42.72-.96,1.47-1.53,2.07l-1.23-.5c.39-.34.77-.76.96-1.08h-2.16c.33,1.35,1.74,2.28,4.27,2.79l-.75,1.14c-.22-.07-.72-.22-.97-.31v5.32h-2.66c1.3.3,2.55.68,4.23,1.29l-1.16,1.17c-1.41-.67-2.89-1.25-4.38-1.68l.93-.78h-3.63l1.04.79c-1.14.65-2.88,1.35-4.5,1.8l-.96-1.23ZM174.6,124.47l.87-.93c.73.31,1.56.79,2.31,1.38l-.92,1.05c-.64-.54-1.38-1.04-2.26-1.5ZM183.74,130.26v-.66h-6.42v.66h6.42ZM183.74,131.75v-.66h-6.42v.66h6.42ZM183.74,133.26v-.67h-6.42v.67h6.42ZM184.82,128.73c-1.25-.45-2.24-1.16-2.75-1.96-.46.92-1.21,1.48-2.57,1.96h5.31Z"/>
        <path d="M192.77,135.44c1.35-.5,2.59-1.43,3.06-2.49-.32.25-.72.41-1.16.41-1.53,0-2.5-1.14-2.5-2.69,0-1.38,1.11-2.35,2.42-2.35.43,0,.87.15,1.16.34l-.04-1.32c-2.28.09-4.63.19-6.66.28l-.1-1.5c1.99-.04,4.39-.1,6.7-.21l-.08-2.43,1.58.04c-.01.74-.01,1.53-.01,2.33,1.41-.08,2.76-.15,3.92-.24l.09,1.49c-1.19.06-2.57.12-4,.18l.04,2.4c.17.52.22,1.18.22,1.83,0,2.08-.78,3.72-3.39,5.03l-1.23-1.09ZM195.72,130.7c0-.66-.43-1.07-.99-1.07-.68,0-1.1.53-1.1,1.16s.41,1.21,1.07,1.21,1.02-.51,1.02-1.3Z"/>
        <path d="M206.45,133.76c0-1.05.95-1.81,2.23-1.81s2.39.72,3.12,2.01c.72-.48,1.19-1.18,1.19-2.03,0-1.05-1.07-1.9-2.79-1.9-1.09,0-2.42.36-3.42.99-.69.43-1.2.85-1.96,1.63l-1.04-1.12c1.65-1.28,4.05-3.39,6.21-5.82-1.21.21-2.73.35-3.99.41l-.27-1.44c1.72-.03,3.61-.15,5.77-.56l.85,1.05c-1.44,1.54-2.56,2.61-3.91,3.83.69-.21,1.33-.3,1.93-.3,2.52,0,4.16,1.33,4.16,3.19,0,2.4-2.4,4.05-5.24,4.05-1.54,0-2.85-.82-2.85-2.17ZM209.45,134.61c.39,0,.75-.04,1.11-.13-.46-.81-1.11-1.26-1.8-1.26-.51,0-.81.25-.81.58,0,.53.66.81,1.5.81Z"/>
        <path d="M218.7,126.17c-.78-.03-1.37-.4-1.37-1.03s.51-1.11,1.19-1.11c.94,0,1.6.76,1.6,1.86s-.83,2.42-1.79,3.16h-1.39c.96-.81,1.86-1.98,1.75-2.88ZM222.02,126.17c-.78-.03-1.36-.4-1.36-1.03s.51-1.11,1.18-1.11c.95,0,1.61.76,1.61,1.86s-.83,2.42-1.79,3.16h-1.4c.96-.81,1.86-1.98,1.75-2.88Z"/>
        <path d="M234.05,132.75c0-1.32,1-2.5,2.88-3.69-.61-1.41-1.3-3.21-1.71-4.98l1.58-.38c.27,1.41.88,3.25,1.44,4.62,1.14-.6,2.5-1.21,4.02-1.84l.69,1.47c-3.94,1.35-7.35,3.11-7.35,4.63,0,.95.79,1.52,2.99,1.52,1.32,0,2.92-.11,4.67-.44l.27,1.61c-1.79.3-3.62.36-4.79.36-3.46,0-4.68-1.15-4.68-2.88Z"/>
        <path d="M16.22,158.81c-.33-1.07-.55-2.97-.55-4.71,0-.75.03-1.82.09-2.75l1.59.33c-.09,1.02-.13,1.92-.13,2.88,0,1.63.17,2.8.43,3.67.32,1.02.76,1.63,1.2,1.63.48,0,1.11-1.04,1.51-2.94l1.32,1.11c-.63,2.37-1.7,3.51-2.8,3.51-1.21,0-2.13-1.06-2.66-2.74ZM23.07,153.15l1.14-1.02c1.8,1.65,2.32,3.67,2.71,6.52l-1.54.48c-.35-2.65-.9-4.77-2.31-5.98Z"/>
        <path d="M33.21,161.61c1.84-.72,2.59-1.23,3.33-2.01.67-.72,1.26-1.88,1.26-2.96,0-1.47-.98-2-1.91-2-.5,0-.97.08-2.21.41-1.12.3-1.69.46-2.61.72l-.44-1.47c.92-.23,1.49-.38,2.54-.63,1.39-.35,2.13-.48,2.94-.48,1.77,0,3.36.99,3.36,3.21,0,1.89-.79,3.13-1.56,4.04-.81.94-1.95,1.68-3.45,2.26l-1.26-1.09ZM32.82,151.14l.57-1.33c1.5.27,2.91.57,4.54,1.35l-.63,1.38c-1.46-.72-3-1.09-4.49-1.39Z"/>
        <path d="M43.13,158.03c.76-.9,1.04-1.95,1.04-4v-2.78h6.22c-.08-.58-.13-1.23-.13-1.68h1.39l.12,1.63h1.8c-.33-.39-.72-.78-1.12-1.11l1.16-.63c.43.31.9.76,1.32,1.23l-.92.51h1.91v1.14h-3.97c.12.96.45,1.9.87,2.64.46-.69.82-1.37,1.17-2.22l1.14.66c-.41.94-.9,1.81-1.53,2.67.42.48.9.87,1.1.87.21,0,.38-.48.51-1.62l1.14.7c-.25,1.75-.64,2.52-1.27,2.52-.56,0-1.47-.57-2.33-1.41-.46.53-1.08,1.08-1.68,1.51l-.96-.96c.64-.4,1.26-.93,1.83-1.57-.6-.87-1-2.03-1.35-3.75h-5.01v1.48c0,2.61-.34,3.99-1.27,5.16l-1.16-1ZM43.26,161.72c.69-.76,1.23-1.69,1.62-2.77l1.25.45c-.41,1.38-.96,2.43-1.67,3.24l-1.2-.92ZM45.92,153.06h4.53v.97h-4.53v-.97ZM46.2,154.67h4.02v2.82h-2.87v.57h-1.15v-3.39ZM47.28,162.35c-.24-.19-.38-.49-.38-.88v-2.76h1.44v2.01c0,.62.12.66,1.71.66,1.27,0,1.69-.08,1.84-.33.11-.13.13-.39.18-1.12l1.33.38c-.01.99-.17,1.68-.48,1.95-.34.3-1.08.41-2.91.41s-2.4-.06-2.75-.3ZM49.05,156.56v-.96h-1.7v.96h1.7ZM48.62,158.7l1.08-.76c.62.52,1.23,1.14,1.74,1.8l-1.14.9c-.42-.64-1.04-1.33-1.68-1.93ZM53,159.29l1.14-.69c.87.72,1.75,1.68,2.47,2.71l-1.28.92c-.73-1.22-1.54-2.22-2.34-2.94Z"/>
        <path d="M60.75,158.24c0-.84.03-2.66.06-3.78.03-.97.01-2.97-.01-4.27l1.72.03c-.03,1.29-.08,3.18-.12,4.12-.04,1.01-.08,2.75-.08,3.68,0,1.78.5,2.65,1.89,2.65,1.72,0,3.57-1.23,4.56-3.04l.83,1.63c-1.16,1.65-3.21,2.92-5.4,2.92-2.62,0-3.45-1.63-3.45-3.94ZM65.28,151.58l.96-.46c.51.79.86,1.54,1.23,2.49l-1,.5c-.35-.96-.75-1.77-1.19-2.52ZM66.98,151.08l.97-.46c.53.75.86,1.47,1.26,2.49l-1.02.46c-.39-1.05-.75-1.81-1.21-2.49Z"/>
        <path d="M74.9,158.45c-.48.6-1,1.3-1.62,2.21l-1.27-.95c.96-1.09,1.92-2.31,2.49-3.48.12-.24.27-.65.42-1.11v-1.21c-.72.18-1.66.33-2.34.39l-.24-1.38c.76-.06,1.71-.17,2.56-.38,0-1.08-.01-1.88-.03-2.65l1.59.06c-.03.84-.04,1.62-.06,2.5l.72.34c-.13.42-.43,1.17-.75,1.91v.15c1.54-1.65,3-2.91,4.8-2.91s2.73,1.5,2.73,4.46c0,.75-.08,1.5-.2,2.16.66.36,1.29.81,1.88,1.37l-.96,1.28c-.39-.46-.84-.87-1.3-1.19-.09.25-.2.46-.3.63-.5.79-1.43,1.2-2.5,1.2-1.59,0-2.58-.94-2.58-2.14s1.04-2.04,2.56-2.04c.57,0,1.17.1,1.79.29.06-.53.09-1.07.09-1.58,0-1.77-.41-2.96-1.35-2.96-1.26,0-2.94,1.47-4.65,3.33,0,1.92,0,3.38.03,5.61l-1.58.06c.03-1.51.04-2.76.08-3.96ZM80.51,160.41c.6,0,1.08-.29,1.33-.83.04-.09.09-.19.12-.3-.49-.2-1.02-.3-1.42-.3-.64,0-1.09.27-1.09.67,0,.45.36.75,1.07.75Z"/>
        <path d="M86.31,160.8c0-1.17.98-2.14,2.17-2.14s2.15.99,2.15,2.16-.98,2.16-2.17,2.16-2.15-.99-2.15-2.17ZM89.63,160.82c0-.65-.51-1.16-1.16-1.16s-1.16.53-1.16,1.16.51,1.15,1.16,1.15,1.16-.52,1.16-1.15Z"/>
        <path d="M100.86,154.8c2.55-1,4.44-2.64,5.75-4.94h1.7c1.38,1.94,3.4,3.46,6.01,4.53l-.92,1.25c-.9-.41-1.77-.88-2.57-1.42v1.05h-6.42v-.84c-.84.6-1.74,1.12-2.67,1.54l-.89-1.17ZM111.23,161.42c-2.82.42-6.09.78-9.03,1l-.45-1.44c.69-.03,1.57-.08,2.07-.12.51-.9.97-1.84,1.38-2.9h-3.55v-1.29h11.91v1.29h-6.69c-.45,1.01-.93,1.94-1.42,2.81,1.92-.14,3.43-.25,4.88-.42-.38-.42-.83-.9-1.49-1.49l1.25-.69c1.26,1.1,2.47,2.37,3.48,3.66l-1.32.92c-.45-.63-.53-.72-1-1.33ZM110.52,154.01c-1.2-.84-2.28-1.83-3.06-2.87-.69,1.12-1.5,2.04-2.5,2.87h5.57Z"/>
        <path d="M117.78,157.53c-.58.63-1.05,1.09-1.81,1.72l-.71-1.32c1.44-.99,3.13-2.83,3.97-4.37h-3.52v-1.33h2.01v-2.58h1.41v2.58h1.38l.6.62c-.53,1.04-1.12,2.02-1.84,2.94.9.54,1.59,1.02,2.58,1.83l-.92,1.23c-.66-.69-1.11-1.11-1.74-1.62v5.56h-1.41v-5.26ZM120.5,160.89h3.27v-5.83h-2.64v-1.38h2.64v-3.84h1.48v3.84h2.92v1.38h-2.92v5.83h3.44v1.39h-8.19v-1.39Z"/>
        <path d="M136.41,160.83c2.75-.69,4.38-2.37,4.38-4.5s-1.47-3.52-3.6-3.66c-.11,1.69-.38,3.16-.84,4.6-.72,2.25-2,3.48-3.36,3.48s-2.52-1.39-2.52-3.31c0-3.48,2.88-6.21,6.42-6.21,3.25,0,5.49,1.98,5.49,5.08,0,2.68-1.65,4.68-4.74,5.75l-1.23-1.23ZM133.04,159.15c.77,0,1.41-.9,1.88-2.38.41-1.32.65-2.49.74-3.96-2.07.52-3.64,2.42-3.64,4.65,0,.92.49,1.7,1.03,1.7Z"/>
        <path d="M150.17,157.43c-1.14,2.08-2.71,3.63-4.75,4.71l-1.05-1.29c2.1-.91,3.86-2.43,5.22-4.5h-4.95v-1.33h5.53v-1.91h-4.42v-1.32h4.42v-2.22h1.53v2.22h4.5v1.32h-4.5v1.91h5.62v1.33h-4.98c1.35,1.74,3.02,3.06,5.29,4.14l-1.12,1.38c-2.01-1.14-3.63-2.67-4.81-4.54v5.47h-1.53v-5.37Z"/>
        <path d="M164.64,158.36c-1.21,1.72-2.87,3.01-4.95,3.9l-.93-1.25c2.26-.79,4.11-2.11,5.55-3.88h-5.17v-1.27h2.92c-.3-.86-.74-1.74-1.19-2.38l1.37-.53c.48.72.92,1.56,1.23,2.33l-1.33.58h2.53v-2.97h-4.86v-1.26h4.83v-2.05h1.48v2.05h4.93v1.26h-4.95v2.97h1.04c.51-.95.93-1.95,1.21-2.92l1.51.58c-.38.87-.78,1.65-1.21,2.34h3.06v1.27h-5.13c1.37,1.53,3.27,2.75,5.57,3.55l-.99,1.33c-2.1-.96-3.84-2.25-5.04-3.75v4.53h-1.48v-4.44Z"/>
        <path d="M176.64,159.77c0-1.41,1.5-2.48,3.67-3.51-.2-.55-.63-.79-1.14-.79-.73,0-1.47.38-2.08.9-.55.46-.79.71-1.47,1.59l-1.17-.87c1.12-1.04,2.08-2.28,2.9-3.88-.96.06-1.88.11-2.69.13l-.15-1.45c1.08,0,2.26-.03,3.48-.11.27-.66.51-1.35.75-2.12l1.46.44c-.2.54-.41,1.05-.63,1.54,1.2-.12,2.4-.3,3.58-.56l.19,1.46c-1.35.21-2.94.39-4.5.54-.27.5-.56.98-.86,1.44.45-.23.93-.36,1.39-.36,1.11,0,1.91.55,2.24,1.51,1.02-.43,2.13-.87,3.27-1.33l.57,1.4c-1.42.48-2.64.9-3.63,1.29.03.45.06.85.06,1.29,0,.6,0,.97-.03,1.39h-1.5c.04-.5.09-1.16.09-1.65v-.42c-1.54.73-2.28,1.38-2.28,2.01s.62,1.06,2.22,1.06c1.15,0,2.65-.18,3.9-.43l.27,1.53c-1.12.17-2.4.32-4.2.32-2.34,0-3.72-.74-3.72-2.35Z"/>
        <path d="M189.36,155.82c-.39.66-.78,1.23-1.2,1.71l-.64-1.44c1.32-1.74,2.43-4.12,2.98-6.48l1.46.32c-.39,1.3-.73,2.22-1.15,3.18v9.69h-1.44v-6.97ZM191.51,152.16h9.41v1.2h-9.41v-1.2ZM192.38,158.04h7.56v4.75h-1.42v-.69h-4.69v.69h-1.44v-4.75ZM192.77,150.21h6.78v1.14h-6.78v-1.14ZM192.77,154.17h6.78v1.09h-6.78v-1.09ZM192.77,156.08h6.78v1.11h-6.78v-1.11ZM198.51,160.97v-1.81h-4.69v1.81h4.69Z"/>
        <path d="M205.35,158.24c0-.84.03-2.66.06-3.78.03-.97.01-2.97-.01-4.27l1.72.03c-.03,1.29-.08,3.18-.12,4.12-.04,1.01-.08,2.75-.08,3.68,0,1.78.5,2.65,1.89,2.65,1.72,0,3.57-1.23,4.56-3.04l.83,1.63c-1.16,1.65-3.21,2.92-5.4,2.92-2.62,0-3.45-1.63-3.45-3.94ZM209.88,151.58l.96-.46c.51.79.86,1.54,1.23,2.49l-1,.5c-.35-.96-.75-1.77-1.19-2.52ZM211.58,151.08l.97-.46c.53.75.86,1.47,1.26,2.49l-1.02.46c-.39-1.05-.75-1.81-1.21-2.49Z"/>
        <path d="M221.39,157.68c0-1.67,1.05-3.23,3.02-4.56-2.88.27-4.68.42-6.81.58l-.19-1.57c3.12-.12,7.92-.41,11.43-.98l.3,1.53c-2.08.29-2.79.51-4,1.47-1.38,1.08-2.21,2.19-2.21,3.55,0,1.71,1.37,2.6,4.04,2.94l-.67,1.46c-2.99-.42-4.89-1.86-4.89-4.42Z"/>
        <path d="M232.04,159.35c0-1.04,1.07-2.51,2.8-3.29-.01-.78-.04-1.59-.04-2.28-.97.09-1.9.13-2.68.17l-.15-1.38c.83-.01,1.8-.08,2.81-.15,0-.69-.02-1.51,0-2.38l1.69.08c-.04.67-.06,1.42-.08,2.15.87-.11,1.7-.24,2.4-.39l.17,1.38c-.77.15-1.67.27-2.58.38v.36c0,.41.01.97.03,1.63,1-.3,2.11-.48,3.1-.48,2.4,0,3.69,1.3,3.69,3.07,0,2.17-1.45,3.38-3.52,3.38-.58,0-1.29-.1-1.72-.3l-.24-1.51c.6.24,1.2.38,1.8.38,1.33,0,2.13-.86,2.13-1.92,0-.95-.73-1.74-2.4-1.74-.86,0-1.88.18-2.81.52.03.98.06,1.94.09,2.62.01.42.01.66.01.99,0,.99-.78,1.33-1.67,1.33-1.51,0-2.83-1.18-2.83-2.61ZM234.54,160.46c.38,0,.51-.25.51-.78,0-.38,0-.67-.01-1.17-.01-.31-.01-.64-.03-.94-.88.46-1.47,1.25-1.47,1.79,0,.67.57,1.11,1,1.11ZM239.7,152.07l.75-1.21c1.27.57,2.08,1.09,3.27,2.17l-.9,1.26c-1.14-1.08-1.94-1.63-3.12-2.22Z"/>
        <path d="M14.58,187.28h5.46v-3.32h-4.73v-1.24h4.73v-1.5h-2.28v-.81c-.78.63-1.72,1.21-2.7,1.7l-.87-1.28c2.49-1.05,4.35-2.7,5.66-4.98h1.75c1.39,1.95,3.43,3.52,5.92,4.58l-.96,1.36c-1.09-.6-1.93-1.11-2.56-1.59v1.02h-2.46v1.5h4.81v1.24h-4.81v3.32h5.55v1.3h-12.51v-1.3ZM16.32,184.71l1.35-.51c.39.58.78,1.41,1.2,2.49l-1.47.51c-.28-.9-.66-1.8-1.08-2.49ZM23.72,180c-1.12-.84-2.15-1.84-2.96-2.91-.57,1.02-1.4,2-2.47,2.91h5.43ZM22.71,186.74c.48-.78.93-1.74,1.24-2.64l1.52.54c-.36.81-.86,1.75-1.38,2.58l-1.38-.48Z"/>
        <path d="M32.04,186.02c0-1.41,1.5-2.48,3.67-3.51-.2-.55-.63-.79-1.14-.79-.73,0-1.47.38-2.08.9-.55.46-.79.71-1.47,1.59l-1.17-.87c1.12-1.04,2.08-2.28,2.9-3.88-.96.06-1.88.11-2.69.13l-.15-1.45c1.08,0,2.26-.03,3.48-.11.27-.66.51-1.35.75-2.12l1.46.44c-.2.54-.41,1.05-.63,1.54,1.2-.12,2.4-.3,3.58-.56l.19,1.46c-1.35.21-2.94.39-4.5.54-.27.5-.56.98-.86,1.44.45-.23.93-.36,1.39-.36,1.11,0,1.91.55,2.24,1.51,1.02-.43,2.13-.87,3.27-1.33l.57,1.4c-1.42.48-2.64.9-3.63,1.29.03.45.06.85.06,1.29,0,.6,0,.97-.03,1.39h-1.5c.04-.5.09-1.16.09-1.65v-.42c-1.54.73-2.28,1.38-2.28,2.01s.62,1.06,2.22,1.06c1.15,0,2.65-.18,3.9-.43l.27,1.53c-1.12.17-2.4.32-4.2.32-2.34,0-3.72-.74-3.72-2.35Z"/>
        <path d="M43.95,183.72h1.5v3.07h3.49v-4.68h-2.92v.76h-1.47v-5.4h1.47v3.33h2.92v-4.67h1.53v4.67h3.01v-3.33h1.47v5.4h-1.47v-.76h-3.01v4.68h3.58v-3.07h1.5v5.32h-1.5v-.9h-8.61v.9h-1.5v-5.32Z"/>
        <path d="M62.04,187.94c1.35-.5,2.59-1.43,3.06-2.49-.32.25-.72.41-1.16.41-1.53,0-2.5-1.14-2.5-2.69,0-1.38,1.11-2.35,2.42-2.35.43,0,.87.15,1.16.34l-.04-1.32c-2.28.09-4.63.19-6.66.28l-.1-1.5c1.99-.04,4.39-.1,6.7-.21l-.08-2.43,1.58.04c-.01.74-.01,1.53-.01,2.33,1.41-.08,2.76-.15,3.92-.24l.09,1.49c-1.19.06-2.57.12-4,.18l.04,2.4c.17.52.22,1.18.22,1.83,0,2.08-.78,3.72-3.39,5.03l-1.23-1.09ZM65,183.2c0-.66-.43-1.07-.99-1.07-.68,0-1.1.53-1.1,1.16s.41,1.21,1.07,1.21,1.02-.51,1.02-1.3Z"/>
        <path d="M72.98,187.4c1.28-2.39,2.07-4.33,2.71-6.57-.92.13-1.77.25-2.43.36l-.25-1.46c.69-.06,1.96-.2,2.98-.34.24-1.04.45-2.12.65-3.25l1.53.24c-.19.93-.4,1.86-.64,2.82.42-.03.81-.06,1.12-.06,1.44,0,2.4.88,2.4,2.68,0,1.29-.12,2.91-.45,4.27-.38,1.56-1.28,1.96-2.17,1.96-.71,0-1.4-.13-2.01-.36l-.12-1.65c.7.35,1.38.48,1.83.48.58,0,.89-.32,1.11-1.35.2-.88.3-1.99.3-3.06s-.43-1.59-1.18-1.59c-.27,0-.62.03-1.16.09-.71,2.62-1.48,4.83-2.8,7.51l-1.41-.73ZM81.59,178.98l1.28-.84c1.04,1.47,1.75,3.19,2.34,5.46l-1.44.81c-.56-2.29-1.1-3.92-2.18-5.43Z"/>
        <path d="M89.81,184.31c-.69.73-1.33,1.53-2.01,2.43l-1.26-.93c1.42-1.41,2.32-2.66,2.85-3.58.15-.27.3-.63.43-1v-1.28c-.92.24-2.07.42-2.74.46l-.3-1.39c.96-.08,2.12-.23,3.03-.42,0-.98-.01-1.73-.03-2.46l1.59.06c-.03.77-.04,1.49-.06,2.28l.88.42c-.21.57-.53,1.32-.88,2.16,1.54-1.44,2.98-2.13,4.44-2.13,2.1,0,3.69,1.53,3.69,3.82,0,2.75-1.73,4.38-4.77,5.24l-1.11-1.21c2.98-.77,4.3-2.13,4.3-3.99,0-1.35-.9-2.4-2.17-2.4s-2.85,1.04-4.41,2.46c0,2,0,3.46.03,5.76l-1.58.06c.03-1.68.06-3.03.08-4.35Z"/>
        <path d="M103.68,180.42c0-1.29.17-2.5.5-4.14l1.5.36c-.36,1.44-.6,2.98-.6,4.08,0,.3,0,.58.02.84.3-.75.67-1.53.97-2.12l.76,1.04c-.46.76-.78,1.5-.96,2.02-.27.81-.3,1.33-.27,2.07l-1.2.41c-.55-1.58-.72-3.08-.72-4.56ZM105.93,187.91c2.73-1.65,3.96-3.45,3.96-6.75,0-1.18-.12-2.92-.33-4.63l1.59-.2c.18,1.82.27,3.36.27,4.67,0,3.95-1.15,5.94-4,7.83l-1.48-.92Z"/>
        <path d="M116.94,183.5c0-1.42.32-3.93.86-6.79l1.53.24c-.6,2.9-.92,5.42-.92,6.58,0,.46.03,1,.11,1.46.24-.77.62-1.65.9-2.19l.9.9c-.46.93-.67,1.53-.84,2.1-.2.69-.3,1.37-.24,2l-1.18.5c-.62-1.21-1.11-2.82-1.11-4.79ZM121.29,185.13c0-.64.27-1.36.99-2.17l1.42.48c-.69.6-.92,1.08-.92,1.46,0,.75.63,1.18,2.29,1.18.66,0,1.63-.09,2.59-.32l.3,1.56c-1.04.17-2.07.21-2.7.21-2.71,0-3.99-.72-3.99-2.4ZM121.46,178.23c1.68.03,4.29-.12,6-.39l.18,1.5c-1.72.27-4.32.43-6.04.39l-.14-1.5Z"/>
        <path d="M129.54,185.97l1.3-1.12c.92.78,1.98,1.99,2.77,3.13l-1.41,1.24c-.69-1.15-1.64-2.29-2.67-3.25Z"/>
        <path d="M144.24,181.05c2.55-1,4.44-2.64,5.75-4.94h1.7c1.38,1.94,3.4,3.46,6.01,4.53l-.92,1.25c-.9-.41-1.77-.88-2.57-1.42v1.05h-6.42v-.84c-.84.6-1.74,1.12-2.67,1.54l-.89-1.17ZM154.61,187.67c-2.82.42-6.09.78-9.03,1l-.45-1.44c.69-.03,1.57-.08,2.07-.12.51-.9.97-1.84,1.38-2.9h-3.55v-1.29h11.91v1.29h-6.69c-.45,1.01-.93,1.94-1.42,2.81,1.92-.14,3.43-.25,4.88-.42-.38-.42-.83-.9-1.49-1.49l1.25-.69c1.26,1.1,2.47,2.37,3.48,3.66l-1.32.92c-.45-.63-.53-.72-1-1.33ZM153.9,180.26c-1.2-.84-2.28-1.83-3.06-2.87-.69,1.12-1.5,2.04-2.5,2.87h5.57Z"/>
        <path d="M161.16,183.78c-.58.63-1.05,1.09-1.81,1.72l-.71-1.32c1.44-.99,3.13-2.83,3.97-4.37h-3.52v-1.33h2.01v-2.58h1.41v2.58h1.38l.6.62c-.53,1.04-1.12,2.02-1.84,2.94.9.54,1.59,1.02,2.58,1.83l-.92,1.23c-.66-.69-1.11-1.11-1.74-1.62v5.56h-1.41v-5.26ZM163.88,187.14h3.27v-5.83h-2.64v-1.38h2.64v-3.84h1.48v3.84h2.92v1.38h-2.92v5.83h3.44v1.39h-8.19v-1.39Z"/>
        <path d="M179.79,187.08c2.75-.69,4.38-2.37,4.38-4.5s-1.47-3.52-3.6-3.66c-.11,1.69-.38,3.16-.84,4.6-.72,2.25-2,3.48-3.36,3.48s-2.52-1.39-2.52-3.31c0-3.48,2.88-6.21,6.42-6.21,3.25,0,5.49,1.98,5.49,5.08,0,2.68-1.65,4.68-4.74,5.75l-1.23-1.23ZM176.42,185.4c.77,0,1.41-.9,1.88-2.38.41-1.32.65-2.49.74-3.96-2.07.52-3.64,2.42-3.64,4.65,0,.92.49,1.7,1.03,1.7Z"/>
        <path d="M189.62,182.67c-.41,1.46-.9,2.66-1.47,3.71l-.69-1.53c.87-1.32,1.53-2.9,2-4.77h-1.74v-1.32h1.91v-2.94h1.3v2.94h1.32v1.32h-1.32v.87c.66.58,1.11,1.05,1.58,1.62l-.83,1.11c-.21-.39-.39-.66-.75-1.16v6.52h-1.3v-6.38ZM193.49,184.23c-.33.39-.57.67-1.11,1.2l-.69-1.17c1.18-1.19,2.05-2.33,2.74-3.69h-1.93v-1.11h2.42c.2-.41.3-.71.45-1.23h-1.04c-.22.42-.48.78-.76,1.17l-.98-.79c.63-.79,1.14-1.84,1.38-2.87l1.29.23c-.15.48-.25.75-.43,1.17h5.37v1.09h-3.51c-.15.51-.24.81-.42,1.23h4.56v1.11h-5c-.21.45-.45.88-.72,1.37h1.56c.17-.38.36-.87.48-1.29l1.23.29c-.18.43-.3.69-.48,1h2.61v.94h-2.71v.87h2.31v.93h-2.31v.87h2.31v.93h-2.31v.92h3.08v1.05h-6.09v.6h-1.29v-4.81ZM196.53,183.75v-.87h-1.75v.87h1.75ZM196.53,185.55v-.87h-1.75v.87h1.75ZM196.53,187.4v-.92h-1.75v.92h1.75Z"/>
        <path d="M205.28,183.09c-.65,1.53-1.37,2.72-2.17,3.6l-.88-1.32c1.26-1.17,2.17-2.54,2.86-4.27h-2.62v-1.32h2.82v-1.67c-.54.11-1.16.2-2.03.29l-.58-1.2c1.96-.21,3.78-.58,5.37-1.12l.85,1.2c-.63.21-1.47.42-2.2.57v1.93h2.46v1.32h-2.46v1.03c.97.63,1.74,1.22,2.47,1.88l-.83,1.38c-.54-.66-1.04-1.18-1.65-1.75v5.42h-1.41v-5.96ZM209.97,177.53h1.43v7.89h-1.43v-7.89ZM210.78,188.66l-.3-1.53c.73.12,1.51.2,2.14.2.43,0,.55-.12.55-.55v-10.28h1.44v10.86c0,1.11-.39,1.42-1.73,1.42-.66,0-1.47-.04-2.11-.12Z"/>
        <path d="M223.17,187.08c2.75-.69,4.38-2.37,4.38-4.5s-1.47-3.52-3.6-3.66c-.11,1.69-.38,3.16-.84,4.6-.72,2.25-2,3.48-3.36,3.48s-2.52-1.39-2.52-3.31c0-3.48,2.88-6.21,6.42-6.21,3.25,0,5.49,1.98,5.49,5.08,0,2.68-1.65,4.68-4.74,5.75l-1.23-1.23ZM219.8,185.4c.77,0,1.41-.9,1.88-2.38.41-1.32.65-2.49.74-3.96-2.07.52-3.64,2.42-3.64,4.65,0,.92.49,1.7,1.03,1.7Z"/>
        <path d="M231.48,181.2h12.51v1.65h-12.51v-1.65Z"/>
        <path d="M14.18,207.42h2.01c-.15-.78-.33-1.47-.66-2.34h-1.05v-1.18h2.85v-1.83h1.41v1.83h2.69v1.18h-.87c-.2.86-.42,1.56-.74,2.34h1.92v1.2h-7.56v-1.2ZM15.3,209.78h5.49v5.38h-1.33v-.65h-2.82v.78h-1.33v-5.52ZM19.46,213.29v-2.31h-2.82v2.31h2.82ZM18.48,207.42c.32-.79.53-1.45.74-2.34h-2.36c.27.74.45,1.37.63,2.34h.99ZM22.11,203h4.23l.76.66c-.45,1.53-.87,2.75-1.4,3.88,1.11,1.31,1.64,2.55,1.64,3.84,0,1.43-.56,2.1-1.74,2.1-.53,0-1.02-.04-1.49-.14l-.24-1.48c.36.12.85.18,1.33.18.51,0,.66-.18.66-.84,0-1.17-.6-2.35-1.74-3.46.57-1.11,1.02-2.29,1.32-3.42h-1.96v10.98h-1.38v-12.3Z"/>
        <path d="M32.04,212.27c0-1.41,1.5-2.48,3.67-3.51-.2-.55-.63-.79-1.14-.79-.73,0-1.47.38-2.08.9-.55.46-.79.71-1.47,1.59l-1.17-.87c1.12-1.04,2.08-2.28,2.9-3.88-.96.06-1.88.11-2.69.13l-.15-1.45c1.08,0,2.26-.03,3.48-.11.27-.66.51-1.35.75-2.12l1.46.44c-.2.54-.41,1.05-.63,1.54,1.2-.12,2.4-.3,3.58-.56l.19,1.46c-1.35.21-2.94.39-4.5.54-.27.5-.56.98-.86,1.44.45-.23.93-.36,1.39-.36,1.11,0,1.91.55,2.24,1.51,1.02-.43,2.13-.87,3.27-1.33l.57,1.4c-1.42.48-2.64.9-3.63,1.29.03.45.06.85.06,1.29,0,.6,0,.97-.03,1.39h-1.5c.04-.5.09-1.16.09-1.65v-.42c-1.54.73-2.28,1.38-2.28,2.01s.62,1.06,2.22,1.06c1.15,0,2.65-.18,3.9-.43l.27,1.53c-1.12.17-2.4.32-4.2.32-2.34,0-3.72-.74-3.72-2.35Z"/>
        <path d="M44.21,208.65c0-.53.38-1.26,1.02-1.92l1.05.51c-.4.36-.64.67-.64.88,0,.33.43.48,1.5.48h.22c.06-.36.11-.74.17-1.14.06-.45.13-.93.2-1.43-1-.01-2.01-.07-2.9-.19l-.07-1.42c1.05.15,2.11.24,3.15.24.12-.93.24-1.8.3-2.43l1.56.21c-.11.53-.24,1.32-.38,2.17.92-.04,1.83-.15,2.74-.31l.09,1.42c-.89.15-2.04.25-3.06.29-.07.52-.13,1.02-.19,1.47-.04.38-.09.72-.12,1.04,1.06-.11,2.17-.3,3.03-.57l.33,1.41c-1.11.24-2.37.39-3.51.46-.04.55-.08.96-.08,1.21,0,1.38.62,2.16,2.07,2.14,1.54-.01,2.92-1.09,2.92-2.89,0-.93-.33-1.68-.93-2.68l1.56-.06c.66,1.1.88,2.17.88,2.94,0,2.65-1.84,4.2-4.47,4.2-2.43,0-3.54-1.21-3.54-3.33,0-.35.03-.84.09-1.46h-.36c-1.96,0-2.64-.56-2.64-1.25Z"/>
        <path d="M62.19,212.51c4-.43,6.24-1.81,6.24-3.81,0-1.38-.86-2.45-2.59-2.45-.89,0-1.94.21-3.2.48-1.53.33-2.8.64-4.17.97l-.41-1.57c1.31-.29,2.67-.57,4.17-.87,1.35-.27,2.67-.51,3.67-.51,2.7,0,4.23,1.63,4.23,3.87,0,2.79-2.36,4.67-7.04,5.38l-.92-1.5Z"/>
        <path d="M74.12,211.34c0-.96.5-1.78,1.31-2.58l1.27.74c-.76.58-1.05,1.25-1.05,1.77,0,.98,1.02,1.44,3.39,1.44,1.61,0,3.41-.21,4.75-.55l.38,1.59c-1.65.36-3.12.5-4.9.5-3.39,0-5.15-.98-5.15-2.9ZM77.58,206.7c.53-.43.99-.79,1.54-1.17-1.57.08-3.21.11-4.23.08l-.09-1.51c2.64.09,5.54.03,7.71-.23l.3,1.49c-.6.04-1.04.09-1.53.29-.9.36-1.48.84-2.38,1.65l-1.32-.58Z"/>
        <path d="M88.49,211.5c0-1.32,1-2.5,2.88-3.69-.61-1.41-1.3-3.21-1.71-4.98l1.58-.38c.27,1.41.88,3.25,1.44,4.62,1.14-.6,2.5-1.21,4.02-1.84l.69,1.47c-3.94,1.35-7.35,3.11-7.35,4.63,0,.95.79,1.52,2.99,1.52,1.32,0,2.92-.11,4.67-.44l.27,1.61c-1.79.3-3.62.36-4.79.36-3.46,0-4.68-1.15-4.68-2.88Z"/>
        <path d="M102.48,209.75c0-1.42.32-3.93.86-6.79l1.53.24c-.6,2.9-.92,5.42-.92,6.58,0,.46.03,1,.11,1.46.24-.77.62-1.65.9-2.19l.9.9c-.46.93-.67,1.53-.84,2.1-.2.69-.3,1.37-.24,2l-1.18.5c-.62-1.21-1.11-2.82-1.11-4.79ZM106.83,211.38c0-.64.27-1.36.99-2.17l1.42.48c-.69.6-.92,1.08-.92,1.46,0,.75.63,1.18,2.29,1.18.66,0,1.63-.09,2.59-.32l.3,1.56c-1.04.17-2.07.21-2.7.21-2.71,0-3.99-.72-3.99-2.4ZM107,204.48c1.68.03,4.29-.12,6-.39l.18,1.5c-1.72.27-4.32.43-6.04.39l-.14-1.5Z"/>
        <path d="M116.15,211.34c1.35-2.04,2.19-3.66,2.8-5.29-.99.09-1.93.15-2.67.17l-.19-1.42c1-.01,2.19-.08,3.38-.19.22-.77.45-1.56.66-2.43l1.53.38c-.2.66-.38,1.28-.57,1.86.89-.12,1.73-.27,2.42-.45l.27,1.42c-.78.18-1.95.36-3.18.51-.73,2.04-1.6,3.92-3.03,6.27l-1.41-.81ZM119.22,212.64c0-1.14,1.06-2.06,2.67-2.06.36,0,.75.03,1.14.09-.03-.49-.06-1.08-.06-1.36,0-.42.06-1.16.51-1.92l1.33.76c-.29.58-.33.99-.33,1.41,0,.46.03.9.04,1.42,1.07.34,2.16.88,3.15,1.47l-.72,1.31c-.78-.56-1.58-1.02-2.35-1.35v.24c0,1.39-1,2.25-2.58,2.25-1.39,0-2.8-.71-2.8-2.26ZM122.01,213.48c.69,0,1.11-.32,1.11-.95,0-.12,0-.29-.01-.48-.34-.09-.69-.14-1-.14-.79,0-1.33.29-1.33.77,0,.52.55.79,1.25.79ZM124.28,206.27l.67-1.2c1.37.53,2.46,1.14,3.48,2.13l-.82,1.18c-1.16-1.06-2.04-1.59-3.33-2.11Z"/>
        <path d="M133.56,212.51c0-1.05.95-1.81,2.23-1.81s2.39.72,3.12,2.01c.72-.48,1.19-1.18,1.19-2.03,0-1.05-1.07-1.9-2.79-1.9-1.1,0-2.42.36-3.42.99-.69.43-1.2.85-1.96,1.63l-1.04-1.12c1.65-1.28,4.05-3.39,6.21-5.82-1.21.21-2.73.35-3.99.41l-.27-1.44c1.72-.03,3.61-.15,5.77-.56l.85,1.05c-1.44,1.54-2.56,2.61-3.91,3.83.69-.21,1.33-.3,1.93-.3,2.52,0,4.16,1.33,4.16,3.19,0,2.4-2.4,4.05-5.24,4.05-1.54,0-2.85-.82-2.85-2.17ZM136.56,213.36c.39,0,.75-.04,1.11-.13-.46-.81-1.11-1.26-1.8-1.26-.51,0-.81.25-.81.58,0,.53.66.81,1.5.81Z"/>
        <path d="M150.87,213.33c2.75-.69,4.38-2.37,4.38-4.5s-1.47-3.52-3.6-3.66c-.11,1.69-.38,3.16-.84,4.6-.72,2.25-2,3.48-3.36,3.48s-2.52-1.39-2.52-3.31c0-3.48,2.88-6.21,6.42-6.21,3.25,0,5.49,1.98,5.49,5.08,0,2.68-1.65,4.68-4.74,5.75l-1.23-1.23ZM147.5,211.65c.77,0,1.41-.9,1.88-2.38.41-1.32.65-2.49.74-3.96-2.07.52-3.64,2.42-3.64,4.65,0,.92.49,1.7,1.03,1.7Z"/>
        <path d="M164.22,213.23c0-.66.49-1.23,1.21-1.23s1.21.57,1.21,1.23-.5,1.21-1.21,1.21-1.21-.56-1.21-1.21ZM164.55,203.54h1.76l-.09,7.33h-1.56l-.11-7.33Z"/>
        <path d="M178.68,213.23c0-.66.49-1.23,1.21-1.23s1.21.57,1.21,1.23-.5,1.21-1.21,1.21-1.21-.56-1.21-1.21ZM179.01,203.54h1.76l-.09,7.33h-1.56l-.11-7.33Z"/>
      </g>
      <circle class="cls-10" cx="308.3" cy="218.25" r="30"/>
      <path class="cls-9" d="M329.84,1.42H90.46c-4.68,0-8.47,3.79-8.47,8.47v43.9s-9.69,9.69-9.69,9.69h9.69v.5c0,4.68,3.79,8.47,8.47,8.47h239.38c4.68,0,8.47-3.79,8.47-8.47V9.89c0-4.68-3.79-8.47-8.47-8.47Z"/>
      <g>
        <path d="M98.24,26.64c0-.84.03-2.65.06-3.78.03-.97.01-2.97-.01-4.28l1.72.03c-.03,1.29-.08,3.18-.12,4.12-.04,1-.08,2.75-.08,3.67,0,1.79.5,2.66,1.89,2.66,1.72,0,3.57-1.23,4.56-3.04l.83,1.63c-1.16,1.65-3.21,2.92-5.4,2.92-2.62,0-3.45-1.63-3.45-3.95ZM102.77,19.99l.96-.46c.51.79.86,1.54,1.23,2.49l-1,.5c-.35-.96-.75-1.77-1.19-2.52ZM104.46,19.49l.97-.46c.53.75.86,1.47,1.26,2.49l-1.02.46c-.39-1.05-.75-1.82-1.21-2.49Z"/>
        <path d="M113.78,25.99c-.86.34-1.65.66-2.18.88l-.61-1.25,2.31-.85c-.32-.77-.64-1.55-1.06-2.37l1.32-.51c.38.79.69,1.59,1.02,2.43.18-.08.36-.14.52-.2.71-.25,1.58-.54,2.33-.71-.86-.54-1.5-.83-2.33-1.11l.53-1.1c.93.29,1.62.58,2.55,1.11l-.66,1.06c.42-.09.79-.15,1.08-.15,1.37,0,2.58.84,2.58,2.35,0,1.59-1.44,2.36-2.91,2.36-.42,0-.74-.03-.97-.08l-.41-1.3c.31.07.76.13,1.21.13.95,0,1.62-.39,1.62-1.14,0-.71-.48-1.1-1.21-1.1-.65,0-1.58.29-2.97.83-.17.06-.33.13-.5.2.6,1.57,1.32,3.55,1.8,5.26l-1.38.43c-.45-1.8-1.09-3.67-1.68-5.2Z"/>
        <path d="M129.33,29.27c-.79.6-1.61.96-2.42.96-1.32,0-2.1-.96-2.1-2.35,0-1.29.66-2.55,1.74-3.51.53-.48,1.14-.87,1.79-1.14.01-.49.04-1.11.11-1.77-1.14.06-2.18.09-2.92.09l-.08-1.36c.81.03,1.9,0,3.12-.06.06-.69.15-1.38.24-1.98l1.53.21c-.12.52-.23,1.09-.32,1.68,1.4-.12,2.87-.29,4.14-.53l.11,1.38c-1.35.21-2.92.36-4.42.48-.06.53-.11,1.04-.13,1.47.71-.15,1.48-.22,2.31-.21.08-.34.11-.63.15-.97l1.41.21c-.04.31-.1.62-.18.92,1.83.42,3.11,1.72,3.11,3.42,0,1.9-.96,3.67-4.19,4.69l-1.11-1.11c2.85-.84,3.76-2.13,3.76-3.56,0-1.08-.76-1.89-1.92-2.23-.57,1.58-1.53,3.21-2.55,4.32.13.27.27.54.43.79l-1.18,1.02c-.15-.27-.29-.55-.42-.86ZM127.05,28.8c.54,0,1.19-.3,1.82-.87-.27-.9-.47-2.08-.53-3.3-.33.2-.69.48-1.04.83-.54.54-1.04,1.35-1.04,2.24,0,.75.33,1.11.78,1.11ZM130.01,26.85c.66-.82,1.29-1.93,1.7-3.03-.74,0-1.41.08-2.01.25.02.95.09,1.91.32,2.77Z"/>
        <path d="M138.11,28.13l1.3-1.12c.92.78,1.98,2,2.77,3.13l-1.41,1.25c-.69-1.16-1.64-2.29-2.67-3.25Z"/>
        <path d="M153.95,25.68c0-1.33.33-3.96.87-6.81l1.53.27c-.64,2.92-.97,5.56-.97,6.67,0,.46.03.97.09,1.44.25-.75.55-1.47.88-2.19l.88.9c-.45.93-.64,1.47-.79,2.03-.22.84-.3,1.27-.29,1.95l-1.18.5c-.63-1.36-1.02-2.73-1.02-4.75ZM157.61,28.17c0-1.09.84-2.04,2.62-2.04.36,0,.79.04,1.26.15-.01-.41-.04-.78-.06-1.14-.01-.22-.03-.51-.03-.81-1.12.08-2.31.11-3.51.08l-.13-1.47c1.21.06,2.43.06,3.6-.03-.01-.3-.01-.55-.01-.71v-.96c-.98.06-2,.08-3.21.06l-.13-1.44c2.28.08,4.05-.04,5.47-.29l.22,1.41c-.29.04-.57.08-.84.1-.03.5-.03.83-.03,1.31v.36c.77-.12,1.5-.25,2.21-.45l.18,1.44c-.72.18-1.52.32-2.37.43,0,.3.01.62.03.93.02.17.05.87.08,1.54.9.34,1.84.87,2.62,1.46l-.87,1.36c-.5-.46-1.11-.92-1.72-1.26-.15,1.41-1.21,2.15-2.67,2.15-1.67,0-2.7-.87-2.7-2.19ZM160.28,28.92c.74,0,1.28-.38,1.26-1.11v-.13c-.45-.17-.87-.24-1.23-.24-.85,0-1.2.36-1.2.74,0,.46.46.75,1.17.75ZM163.74,19.01l1-.26c.3.77.45,1.37.65,2.36l-1.04.29c-.18-.98-.34-1.62-.62-2.38ZM165.27,18.59l.99-.27c.31.75.48,1.35.69,2.35l-1,.29c-.2-.97-.38-1.62-.67-2.37Z"/>
        <path d="M171.38,26.53c-1.21-.81-1.58-1.22-1.58-1.89,0-.63.53-1.11,1.72-2.07,1.56-1.25,2.9-2.42,4.32-4.12l1.35,1.02c-1.56,1.75-2.61,2.58-4.36,3.93-1,.77-1.29,1.04-1.29,1.26,0,.28.18.43,1.29,1.12,1.81,1.12,3.06,1.9,5.2,3.93l-1.18,1.18c-1.93-1.95-3.25-2.88-5.47-4.36Z"/>
        <path d="M182.69,29.99c1.23-2.76,2.1-5.34,2.71-7.94-1.02.08-1.98.12-2.77.15l-.17-1.51c1.04-.03,2.14-.08,3.29-.15.15-.81.3-1.63.42-2.47l1.54.24c-.14.72-.29,1.42-.44,2.11,1.11-.12,2.21-.25,3.27-.46l.24,1.5c-1.18.2-2.53.36-3.85.48-.69,2.92-1.54,5.7-2.71,8.65l-1.53-.6ZM187.92,28.05c0-.55.21-1.23.67-1.89l1.37.43c-.39.45-.57.9-.57,1.21,0,.58.66.92,2.13.92.96,0,1.98-.1,2.79-.28l.3,1.56c-.93.18-2.13.21-2.85.21-2.75,0-3.84-.9-3.84-2.16ZM188.69,23.25c1.71-.29,3.71-.42,5.4-.34l-.19,1.49c-1.63-.09-3.45.03-4.8.27l-.41-1.41Z"/>
        <path d="M201.05,29.34c3.67.01,5.42-.84,5.42-2.29,0-.87-.81-1.62-2.04-1.62-1.65,0-3.41.86-4.35,2.21l-1.21-.69c.53-1.52.98-3.15,1.32-4.71-.93.04-1.8.06-2.67.06l-.13-1.53c1.06.03,2.07.03,3.12-.03.17-.87.3-1.7.39-2.45l1.58.24c-.09.62-.24,1.33-.41,2.1,1.26-.12,2.62-.31,4.25-.6l.19,1.54c-1.81.27-3.38.45-4.78.55-.27,1.08-.56,2.15-.79,2.99,1.09-.71,2.46-1.08,3.64-1.08,2.04,0,3.46,1.21,3.46,3.03,0,2.28-1.8,3.58-6.17,3.75l-.81-1.47Z"/>
        <path d="M211.38,29.71c1.25-2.34,2.1-4.38,2.71-6.57-.92.14-1.77.25-2.43.36l-.25-1.46c.69-.06,1.96-.2,2.98-.34.24-1.04.45-2.12.65-3.25l1.53.24c-.19.93-.42,1.86-.66,2.82.44-.03.83-.06,1.14-.06,1.44,0,2.4.88,2.4,2.68,0,1.29-.12,2.91-.45,4.27-.37,1.56-1.27,1.97-2.17,1.97-.7,0-1.39-.14-2.01-.36l-.12-1.65c.71.35,1.38.48,1.83.48.58,0,.88-.32,1.11-1.35.19-.89.3-2,.3-3.06s-.43-1.59-1.18-1.59c-.26,0-.62.03-1.14.09-.73,2.59-1.53,4.88-2.82,7.51l-1.41-.73ZM219.38,21.68l1.23-.91c1.17,1.39,1.95,3.06,2.64,5.19l-1.38.9c-.72-2.26-1.35-3.97-2.49-5.17ZM220.55,19.57l.79-.66c.63.6,1.05,1.11,1.56,2.01l-.86.67c-.51-.92-.94-1.48-1.5-2.02ZM222,18.73l.79-.66c.68.58,1.08,1.16,1.56,1.98l-.87.66c-.45-.84-.9-1.46-1.49-1.98Z"/>
        <path d="M227.24,24.72c-.45,1.49-.94,2.62-1.6,3.75l-.69-1.6c.93-1.2,1.67-2.8,2.13-4.63h-1.8v-1.3h1.96v-2.96h1.35v2.96h1.65v1.3h-1.65v1.42c.75.66,1.36,1.3,1.93,2.02l-.78,1.35c-.42-.75-.64-1.12-1.15-1.84v6.01h-1.35v-6.48ZM233.51,26.54c-.68,1.42-1.62,2.7-2.82,3.76l-.96-1.2c1.51-1.05,2.62-2.35,3.51-4.14h-3.12v-1.27h3.39v-1.91h-1.59c-.25.71-.43,1.14-.76,1.72l-1.08-.81c.54-.92.92-2.22,1.16-3.85l1.27.21c-.06.46-.15.96-.27,1.44h1.28v-2.52h1.38v2.52h2.88v1.29h-2.88v1.91h3.54v1.27h-3.27c.86,1.5,2.16,2.79,3.62,3.67l-.87,1.35c-1.25-1.04-2.25-2.19-3.01-3.54v4.75h-1.38v-4.67Z"/>
        <path d="M243.05,28.17c0-1.41,1.5-2.47,3.67-3.51-.2-.55-.63-.79-1.14-.79-.73,0-1.47.38-2.08.9-.55.46-.79.7-1.47,1.59l-1.17-.87c1.12-1.04,2.08-2.28,2.9-3.88-.96.06-1.88.1-2.69.13l-.15-1.46c1.08,0,2.26-.03,3.48-.1.27-.66.51-1.35.75-2.12l1.46.43c-.2.54-.41,1.05-.63,1.54,1.2-.12,2.4-.3,3.58-.55l.19,1.46c-1.35.21-2.94.39-4.5.54-.27.5-.56.97-.86,1.44.45-.22.93-.36,1.39-.36,1.11,0,1.91.55,2.24,1.51,1.02-.43,2.13-.87,3.27-1.33l.57,1.39c-1.42.48-2.64.9-3.63,1.29.03.45.06.86.06,1.29,0,.6,0,.98-.03,1.4h-1.5c.04-.5.09-1.16.09-1.65v-.42c-1.54.74-2.28,1.38-2.28,2.01s.62,1.07,2.22,1.07c1.15,0,2.65-.18,3.9-.44l.27,1.53c-1.12.17-2.4.32-4.2.32-2.34,0-3.72-.74-3.72-2.36Z"/>
        <path d="M254.24,30.12c1.62-.32,3.08-.79,4.26-1.38h-2.49v-6.04h9.51v6.04h-2.57c1.5.38,2.75.75,4.18,1.32l-1.11,1.2c-1.62-.76-2.99-1.29-4.46-1.69l1.07-.83h-3.98l1.07.83c-1.59.84-3.17,1.48-4.53,1.83l-.96-1.27ZM255.06,18.59h11.38v3.42h-11.38v-3.42ZM258.44,21.04v-1.42h-1.98v1.42h1.98ZM264.06,24.41v-.75h-6.62v.75h6.62ZM264.06,26.06v-.75h-6.62v.75h6.62ZM264.06,27.75v-.81h-6.62v.81h6.62ZM261.72,21.04v-1.42h-2v1.42h2ZM265.07,21.04v-1.42h-2.05v1.42h2.05Z"/>
        <path d="M273.14,30.02c1.84-.72,2.59-1.23,3.33-2.01.67-.72,1.26-1.88,1.26-2.96,0-1.47-.98-1.99-1.91-1.99-.5,0-.97.07-2.21.4-1.12.3-1.69.46-2.61.72l-.44-1.47c.92-.22,1.49-.38,2.54-.63,1.39-.34,2.13-.48,2.94-.48,1.77,0,3.36.99,3.36,3.21,0,1.89-.79,3.13-1.56,4.03-.81.95-1.95,1.68-3.45,2.27l-1.26-1.1ZM272.75,19.55l.57-1.33c1.5.27,2.91.57,4.54,1.35l-.63,1.38c-1.46-.72-3-1.09-4.49-1.4Z"/>
        <path d="M288.2,28.92c2.99-.31,4.59-1.38,4.59-2.88,0-.95-.64-1.84-1.92-1.84-.67,0-1.5.18-2.46.38-.95.2-2.23.5-3.21.73l-.4-1.41c.96-.21,2.08-.44,3.28-.68,1.05-.21,2.05-.39,2.85-.39,2.17,0,3.42,1.37,3.42,3.13,0,2.31-1.8,3.76-5.28,4.29l-.87-1.33Z"/>
        <path d="M302.25,26.09c0-1.67,1.05-3.22,3.02-4.56-2.88.27-4.68.42-6.81.58l-.19-1.58c3.12-.12,7.92-.41,11.43-.97l.3,1.53c-2.08.29-2.79.51-4,1.47-1.38,1.08-2.21,2.19-2.21,3.55,0,1.71,1.37,2.59,4.04,2.94l-.67,1.46c-2.99-.42-4.89-1.86-4.89-4.42Z"/>
        <path d="M314.04,27.25c0-.96.5-1.79,1.31-2.58l1.27.74c-.76.58-1.05,1.24-1.05,1.77,0,.97,1.02,1.44,3.39,1.44,1.61,0,3.41-.21,4.75-.56l.38,1.59c-1.65.36-3.12.5-4.9.5-3.39,0-5.15-.97-5.15-2.89ZM317.51,22.61c.53-.44.99-.79,1.54-1.17-1.57.08-3.21.1-4.23.08l-.09-1.52c2.64.09,5.54.03,7.71-.22l.3,1.48c-.6.04-1.04.09-1.53.29-.9.36-1.48.84-2.38,1.65l-1.32-.58Z"/>
        <path d="M97.05,53.66c0-1.32,1-2.5,2.88-3.69-.61-1.41-1.3-3.21-1.71-4.98l1.58-.38c.27,1.41.88,3.25,1.44,4.62,1.14-.6,2.5-1.21,4.02-1.84l.69,1.47c-3.94,1.35-7.35,3.1-7.35,4.63,0,.94.79,1.51,2.99,1.51,1.32,0,2.92-.1,4.67-.43l.27,1.6c-1.79.3-3.62.36-4.79.36-3.46,0-4.68-1.16-4.68-2.88Z"/>
        <path d="M110.91,51.93c0-1.33.3-3.96.84-6.81l1.53.27c-.65,2.92-.95,5.56-.95,6.67,0,.46.03.97.09,1.44.24-.76.54-1.47.87-2.19l.9.9c-.45.93-.65,1.47-.79,2.03-.23.84-.3,1.27-.29,1.95l-1.19.5c-.63-1.36-1.02-2.73-1.02-4.75ZM114.68,54.38c0-1.05.86-2.04,2.55-2.04.42,0,.87.04,1.32.12l-.04-1.17c-.04-.64-.08-1.38-.09-2.07-1.19.08-2.37.11-3.38.11l-.11-1.5c1.07.01,2.26-.01,3.46-.09,0-.84-.01-1.58.03-2.79l1.58.04c-.08,1.02-.11,1.83-.14,2.61.79-.08,1.54-.18,2.24-.32l.15,1.51c-.72.12-1.53.23-2.39.3.02.78.03,1.48.06,2.16.01.6.04,1.14.06,1.59.86.32,1.71.78,2.54,1.4l-.87,1.38c-.55-.53-1.11-.92-1.65-1.2-.12,1.46-1.1,2.19-2.71,2.19-1.5,0-2.61-.86-2.61-2.24ZM117.26,55.26c.81,0,1.35-.39,1.33-1.21v-.2c-.45-.13-.88-.21-1.25-.21-.88,0-1.26.36-1.26.81,0,.5.43.81,1.17.81Z"/>
        <path d="M123.65,54.38l1.3-1.12c.92.78,1.98,2,2.77,3.13l-1.41,1.25c-.69-1.16-1.64-2.29-2.67-3.25Z"/>
        <path d="M138.35,49.46c2.55-1,4.44-2.64,5.75-4.93h1.7c1.38,1.93,3.4,3.46,6.01,4.53l-.92,1.25c-.9-.4-1.77-.88-2.57-1.42v1.05h-6.42v-.84c-.84.6-1.74,1.12-2.67,1.54l-.89-1.17ZM148.71,56.08c-2.82.42-6.09.78-9.03,1l-.45-1.44c.69-.03,1.57-.08,2.07-.12.51-.9.97-1.84,1.38-2.89h-3.55v-1.29h11.91v1.29h-6.69c-.45,1-.93,1.93-1.42,2.8,1.92-.13,3.43-.25,4.88-.42-.38-.42-.83-.9-1.49-1.48l1.25-.69c1.26,1.09,2.47,2.37,3.48,3.66l-1.32.92c-.45-.63-.53-.72-1-1.33ZM148.01,48.66c-1.2-.84-2.28-1.83-3.06-2.87-.69,1.12-1.5,2.04-2.5,2.87h5.57Z"/>
        <path d="M155.27,52.19c-.58.63-1.05,1.09-1.81,1.72l-.71-1.32c1.44-.99,3.13-2.83,3.97-4.36h-3.52v-1.33h2.01v-2.58h1.41v2.58h1.38l.6.61c-.53,1.04-1.12,2.03-1.84,2.94.9.54,1.59,1.02,2.58,1.83l-.92,1.23c-.66-.69-1.11-1.11-1.74-1.62v5.57h-1.41v-5.26ZM157.98,55.55h3.27v-5.83h-2.64v-1.38h2.64v-3.84h1.48v3.84h2.92v1.38h-2.92v5.83h3.44v1.39h-8.19v-1.39Z"/>
        <path d="M168.89,51.91c0-1.42.32-3.93.86-6.79l1.53.24c-.6,2.89-.92,5.41-.92,6.58,0,.47.03,1.01.11,1.46.24-.76.62-1.65.9-2.19l.9.9c-.46.93-.67,1.53-.84,2.1-.2.69-.3,1.36-.24,1.99l-1.18.5c-.62-1.21-1.11-2.82-1.11-4.78ZM173.24,53.54c0-.65.27-1.37.99-2.17l1.42.48c-.69.6-.92,1.08-.92,1.46,0,.75.63,1.19,2.29,1.19.66,0,1.63-.09,2.59-.32l.3,1.56c-1.04.17-2.07.21-2.7.21-2.71,0-3.99-.72-3.99-2.4ZM173.4,46.64c1.68.03,4.29-.12,6-.39l.18,1.5c-1.72.27-4.32.44-6.04.39l-.14-1.5Z"/>
        <path d="M182.76,54c0-1.04,1.07-2.5,2.8-3.29-.01-.78-.04-1.59-.04-2.28-.97.09-1.9.13-2.68.17l-.15-1.38c.83-.02,1.8-.08,2.81-.15,0-.69-.02-1.51,0-2.38l1.69.08c-.04.67-.06,1.42-.08,2.14.87-.1,1.7-.24,2.4-.39l.17,1.38c-.77.15-1.67.27-2.58.38v.36c0,.41.01.98.03,1.64,1-.3,2.11-.48,3.1-.48,2.4,0,3.69,1.3,3.69,3.08,0,2.17-1.45,3.38-3.52,3.38-.58,0-1.29-.11-1.72-.3l-.24-1.51c.6.24,1.2.38,1.8.38,1.33,0,2.13-.85,2.13-1.92,0-.95-.73-1.74-2.4-1.74-.86,0-1.88.18-2.81.53.03.97.06,1.93.09,2.62.01.42.01.66.01.99,0,.99-.78,1.33-1.67,1.33-1.51,0-2.83-1.19-2.83-2.61ZM185.27,55.12c.38,0,.51-.25.51-.78,0-.38,0-.67-.01-1.17-.01-.32-.01-.65-.03-.95-.88.46-1.47,1.25-1.47,1.79,0,.67.57,1.11,1,1.11ZM190.43,46.73l.75-1.21c1.27.57,2.08,1.09,3.27,2.17l-.9,1.26c-1.14-1.08-1.94-1.63-3.12-2.22Z"/>
        <path d="M196.67,55.68h5.46v-3.31h-4.73v-1.25h4.73v-1.5h-2.28v-.81c-.78.63-1.72,1.21-2.7,1.69l-.87-1.27c2.49-1.05,4.35-2.7,5.66-4.98h1.75c1.39,1.95,3.43,3.53,5.92,4.58l-.96,1.37c-1.09-.6-1.93-1.11-2.56-1.59v1.02h-2.46v1.5h4.81v1.25h-4.81v3.31h5.55v1.31h-12.51v-1.31ZM198.41,53.12l1.35-.51c.39.58.78,1.41,1.2,2.49l-1.47.51c-.28-.9-.66-1.8-1.08-2.49ZM205.8,48.41c-1.12-.84-2.15-1.84-2.96-2.91-.57,1.02-1.4,2-2.47,2.91h5.43ZM204.8,55.14c.48-.78.93-1.74,1.24-2.64l1.52.54c-.36.81-.86,1.75-1.38,2.58l-1.38-.48Z"/>
        <path d="M214.13,54.42c0-1.41,1.5-2.47,3.67-3.51-.2-.55-.63-.79-1.14-.79-.73,0-1.47.38-2.08.9-.55.46-.79.7-1.47,1.59l-1.17-.87c1.12-1.04,2.08-2.28,2.9-3.88-.96.06-1.88.1-2.69.13l-.15-1.46c1.08,0,2.26-.03,3.48-.1.27-.66.51-1.35.75-2.12l1.46.43c-.2.54-.41,1.05-.63,1.54,1.2-.12,2.4-.3,3.58-.55l.19,1.46c-1.35.21-2.94.39-4.5.54-.27.5-.56.97-.86,1.44.45-.22.93-.36,1.39-.36,1.11,0,1.91.55,2.24,1.51,1.02-.43,2.13-.87,3.27-1.33l.57,1.39c-1.42.48-2.64.9-3.63,1.29.03.45.06.86.06,1.29,0,.6,0,.98-.03,1.4h-1.5c.04-.5.09-1.16.09-1.65v-.42c-1.54.74-2.28,1.38-2.28,2.01s.62,1.07,2.22,1.07c1.15,0,2.65-.18,3.9-.44l.27,1.53c-1.12.17-2.4.32-4.2.32-2.34,0-3.72-.74-3.72-2.36Z"/>
        <path d="M225.33,56.41c1.54-.32,3.07-.8,4.27-1.38h-2.52v-5.88h.38v-1.58c-.44.36-.93.73-1.52,1.14l-.88-1.02c1.52-.87,2.92-2.16,3.86-3.54l1.26.54c-.39.55-.86,1.09-1.32,1.58v2.88h5.89c-.87-.47-1.5-1.04-2.02-1.83l-3.34.15-.06-1.17,2.81-.1c-.21-.56-.41-1.25-.56-1.96h1.41c.15.73.36,1.39.6,1.9l2.08-.09c-.58-.57-1.03-.93-1.51-1.26l1.12-.63c.54.34,1.14.79,1.54,1.18l-1.08.71,2.31-.08.06,1.12-3.83.17c.69.74,1.83,1.38,2.45,1.38.25,0,.29-.04.5-.99l.03-.12,1.11.67c-.3,1.35-.57,1.74-1.14,1.74-.17,0-.3-.02-.63-.09v5.17h-2.57c1.51.38,2.8.77,4.18,1.31l-1.14,1.18c-1.38-.64-2.82-1.18-4.42-1.68l1.05-.81h-3.99l1.08.81c-1.35.75-2.97,1.42-4.5,1.83l-.96-1.26ZM235.14,50.79v-.72h-6.62v.72h6.62ZM235.14,52.4v-.72h-6.62v.72h6.62ZM235.14,54.06v-.78h-6.62v.78h6.62Z"/>
        <path d="M244.13,56.34c1.35-.5,2.59-1.42,3.06-2.49-.32.26-.72.41-1.16.41-1.53,0-2.5-1.14-2.5-2.68,0-1.38,1.11-2.36,2.42-2.36.43,0,.87.15,1.16.35l-.04-1.32c-2.28.09-4.63.2-6.66.29l-.1-1.5c1.99-.04,4.39-.11,6.7-.21l-.08-2.43,1.58.04c-.01.73-.01,1.53-.01,2.32,1.41-.07,2.76-.15,3.92-.24l.09,1.48c-1.19.06-2.57.12-4,.18l.04,2.4c.17.53.22,1.18.22,1.83,0,2.08-.78,3.72-3.39,5.02l-1.23-1.09ZM247.08,51.61c0-.66-.43-1.07-.99-1.07-.68,0-1.1.53-1.1,1.16s.41,1.21,1.07,1.21,1.02-.51,1.02-1.3Z"/>
        <path d="M259.28,55.17c2.99-.31,4.59-1.38,4.59-2.88,0-.95-.64-1.84-1.92-1.84-.67,0-1.5.18-2.46.38-.94.2-2.23.5-3.21.73l-.4-1.41c.96-.21,2.08-.44,3.28-.68,1.05-.21,2.05-.39,2.85-.39,2.17,0,3.42,1.37,3.42,3.13,0,2.31-1.8,3.76-5.28,4.29l-.87-1.33Z"/>
        <path d="M273.33,52.34c0-1.67,1.05-3.22,3.02-4.56-2.88.27-4.68.42-6.81.58l-.19-1.58c3.12-.12,7.92-.41,11.43-.97l.3,1.53c-2.08.29-2.79.51-4,1.47-1.38,1.08-2.21,2.19-2.21,3.55,0,1.71,1.37,2.59,4.04,2.94l-.67,1.46c-2.99-.42-4.89-1.86-4.89-4.42Z"/>
        <path d="M285.12,53.5c0-.96.5-1.79,1.31-2.58l1.27.74c-.76.58-1.05,1.24-1.05,1.77,0,.97,1.02,1.44,3.39,1.44,1.61,0,3.41-.21,4.75-.56l.38,1.59c-1.65.36-3.12.5-4.9.5-3.39,0-5.15-.97-5.15-2.89ZM288.59,48.86c.53-.44.99-.79,1.54-1.17-1.57.08-3.21.1-4.23.08l-.09-1.52c2.64.09,5.54.03,7.71-.22l.3,1.48c-.6.04-1.04.09-1.53.29-.9.36-1.48.84-2.38,1.65l-1.32-.58Z"/>
        <path d="M299.49,53.66c0-1.32,1-2.5,2.88-3.69-.61-1.41-1.3-3.21-1.71-4.98l1.58-.38c.27,1.41.88,3.25,1.44,4.62,1.14-.6,2.5-1.21,4.02-1.84l.69,1.47c-3.94,1.35-7.35,3.1-7.35,4.63,0,.94.79,1.51,2.99,1.51,1.32,0,2.92-.1,4.67-.43l.27,1.6c-1.79.3-3.62.36-4.79.36-3.46,0-4.68-1.16-4.68-2.88Z"/>
        <path d="M317.18,52.37c-.02-2.21,2.85-2.31,2.85-4.04,0-.84-.78-1.27-1.86-1.27-.79,0-1.77.25-2.71.75l-.09-1.59c1.14-.44,2.24-.68,3.21-.68,1.95,0,3.34.9,3.34,2.48,0,2.74-3.01,2.68-3.1,4.56l-.02.42h-1.6v-.63ZM316.85,55.38c0-.66.5-1.23,1.21-1.23s1.21.57,1.21,1.23-.5,1.21-1.21,1.21-1.21-.55-1.21-1.21Z"/>
      </g>
      <g>
        <path class="cls-1" d="M325.87,211.27c1.8.14,1.23,2.13.34,3.28-.19.24-.54.27-.77.08-1.56-1.33-1.02-3.47.43-3.36Z"/>
        <path class="cls-1" d="M325.78,212.12c-.34,0-.62-.28-.62-.62v-3.55l-.89-1.24c-.2-.28-.14-.67.14-.87.28-.2.67-.14.87.14l1,1.4c.08.11.12.23.12.36v3.75c0,.34-.28.62-.62.62Z"/>
        <polygon class="cls-6" points="322.94 202.12 316.82 201.55 319.54 207.05 325.78 207.72 322.94 202.12"/>
        <rect class="cls-6" x="316.24" y="205.22" width="6.66" height="2.89" transform="translate(197.84 -153.91) rotate(38.45)"/>
        <path class="cls-1" d="M321.3,210.95c-.14,0-.27-.04-.39-.13-.27-.21-.32-.61-.1-.88l2.25-2.85c.13-.17.34-.26.56-.23l1.09.12-2.16-4.26-4.66-.43.65,1.31c.1.21.08.46-.06.65l-1.8,2.4c-.21.28-.6.33-.87.12-.28-.21-.33-.6-.12-.87l1.57-2.09-.98-1.97c-.1-.2-.08-.44.05-.63.13-.19.35-.29.57-.27l6.11.57c.21.02.4.15.5.34l2.84,5.59c.1.2.09.45-.04.64-.13.19-.35.29-.58.27l-1.89-.2-2.03,2.58c-.12.16-.31.24-.49.24Z"/>
        <path class="cls-7" d="M317.27,233.82l4.18-1.61,2.02-5.47-.29-8.13-2.24-7.53-3.73-4.66-5.58-1.9-5.51-.3-7.13,3.83-3.23,5.73-3.97,4.71-1.8,4.97,1.35,4.51,9.8,4.91c2.83,1.15,12.95,1.45,16.14.93Z"/>
        <path class="cls-13" d="M290.4,220.18c4.88.32,7.69,5.48,5.89,11-4.76-2.59-7.42-5.22-5.89-11Z"/>
        <path class="cls-13" d="M323.53,223.93c-5.63-.78-9.94,4.07-9.06,10.36,5.98-1.67,9.57-3.86,9.06-10.36Z"/>
        <path class="cls-1" d="M301.87,213.09c1.6-.65,3.04-.03,3.71,1.21.16.29-.14.54-.45.39-1-.51-1.99-.75-3.07-.96-.36-.07-.49-.51-.19-.64Z"/>
        <path class="cls-1" d="M314.56,215.52c-1.18-1.26-2.75-1.29-3.88-.44-.26.2-.1.55.25.54,1.12-.04,2.12.14,3.19.4.36.09.66-.26.44-.5Z"/>
        <path class="cls-1" d="M310.56,224.55c-.14,0-.27-.05-.39-.14-.25-.21-.28-.59-.07-.84.68-.81,1.5-1.23,2.33-1.19.74.04,1.43.46,1.93,1.18.19.27.12.65-.15.83-.27.19-.65.12-.83-.15-.2-.29-.53-.64-1-.66-.44-.02-.92.25-1.36.77-.12.14-.29.21-.46.21Z"/>
        <path class="cls-1" d="M303.12,223.29c-.19,0-.37-.09-.49-.25-.37-.52-.71-.8-1-.8,0,0,0,0-.02,0-.33,0-.68.34-.92.64-.21.26-.59.29-.84.08-.26-.21-.29-.59-.08-.84.6-.73,1.23-1.1,1.9-1.07.7.02,1.33.45,1.94,1.31.19.27.13.64-.14.84-.11.08-.23.11-.35.11Z"/>
        <path class="cls-1" d="M313.33,234.92c-.34,0-.62-.27-.62-.61,0-.34.27-.63.61-.64,3.7-.08,6.35-.94,7.88-2.56,1.96-2.07,1.86-5.03,1.77-7.4l-.02-.46c-.13-4.25-1.4-18.18-12.14-18.91-9.11-.62-12.52,5.19-14.77,9.03-.46.78-.86,1.46-1.25,1.98-.11.15-.23.31-.37.48-1.57,2.04-4.49,5.85-3.39,9.49.79,2.62,3.58,4.76,8.3,6.36,1.42.48,2.86.87,4.28,1.13.34.06.56.39.5.73-.06.34-.39.56-.73.5-1.48-.28-2.98-.67-4.45-1.18-5.11-1.74-8.17-4.16-9.09-7.18-1.29-4.25,2.01-8.54,3.59-10.61.13-.17.25-.33.36-.47.35-.46.73-1.11,1.17-1.86,2.26-3.86,6.05-10.3,15.94-9.64,5.12.35,8.86,3.36,11.13,8.95,1.72,4.24,2.1,8.82,2.17,11.16l.02.46c.09,2.47.21,5.84-2.11,8.3-1.79,1.9-4.66,2.86-8.76,2.95,0,0,0,0-.01,0Z"/>
        <path class="cls-1" d="M301.46,222.02c-.07,0-.14-.02-.19-.07-.76-.6-1.15-1.22-1.44-2.28-.05-.17.05-.34.22-.38.17-.05.34.05.38.22.29,1.06.65,1.5,1.22,1.95.14.11.16.3.05.44-.06.08-.15.12-.24.12Z"/>
        <path class="cls-1" d="M313.44,223.54c-.15,0-.29-.11-.31-.27-.02-.17.1-.33.27-.35.66-.09,1.41-.66,1.84-1.38.09-.15.28-.2.43-.11.15.09.2.28.11.43-.53.89-1.45,1.56-2.29,1.68-.01,0-.03,0-.04,0Z"/>
        <path class="cls-1" d="M314.78,224.08c-.37,0-.76-.07-1.13-.24-.16-.07-.23-.26-.15-.41.07-.16.26-.23.41-.15.85.39,1.81.08,2.46-.24.15-.08.34-.01.42.14.08.15.01.34-.14.42-.51.25-1.17.49-1.87.49Z"/>
        <path class="cls-1" d="M300.6,222.02c-.8,0-1.67-.46-2.36-1.27-.11-.13-.1-.33.04-.44.13-.11.33-.1.44.04.61.71,1.39,1.11,2.04,1.04.17-.02.33.1.34.28.02.17-.1.33-.28.34-.07,0-.15.01-.23.01Z"/>
        <g>
          <path class="cls-4" d="M310.75,227.71c-.67-1.83-3.64-3.8-5.15-3.58s-4.7,2.05-5.69,1.99-1.68-.73-1.8,1.59,1.69,3.5,4.12,2.65c3.36,1.92,9.67.49,8.52-2.65Z"/>
          <path class="cls-4" d="M310.75,230.08c-.75,3.68-4.92,5.83-6.19,5.29s-2.85-1.41-1.46-4.62c2.5.53,6.9-.12,7.02-1.63s.63.96.63.96Z"/>
          <path class="cls-11" d="M304.34,231.08c-.73,1.34-.38,3.06,1.83,1.99,2.2-1.07,2.2-2.28,2.2-2.28,0,0,1.45-.73-.48,0-1.93.73-3.55.3-3.55.3Z"/>
          <path class="cls-1" d="M305.84,231.84c-1.06,0-2.2-.33-3.37-.98-2.3.65-3.58.03-4.26-.61-.86-.82-1.18-2.12-.84-3.41.34-1.31.95-1.42,1.84-1.44.64-.01,1.61-.04,3.2-.87,3.54-1.86,5.62-.79,7.64,1.39.21.22.19.57-.03.77-.22.21-.57.19-.77-.03-1.82-1.96-3.36-2.72-6.33-1.16-1.81.95-2.98.98-3.68.99q-.65.02-.81.63c-.23.89-.02,1.81.54,2.34.7.67,1.88.77,3.41.29.15-.05.31-.03.44.05,1.91,1.12,4.63,1.79,6.8-1.36.15-.21.42-.29.66-.2,0,0,.71.29,1.35.43.29.07.48.36.41.65-.07.29-.36.48-.65.41-.4-.09-.82-.23-1.12-.33-1.23,1.62-2.74,2.44-4.42,2.44Z"/>
          <path class="cls-1" d="M305.14,235.97c-.61,0-1.19-.14-1.72-.43-.86-.46-1.41-1.12-1.63-1.95-.43-1.63.61-3.33.65-3.4.16-.26.5-.33.75-.17.26.16.33.5.17.75,0,.01-.83,1.37-.52,2.54.14.53.5.95,1.09,1.27.84.45,1.89.38,2.95-.19,1.5-.81,3.11-2.77,3.32-5.31.02-.3.29-.52.59-.5.3.02.52.29.5.59-.21,2.59-1.74,5.02-3.88,6.18-.77.41-1.54.62-2.27.62Z"/>
        </g>
      </g>
      <g>
        <path class="cls-8" d="M39.91,49.82c5.99-4.81,10.66-4.4,11.63-2.77.89,1.5-.2,9.39-9.11,4.98"/>
        <path class="cls-5" d="M44.15,52.4c2.15-3.69,6.52-2.97,7.64-2.44-1.95,3.62-3.96,4.96-7.64,2.44Z"/>
        <path class="cls-1" d="M47.14,53.97c-1.31,0-2.94-.38-4.99-1.39-.3-.15-.42-.51-.28-.82.15-.3.52-.42.82-.28,3.32,1.64,5.84,1.68,7.29.12,1.3-1.4,1.35-3.69,1.02-4.24-.21-.35-.72-.62-1.4-.75-.91-.16-4.27-.39-9.33,3.68-.26.21-.65.17-.86-.09-.21-.26-.17-.65.09-.86,3.68-2.96,7.53-4.43,10.31-3.92,1.04.19,1.83.66,2.23,1.32.64,1.09.43,3.95-1.18,5.69-.75.81-1.93,1.54-3.74,1.54Z"/>
        <path class="cls-8" d="M45.39,64.05c1.64-16.82-17.11-22.8-25.64-13.47-2.97,3.25-5.19,9.02-4.06,15.77-3.29,3.25-2.73,7.92,2.42,10.46,3.1,1.53,6.19,2.19,13.34,2.19,6.63,0,14.3-2.8,16.45-6.93,1.2-2.31.78-5.72-2.5-8.03Z"/>
        <path class="cls-2" d="M35.17,46.42c-.6-4.19-4.15-6.52-4.34-.47"/>
        <path class="cls-2" d="M23.49,47.49c-.51-4.2,2.31-7.38,4.07-1.58"/>
        <path class="cls-8" d="M19.03,50.54c-6.66-3.82-11.21-2.69-11.91-.92-.65,1.62,2.36,9.82,10.47,4.08"/>
        <ellipse class="cls-1" cx="34.66" cy="65.99" rx="1.44" ry="1.56" transform="translate(-9.84 6.19) rotate(-8.95)"/>
        <path class="cls-5" d="M15.76,54.36c-2.15-3.69-7.03-2.78-8.16-2.25,1.95,3.62,4.47,4.77,8.16,2.25Z"/>
        <path class="cls-5" d="M28.59,45.94c1.23,7.46-2.33,14.45-12.53,14.45,0-11.42,12.53-14.45,12.53-14.45Z"/>
        <path class="cls-5" d="M30.83,45.95c0,8.41,6.81,12.72,13.84,13.25,0-11.42-13.84-13.25-13.84-13.25Z"/>
        <path class="cls-5" d="M14.61,72.81c13.81-6.39,25.45-3.61,33.28-.74-3.13,7.57-29.25,10.15-33.28.74Z"/>
        <path class="cls-1" d="M31.45,79.62c-7.59,0-10.64-.79-13.61-2.26-2.68-1.33-4.37-3.31-4.74-5.59-.32-1.98.37-3.96,1.94-5.63-1.1-7.13,1.47-12.92,4.26-15.97,4.25-4.65,11.25-5.93,17.42-3.18,3.01,1.34,5.47,3.51,7.11,6.28,1.79,3.02,2.53,6.54,2.2,10.49,3.38,2.56,3.63,6.22,2.4,8.6-2.36,4.54-10.49,7.26-16.99,7.26ZM30.07,46.77c-3.76,0-7.35,1.46-9.87,4.22-2.64,2.89-5.06,8.42-3.91,15.26.03.2-.03.39-.17.53-1.44,1.42-2.08,3.13-1.81,4.79.3,1.88,1.75,3.54,4.07,4.69,2.8,1.38,5.71,2.13,13.07,2.13,6.88,0,14.01-2.96,15.91-6.6,1.03-1.98.75-5.1-2.31-7.25-.18-.13-.28-.34-.26-.56.71-7.25-2.49-13.19-8.56-15.89-2.01-.89-4.11-1.33-6.15-1.33Z"/>
        <ellipse cx="34.66" cy="65.99" rx="1.44" ry="1.56" transform="translate(-9.84 6.19) rotate(-8.95)"/>
        <ellipse class="cls-1" cx="26.99" cy="66.35" rx="1.56" ry="1.44" transform="translate(-40.64 89.95) rotate(-87.1)"/>
        <path class="cls-1" d="M12.38,56.33c-1.46,0-2.58-.54-3.4-1.18-2.09-1.64-2.9-4.58-2.43-5.75.29-.72.99-1.3,1.99-1.65,2.66-.93,6.69-.08,10.79,2.27.29.17.39.54.22.83-.17.29-.54.39-.83.22-5.62-3.23-8.91-2.48-9.78-2.18-.65.23-1.11.57-1.26.95-.21.53.31,2.97,2.06,4.35,1.89,1.49,4.48,1.14,7.49-.99.27-.19.65-.13.85.15.19.27.13.65-.15.85-2.23,1.58-4.07,2.14-5.55,2.14Z"/>
        <path class="cls-1" d="M35.17,47.03c-.3,0-.56-.22-.6-.52-.32-2.23-1.48-3.66-2.12-3.62-.31.02-.93.69-1,3.09-.01.34-.3.59-.63.59-.34-.01-.6-.29-.59-.63.11-3.61,1.4-4.22,2.15-4.27.03,0,.06,0,.09,0,1.46,0,2.94,2.06,3.31,4.67.05.33-.18.64-.52.69-.03,0-.06,0-.09,0Z"/>
        <path class="cls-1" d="M23.49,48.09c-.3,0-.57-.23-.6-.54-.32-2.66.61-5.08,2.07-5.39.74-.15,2.14.1,3.19,3.56.1.32-.08.66-.41.76-.32.1-.66-.08-.76-.41-.7-2.3-1.46-2.78-1.77-2.72-.62.13-1.38,1.81-1.11,4.05.04.33-.2.64-.53.68-.02,0-.05,0-.07,0Z"/>
        <path class="cls-1" d="M35.92,57.53c-.65-1.09-1.64-1.26-2.41-.7-.18.13-.11.42.12.44.71.07,1.33.3,1.98.61.22.1.44-.14.31-.35Z"/>
        <path class="cls-1" d="M25.02,57.93c.65-1.09,1.64-1.26,2.41-.7.18.13.11.42-.12.44-.71.07-1.33.3-1.98.61-.22.1-.44-.14-.31-.35Z"/>
        <circle class="cls-1" cx="32.3" cy="71.93" r=".57"/>
        <circle class="cls-1" cx="30.52" cy="71.93" r=".57"/>
        <g>
          <path class="cls-3" d="M27.07,75.01c.26-1.62,1.74-1.61,4.44-1.25,2.71.36,2.2,2.71.36,2.65-1.84-.05-5.11.51-4.8-1.4Z"/>
          <path class="cls-1" d="M29.61,76.9c-1.12,0-2.14-.12-2.67-.72-.29-.32-.39-.74-.31-1.24h0c.36-2.23,2.69-1.92,4.94-1.62,1.77.23,2.33,1.23,2.27,2.01-.06.77-.78,1.57-1.98,1.53-.34,0-.74,0-1.17.02-.36.01-.72.02-1.08.02ZM27.51,75.08c-.05.3.03.44.1.51.42.48,1.94.43,3.05.39.44-.01.85-.03,1.22-.02.66.02,1.04-.34,1.07-.71.03-.42-.42-.91-1.49-1.05-2.96-.39-3.77-.21-3.94.88h0Z"/>
        </g>
      </g>
    </g>
  </g>
</svg>