<?xml version="1.0" encoding="UTF-8"?>
<svg id="_レイヤー_2" data-name="レイヤー 2" xmlns="http://www.w3.org/2000/svg" width="339.66" height="203.19" viewBox="0 0 339.66 203.19">
  <defs>
    <style>
      .cls-1 {
        fill: #211815;
      }

      .cls-2 {
        fill: #f5f19b;
      }

      .cls-3 {
        fill: #ecbb6e;
      }

      .cls-4 {
        fill: #93c9ce;
      }

      .cls-5 {
        fill: #5c948d;
      }

      .cls-6 {
        fill: #fffba1;
      }

      .cls-7, .cls-8 {
        fill: #fff;
      }

      .cls-9 {
        fill: #d3f2c9;
      }

      .cls-10 {
        fill: #de8a4c;
      }

      .cls-11 {
        fill: #ceeaeb;
      }

      .cls-12 {
        fill: #f2d496;
      }

      .cls-8 {
        stroke: #ceeaeb;
        stroke-miterlimit: 10;
        stroke-width: 2.83px;
      }
    </style>
  </defs>
  <g id="_レイヤー_1-2" data-name="レイヤー 1">
    <g>
      <path class="cls-8" d="M9.89,107.66h239.38c4.68,0,8.47,3.79,8.47,8.47v66.99s9.69,9.69,9.69,9.69h-9.69s0,.5,0,.5c0,4.68-3.79,8.47-8.47,8.47H9.89c-4.68,0-8.47-3.79-8.47-8.47v-77.18c0-4.68,3.79-8.47,8.47-8.47Z"/>
      <g>
        <path d="M19.06,132.84c0-.97.54-1.95,1.74-2.78-1.96.29-3.99.54-5.83.78l-.2-1.47c.55-.01,1.27-.08,2.07-.13,1.69-.99,3.57-2.4,4.87-3.51-1.63.25-2.92.36-4.06.4l-.25-1.44c1.74-.03,3.4-.11,5.86-.46l1.14.9c-.96,1.08-3.06,2.59-5.03,3.86,2.67-.29,5.59-.68,7.26-.99l.27,1.51c-1.23-.01-2.42.11-3.39.44-1.65.55-2.95,1.72-2.95,2.89,0,1.25,1.5,1.93,3.99,2.05l-.5,1.49c-2.91-.2-4.99-1.44-4.99-3.54Z"/>
        <path d="M33.15,135.36c1.84-.72,2.59-1.23,3.33-2.01.67-.72,1.26-1.88,1.26-2.96,0-1.47-.98-1.99-1.91-1.99-.5,0-.97.07-2.21.4-1.12.3-1.69.46-2.61.72l-.44-1.47c.92-.22,1.49-.38,2.54-.63,1.39-.34,2.13-.48,2.94-.48,1.77,0,3.36.99,3.36,3.21,0,1.89-.79,3.13-1.56,4.03-.81.95-1.95,1.68-3.45,2.27l-1.26-1.1ZM32.76,124.89l.57-1.33c1.5.27,2.91.57,4.54,1.35l-.63,1.38c-1.46-.72-3-1.09-4.49-1.4Z"/>
        <path d="M48.48,134.48c0-.66.49-1.23,1.21-1.23s1.21.57,1.21,1.23-.5,1.21-1.21,1.21-1.21-.55-1.21-1.21ZM48.81,124.79h1.76l-.09,7.33h-1.56l-.11-7.33Z"/>
        <path d="M58.15,135.33c1.23-2.76,2.1-5.34,2.71-7.94-1.02.08-1.98.12-2.77.15l-.17-1.51c1.03-.03,2.14-.08,3.28-.15.15-.81.3-1.63.42-2.47l1.54.24c-.13.72-.29,1.42-.43,2.11,1.11-.12,2.21-.25,3.27-.46l.24,1.5c-1.18.2-2.54.36-3.85.48-.69,2.92-1.54,5.7-2.71,8.65l-1.53-.6ZM63.39,133.4c0-.55.21-1.23.68-1.89l1.36.43c-.39.45-.57.9-.57,1.21,0,.58.66.92,2.13.92.96,0,1.98-.1,2.79-.28l.3,1.56c-.93.18-2.13.21-2.85.21-2.74,0-3.84-.9-3.84-2.16ZM64.15,128.6c1.71-.29,3.7-.42,5.4-.34l-.2,1.49c-1.63-.09-3.45.03-4.8.27l-.4-1.41ZM66.67,124.61l.9-.54c.55.71.85,1.25,1.24,2.11l-.94.57c-.39-.87-.71-1.46-1.2-2.14ZM68.38,124.1l.88-.55c.54.67.88,1.25,1.26,2.08l-.93.57c-.39-.87-.71-1.42-1.21-2.1Z"/>
        <path d="M72.91,134.9c1.28-2.38,2.07-4.33,2.71-6.57-.92.13-1.77.25-2.43.36l-.25-1.45c.69-.06,1.96-.2,2.98-.35.24-1.04.45-2.11.65-3.25l1.53.24c-.19.93-.4,1.86-.64,2.82.42-.03.81-.06,1.12-.06,1.44,0,2.4.88,2.4,2.68,0,1.29-.12,2.91-.45,4.28-.38,1.56-1.28,1.96-2.17,1.96-.71,0-1.4-.13-2.01-.36l-.12-1.65c.7.34,1.38.48,1.83.48.58,0,.89-.31,1.11-1.35.2-.88.3-2,.3-3.06s-.43-1.59-1.18-1.59c-.27,0-.62.03-1.16.09-.71,2.62-1.48,4.83-2.8,7.51l-1.41-.74ZM81.52,126.48l1.28-.84c1.04,1.47,1.75,3.2,2.34,5.46l-1.44.81c-.56-2.29-1.1-3.92-2.18-5.43Z"/>
        <path d="M91.2,134.82c3.18-.27,5.28-1.23,5.25-2.83-.02-.97-.84-1.6-2.13-1.57-1.58.03-3.15.96-4.4,2.34l-1.18-.57c.34-1.81.52-4.08.54-6.07l1.59.15c-.04,1.26-.2,2.85-.42,4.32,1.15-.99,2.73-1.49,3.9-1.52,2.05-.04,3.63.99,3.66,2.82v.08c0,2.38-2.04,3.72-5.87,4.2l-.94-1.33ZM90.6,124.94l.56-1.26c1.46.24,2.95.75,4.36,1.5l-.61,1.35c-1.44-.77-2.85-1.26-4.31-1.59Z"/>
        <path d="M100.56,133.47l1.3-1.12c.92.78,1.98,2,2.77,3.13l-1.41,1.25c-.69-1.16-1.64-2.29-2.67-3.25Z"/>
        <path d="M116.04,136.41l-.29-1.44c.55.09.9.12,1.23.12s.4-.09.4-.42v-3.09c-.51.18-1.09.34-1.68.5l-.39-1.43c.73-.15,1.42-.31,2.07-.52v-2.71h-1.86v-1.32h1.86v-2.77h1.4v2.77h1.48v1.32h-1.48v2.26c.36-.09.85-.27,1.38-.48l.12,1.26c-.46.22-.95.43-1.5.63v4.29c0,.87-.32,1.14-1.29,1.14-.38,0-1.02-.04-1.46-.11ZM119.89,135.41c1.21-.27,2.37-.78,3.41-1.5-.87-.79-1.53-1.74-1.93-2.77h-.68v-1.28h6.17l.71.62c-.51,1.28-1.28,2.43-2.19,3.38.87.5,2.04.97,3.28,1.3l-.83,1.32c-1.14-.34-2.4-.96-3.45-1.72-1.05.87-2.17,1.47-3.63,1.92l-.86-1.26ZM120.04,128.49c1.14-.51,1.51-1.25,1.51-2.94v-1.62h4.44v3.53c0,.31.09.39.46.39.63,0,.64-.04.71-1.56l1.26.41c-.04,1.29-.13,1.81-.36,2.07-.24.25-.78.39-1.72.39-1.35,0-1.75-.26-1.75-1.07v-2.88h-1.62c0,2.46-.46,3.48-1.93,4.32l-.99-1.03ZM125.73,131.13h-2.98c.33.69.92,1.42,1.56,1.95.66-.6,1.16-1.29,1.42-1.95Z"/>
        <path d="M129.87,128.03c1.29-.53,2.55-1.23,3.75-2.08l.48,1.08c-.97.74-2.37,1.59-3.55,2.18l-.67-1.17ZM130.05,135.54c1.68-.36,3.11-.81,4.26-1.37h-2.44v-5.45h2.42l-.54-.76c2.35-.42,3.39-1.23,3.48-2.73h-1c-.39.6-.79,1.08-1.23,1.46l-.99-.83c.83-.72,1.47-1.7,1.77-2.71l1.38.24c-.13.33-.24.57-.34.79h5.04l.71.55c-.42.72-.96,1.47-1.53,2.07l-1.23-.49c.39-.35.77-.77.96-1.08h-2.16c.33,1.35,1.74,2.28,4.27,2.79l-.75,1.14c-.22-.08-.72-.23-.97-.32v5.33h-2.66c1.3.3,2.55.67,4.23,1.29l-1.16,1.17c-1.41-.67-2.89-1.25-4.38-1.68l.93-.78h-3.63l1.04.79c-1.14.64-2.88,1.35-4.5,1.8l-.96-1.23ZM130.57,124.47l.87-.93c.73.32,1.56.79,2.31,1.38l-.92,1.05c-.64-.54-1.38-1.03-2.26-1.5ZM139.71,130.26v-.66h-6.42v.66h6.42ZM139.71,131.75v-.66h-6.42v.66h6.42ZM139.71,133.26v-.67h-6.42v.67h6.42ZM140.79,128.73c-1.25-.45-2.24-1.15-2.75-1.96-.46.92-1.21,1.49-2.57,1.96h5.31Z"/>
        <path d="M149.43,134.27c2.99-.31,4.59-1.38,4.59-2.88,0-.95-.64-1.84-1.92-1.84-.67,0-1.5.18-2.46.38-.94.2-2.23.5-3.21.73l-.4-1.41c.96-.21,2.08-.44,3.28-.68,1.05-.21,2.05-.39,2.85-.39,2.17,0,3.42,1.37,3.42,3.13,0,2.31-1.8,3.76-5.28,4.29l-.87-1.33Z"/>
        <path d="M163.48,131.43c0-1.67,1.05-3.22,3.02-4.56-2.88.27-4.68.42-6.81.58l-.19-1.58c3.12-.12,7.92-.41,11.43-.97l.3,1.53c-2.08.29-2.79.51-4,1.47-1.38,1.08-2.21,2.19-2.21,3.55,0,1.71,1.37,2.59,4.04,2.94l-.67,1.46c-2.99-.42-4.89-1.86-4.89-4.42Z"/>
        <path d="M172.86,133.47l1.3-1.12c.92.78,1.98,2,2.77,3.13l-1.41,1.25c-.69-1.16-1.64-2.29-2.67-3.25Z"/>
        <path d="M187.56,128.55c2.55-1,4.44-2.64,5.75-4.93h1.7c1.38,1.93,3.4,3.46,6.01,4.53l-.92,1.25c-.9-.4-1.77-.88-2.57-1.42v1.05h-6.42v-.84c-.84.6-1.74,1.12-2.67,1.54l-.89-1.17ZM197.92,135.17c-2.82.42-6.09.78-9.03,1l-.45-1.44c.69-.03,1.57-.08,2.07-.12.51-.9.97-1.84,1.38-2.89h-3.55v-1.29h11.91v1.29h-6.69c-.45,1-.93,1.93-1.42,2.8,1.92-.13,3.43-.25,4.88-.42-.38-.42-.83-.9-1.49-1.48l1.25-.69c1.26,1.09,2.47,2.37,3.48,3.66l-1.32.92c-.45-.63-.53-.72-1-1.33ZM197.22,127.76c-1.2-.84-2.28-1.83-3.06-2.87-.69,1.12-1.5,2.04-2.5,2.87h5.57Z"/>
        <path d="M204.48,131.28c-.58.63-1.05,1.09-1.81,1.72l-.71-1.32c1.44-.99,3.13-2.83,3.97-4.36h-3.52v-1.33h2.01v-2.58h1.41v2.58h1.38l.6.61c-.53,1.04-1.12,2.03-1.84,2.94.9.54,1.59,1.02,2.58,1.83l-.92,1.23c-.66-.69-1.11-1.11-1.74-1.62v5.57h-1.41v-5.26ZM207.19,134.64h3.27v-5.83h-2.64v-1.38h2.64v-3.84h1.48v3.84h2.92v1.38h-2.92v5.83h3.44v1.39h-8.19v-1.39Z"/>
        <path d="M217.67,129.9c0-.52.38-1.26,1.02-1.92l1.05.51c-.4.36-.64.67-.64.88,0,.33.43.48,1.5.48h.22c.06-.36.11-.73.17-1.14.06-.45.13-.93.2-1.42-1-.01-2.01-.08-2.9-.2l-.07-1.42c1.05.15,2.11.24,3.15.24.12-.93.24-1.8.3-2.43l1.56.21c-.11.52-.24,1.32-.38,2.17.92-.04,1.83-.15,2.74-.32l.09,1.42c-.89.15-2.04.26-3.06.29-.07.53-.13,1.02-.19,1.47-.04.38-.09.72-.12,1.04,1.06-.1,2.17-.3,3.03-.57l.33,1.41c-1.11.24-2.37.39-3.51.47-.04.55-.08.96-.08,1.21,0,1.38.62,2.16,2.07,2.14,1.54-.01,2.92-1.09,2.92-2.89,0-.93-.33-1.68-.93-2.69l1.56-.06c.66,1.09.88,2.17.88,2.94,0,2.66-1.84,4.2-4.47,4.2-2.43,0-3.54-1.21-3.54-3.33,0-.34.03-.84.09-1.46h-.36c-1.96,0-2.64-.55-2.64-1.25Z"/>
        <path d="M231.72,136.41l-.29-1.44c.55.09.9.12,1.23.12s.4-.09.4-.42v-3.09c-.51.18-1.09.34-1.68.5l-.39-1.43c.73-.15,1.42-.31,2.07-.52v-2.71h-1.86v-1.32h1.86v-2.77h1.4v2.77h1.48v1.32h-1.48v2.26c.36-.09.85-.27,1.38-.48l.12,1.26c-.46.22-.95.43-1.5.63v4.29c0,.87-.32,1.14-1.29,1.14-.38,0-1.02-.04-1.46-.11ZM235.57,135.41c1.21-.27,2.37-.78,3.41-1.5-.87-.79-1.53-1.74-1.93-2.77h-.68v-1.28h6.17l.71.62c-.51,1.28-1.28,2.43-2.19,3.38.87.5,2.04.97,3.28,1.3l-.83,1.32c-1.14-.34-2.4-.96-3.45-1.72-1.05.87-2.17,1.47-3.63,1.92l-.86-1.26ZM235.72,128.49c1.14-.51,1.51-1.25,1.51-2.94v-1.62h4.44v3.53c0,.31.09.39.46.39.63,0,.64-.04.71-1.56l1.26.41c-.04,1.29-.13,1.81-.36,2.07-.24.25-.78.39-1.72.39-1.35,0-1.75-.26-1.75-1.07v-2.88h-1.62c0,2.46-.46,3.48-1.93,4.32l-.99-1.03ZM241.41,131.13h-2.98c.33.69.92,1.42,1.56,1.95.66-.6,1.16-1.29,1.42-1.95Z"/>
        <path d="M14.19,154.28c1.29-.53,2.55-1.23,3.75-2.08l.48,1.08c-.97.74-2.37,1.59-3.55,2.18l-.67-1.17ZM14.37,161.79c1.68-.36,3.11-.81,4.26-1.37h-2.44v-5.45h2.42l-.54-.76c2.35-.42,3.39-1.23,3.48-2.73h-1c-.39.6-.79,1.08-1.23,1.46l-.99-.83c.83-.72,1.47-1.7,1.77-2.71l1.38.24c-.13.33-.24.57-.34.79h5.04l.71.55c-.42.72-.96,1.47-1.53,2.07l-1.23-.49c.39-.35.77-.77.96-1.08h-2.16c.33,1.35,1.74,2.28,4.27,2.79l-.75,1.14c-.22-.08-.72-.23-.97-.32v5.33h-2.66c1.3.3,2.55.67,4.23,1.29l-1.16,1.17c-1.41-.67-2.89-1.25-4.38-1.68l.93-.78h-3.63l1.04.79c-1.14.64-2.88,1.35-4.5,1.8l-.96-1.23ZM14.89,150.72l.87-.93c.73.32,1.56.79,2.31,1.38l-.92,1.05c-.64-.54-1.38-1.03-2.26-1.5ZM24.03,156.51v-.66h-6.42v.66h6.42ZM24.03,158v-.66h-6.42v.66h6.42ZM24.03,159.51v-.67h-6.42v.67h6.42ZM25.11,154.98c-1.25-.45-2.24-1.15-2.75-1.96-.46.92-1.21,1.49-2.57,1.96h5.31Z"/>
        <path d="M33.4,162.69l-.29-1.35c.57.12,1.09.19,1.46.19.42,0,.6-.13.72-.54.08-.26.11-.6.11-1.01,0-.34-.03-.73-.08-1.12-1.47,1.5-3.24,2.64-5.42,3.46l-.84-1.17c2.33-.71,4.25-1.86,5.87-3.56-.09-.21-.2-.39-.29-.54-1.35,1.22-3.02,2.22-4.7,2.81l-.83-1.1c1.85-.51,3.45-1.36,4.88-2.62-.13-.16-.19-.24-.31-.34-1.19.75-2.61,1.38-3.92,1.71l-.78-1.11c1.74-.39,3.27-1.02,4.61-1.91h-2.4v-1.14h8.07v1.14h-2.2c.16.79.49,1.67.84,2.23.87-.64,1.63-1.33,2.19-1.98l1.17.96c-.72.71-1.6,1.39-2.71,2.12.75,1.08,1.89,2.14,3.09,2.82l-1.02,1.19c-2.21-1.32-4.07-4.14-4.84-7.33h-.27c-.25.22-.48.39-.81.63,1.44,1.42,2.1,2.97,2.1,4.96s-.5,2.71-1.83,2.71c-.42,0-1.02-.04-1.56-.12ZM29.2,151.19h5.22v-1.62h1.53v1.62h5.31v3.01h-1.44v-1.84h-9.18v1.84h-1.44v-3.01Z"/>
        <path d="M44.14,156.15c0-.52.38-1.26,1.02-1.92l1.05.51c-.4.36-.64.67-.64.88,0,.33.43.48,1.5.48h.22c.06-.36.11-.73.17-1.14.06-.45.13-.93.2-1.42-1-.01-2.01-.08-2.9-.2l-.07-1.42c1.05.15,2.11.24,3.15.24.12-.93.24-1.8.3-2.43l1.56.21c-.11.52-.24,1.32-.38,2.17.92-.04,1.83-.15,2.74-.32l.09,1.42c-.89.15-2.04.26-3.06.29-.07.53-.13,1.02-.19,1.47-.04.38-.09.72-.12,1.04,1.06-.1,2.17-.3,3.03-.57l.33,1.41c-1.11.24-2.37.39-3.51.47-.04.55-.08.96-.08,1.21,0,1.38.62,2.16,2.07,2.14,1.54-.01,2.92-1.09,2.92-2.89,0-.93-.33-1.68-.93-2.69l1.56-.06c.66,1.09.88,2.17.88,2.94,0,2.66-1.84,4.2-4.47,4.2-2.43,0-3.54-1.21-3.54-3.33,0-.34.03-.84.09-1.46h-.36c-1.96,0-2.64-.55-2.64-1.25Z"/>
        <path d="M66.1,149.43h4.5v1.41h-3.09v9.54h-1.41v-10.95Z"/>
        <path d="M72.91,159.35c0-1.04,1.07-2.5,2.8-3.29-.01-.78-.04-1.59-.04-2.28-.97.09-1.9.13-2.68.17l-.15-1.38c.83-.02,1.8-.08,2.81-.15,0-.69-.02-1.51,0-2.38l1.69.08c-.04.67-.06,1.42-.08,2.14.87-.1,1.7-.24,2.4-.39l.17,1.38c-.77.15-1.67.27-2.58.38v.36c0,.41.01.98.03,1.64,1-.3,2.11-.48,3.1-.48,2.4,0,3.69,1.3,3.69,3.08,0,2.17-1.45,3.38-3.52,3.38-.58,0-1.29-.11-1.72-.3l-.24-1.51c.6.24,1.2.38,1.8.38,1.33,0,2.13-.85,2.13-1.92,0-.95-.73-1.74-2.4-1.74-.86,0-1.88.18-2.81.53.03.97.06,1.93.09,2.62.01.42.01.66.01.99,0,.99-.78,1.33-1.67,1.33-1.51,0-2.83-1.19-2.83-2.61ZM75.42,160.46c.38,0,.51-.25.51-.78,0-.38,0-.67-.01-1.17-.01-.32-.01-.65-.03-.95-.88.46-1.47,1.25-1.47,1.79,0,.67.57,1.11,1,1.11ZM80.58,152.07l.75-1.21c1.27.57,2.08,1.09,3.27,2.17l-.9,1.26c-1.14-1.08-1.94-1.63-3.12-2.22Z"/>
        <path d="M87.3,161.58c1.23-2.76,2.1-5.34,2.71-7.94-1.02.08-1.98.12-2.77.15l-.17-1.51c1.04-.03,2.14-.08,3.29-.15.15-.81.3-1.63.42-2.47l1.54.24c-.14.72-.29,1.42-.44,2.11,1.11-.12,2.21-.25,3.27-.46l.24,1.5c-1.18.2-2.53.36-3.85.48-.69,2.92-1.54,5.7-2.71,8.65l-1.53-.6ZM92.53,159.65c0-.55.21-1.23.67-1.89l1.37.43c-.39.45-.57.9-.57,1.21,0,.58.66.92,2.13.92.96,0,1.98-.1,2.79-.28l.3,1.56c-.93.18-2.13.21-2.85.21-2.75,0-3.84-.9-3.84-2.16ZM93.3,154.85c1.71-.29,3.71-.42,5.4-.34l-.19,1.49c-1.63-.09-3.45.03-4.8.27l-.41-1.41Z"/>
        <path d="M101.53,161.3c1.25-2.34,2.1-4.38,2.71-6.57-.92.14-1.77.25-2.43.36l-.25-1.46c.69-.06,1.96-.2,2.98-.34.24-1.04.45-2.12.65-3.25l1.53.24c-.19.93-.42,1.86-.66,2.82.44-.03.83-.06,1.14-.06,1.44,0,2.4.88,2.4,2.68,0,1.29-.12,2.91-.45,4.27-.37,1.56-1.27,1.97-2.17,1.97-.7,0-1.39-.14-2.01-.36l-.12-1.65c.71.35,1.38.48,1.83.48.58,0,.88-.32,1.11-1.35.19-.89.3-2,.3-3.06s-.43-1.59-1.18-1.59c-.26,0-.62.03-1.14.09-.73,2.59-1.53,4.88-2.82,7.51l-1.41-.73ZM109.53,153.27l1.23-.91c1.17,1.39,1.95,3.06,2.64,5.19l-1.38.9c-.72-2.26-1.35-3.97-2.49-5.17ZM110.7,151.16l.79-.66c.63.6,1.05,1.11,1.56,2.01l-.86.67c-.51-.92-.94-1.48-1.5-2.02ZM112.15,150.32l.79-.66c.68.58,1.08,1.16,1.56,1.98l-.87.66c-.45-.84-.9-1.46-1.49-1.98Z"/>
        <path d="M117.37,158.81c-.33-1.06-.55-2.97-.55-4.71,0-.75.03-1.81.09-2.75l1.59.33c-.09,1.02-.13,1.92-.13,2.88,0,1.64.17,2.81.43,3.67.32,1.02.76,1.64,1.2,1.64.48,0,1.11-1.04,1.51-2.94l1.32,1.11c-.63,2.37-1.7,3.51-2.8,3.51-1.22,0-2.13-1.07-2.66-2.75ZM124.23,153.15l1.14-1.02c1.8,1.65,2.32,3.67,2.71,6.52l-1.54.48c-.35-2.66-.9-4.77-2.31-5.98Z"/>
        <path d="M131.34,157.25c0-1.42.32-3.93.86-6.79l1.53.24c-.6,2.89-.92,5.41-.92,6.58,0,.47.03,1.01.11,1.46.24-.76.62-1.65.9-2.19l.9.9c-.46.93-.67,1.53-.84,2.1-.2.69-.3,1.36-.24,1.99l-1.18.5c-.62-1.21-1.11-2.82-1.11-4.78ZM135.69,158.88c0-.65.27-1.37.99-2.17l1.42.48c-.69.6-.92,1.08-.92,1.46,0,.75.63,1.19,2.29,1.19.66,0,1.63-.09,2.59-.32l.3,1.56c-1.04.17-2.07.21-2.7.21-2.71,0-3.99-.72-3.99-2.4ZM135.85,151.98c1.68.03,4.29-.12,6-.39l.18,1.5c-1.72.27-4.32.44-6.04.39l-.14-1.5Z"/>
        <path d="M148.83,161.61c1.84-.72,2.59-1.23,3.33-2.01.67-.72,1.26-1.88,1.26-2.96,0-1.47-.98-1.99-1.91-1.99-.5,0-.97.07-2.21.4-1.12.3-1.69.46-2.61.72l-.44-1.47c.92-.22,1.49-.38,2.54-.63,1.39-.34,2.13-.48,2.94-.48,1.77,0,3.36.99,3.36,3.21,0,1.89-.79,3.13-1.56,4.03-.81.95-1.95,1.68-3.45,2.27l-1.26-1.1ZM148.44,151.14l.57-1.33c1.5.27,2.91.57,4.54,1.35l-.63,1.38c-1.46-.72-3-1.09-4.49-1.4Z"/>
        <path d="M162.03,158.21c-.54.61-1.17,1.36-1.94,2.38l-1.23-.93c1.25-1.26,2.28-2.73,2.7-3.57.15-.3.33-.74.48-1.2v-.96c-.86.2-1.89.35-2.68.42l-.24-1.39c.83-.06,1.95-.2,2.91-.42,0-1.07-.02-1.86-.03-2.66l1.59.06c-.03.88-.06,1.68-.08,2.61l.63.42c-.15.51-.36,1.07-.64,1.77v.18c1.69-1.79,3.18-3.1,4.51-3.1.96,0,1.6.58,1.6,1.68,0,.64-.1,1.3-.22,2.04-.25,1.59-.36,2.77-.36,3.38,0,.81.27,1.03.72,1.03.63,0,1.33-.42,2.07-1.63l.66,1.54c-.75,1.08-1.75,1.62-2.97,1.62s-2.01-.88-2.01-2.28c0-.94.1-2.19.38-3.93.08-.5.15-1.05.15-1.44,0-.36-.12-.51-.39-.51-.72,0-2.57,1.74-4.14,3.33,0,1.96,0,3.44.03,5.7l-1.57.06c.03-1.62.06-2.92.08-4.2Z"/>
        <path d="M176.59,158.24c0-.84.03-2.65.06-3.78.03-.97.02-2.97-.01-4.28l1.72.03c-.03,1.29-.07,3.18-.12,4.12-.04,1-.08,2.75-.08,3.67,0,1.79.5,2.66,1.89,2.66,1.72,0,3.57-1.23,4.56-3.04l.83,1.63c-1.16,1.65-3.21,2.92-5.4,2.92-2.62,0-3.45-1.63-3.45-3.95Z"/>
        <path d="M189.67,158.81c-.33-1.06-.55-2.97-.55-4.71,0-.75.03-1.81.09-2.75l1.59.33c-.09,1.02-.13,1.92-.13,2.88,0,1.64.17,2.81.43,3.67.32,1.02.76,1.64,1.2,1.64.48,0,1.11-1.04,1.51-2.94l1.32,1.11c-.63,2.37-1.7,3.51-2.8,3.51-1.21,0-2.13-1.07-2.66-2.75ZM196.53,153.15l1.14-1.02c1.8,1.65,2.32,3.67,2.71,6.52l-1.54.48c-.35-2.66-.9-4.77-2.31-5.98Z"/>
        <path d="M202.69,150.09h5.5v4.46h-4.09v8.26h-1.41v-12.72ZM206.88,151.89v-.78h-2.78v.78h2.78ZM206.88,153.6v-.82h-2.78v.82h2.78ZM212.13,162.6l-.21-1.39-.51.63c-.78-.63-1.53-1.12-2.59-1.68-.48,1.04-1.53,1.82-3.03,2.22l-.83-1.11c1.71-.33,2.75-1.11,2.98-2.22h-3.09v-1.04h3.2v-.87h-2.85v-1.02h1.68c-.17-.38-.35-.67-.56-.98l1.19-.45c.24.39.46.84.67,1.42h1.12c.3-.53.5-.96.64-1.49l1.29.42c-.21.41-.42.81-.61,1.07h1.63v1.02h-2.91v.87h3.27v1.04h-3.39l-.03.13c1.05.42,2.04.9,3.11,1.51l-.36.47c.32.07.77.12,1.05.12.32,0,.41-.09.41-.46v-6.27h-4.2v-4.46h5.61v11.31c0,.99-.3,1.29-1.29,1.29-.39,0-.99-.04-1.39-.09ZM213.4,151.89v-.78h-2.88v.78h2.88ZM213.4,153.6v-.82h-2.88v.82h2.88Z"/>
        <path d="M218.14,156.03c-.36.6-.6.97-1.04,1.54l-.66-1.44c1.24-1.8,2.23-4.15,2.73-6.57l1.42.31c-.33,1.29-.6,2.15-1.05,3.32v9.6h-1.41v-6.76ZM219.96,161.33c.75-.76,1.39-1.81,1.83-2.89l1.32.54c-.52,1.29-1.26,2.49-2,3.31l-1.15-.96ZM223.93,157.76c-.92.08-2.55.15-3.31.17l-.42-1.37c.89,0,1.68,0,2.62-.01.15-.13.39-.38.5-.5-.83-.88-1.63-1.6-2.5-2.28l.99-1c.29.23.36.29.74.63.54-.58.94-1.11,1.32-1.69-1.06.12-2.17.21-2.79.24l-.61-1.23c2.74-.15,5.76-.53,7.47-.93l1.05,1.18c-1.4.27-3.08.5-4.47.65l.84.46c-.6.78-1.26,1.5-1.94,2.13.42.4.62.6.84.87.84-.87,1.58-1.74,2.31-2.7l1.23.75c-1.02,1.21-2.17,2.43-3.22,3.38,1.12-.04,2.29-.11,2.89-.15-.27-.42-.51-.76-.92-1.29l1.08-.55c.77.88,1.46,1.89,2,2.91l-1.14.79c-.2-.42-.3-.62-.41-.81-.92.11-2,.21-2.7.25v5.15h-1.44v-5.04ZM226.14,158.87l1.15-.72c.86.92,1.64,1.96,2.18,2.94l-1.29.92c-.57-1.16-1.29-2.27-2.04-3.13Z"/>
        <path d="M231.22,161.52h3.09v-9.54h1.41v10.95h-4.5v-1.41Z"/>
        <path d="M14.86,185.09c1.35-2.04,2.19-3.66,2.8-5.29-.99.09-1.93.15-2.67.17l-.19-1.42c1-.02,2.19-.08,3.38-.2.22-.76.45-1.56.66-2.43l1.53.38c-.2.66-.38,1.27-.57,1.86.89-.12,1.73-.27,2.42-.45l.27,1.42c-.78.18-1.95.36-3.18.51-.73,2.04-1.6,3.92-3.03,6.27l-1.41-.81ZM17.94,186.39c0-1.14,1.06-2.05,2.67-2.05.36,0,.75.03,1.14.09-.03-.5-.06-1.08-.06-1.37,0-.42.06-1.15.51-1.92l1.33.77c-.29.58-.33.99-.33,1.41,0,.47.03.9.04,1.43,1.06.34,2.16.88,3.15,1.47l-.72,1.3c-.78-.55-1.58-1.02-2.35-1.35v.24c0,1.4-1,2.25-2.58,2.25-1.39,0-2.8-.71-2.8-2.26ZM20.73,187.23c.69,0,1.11-.31,1.11-.94,0-.12,0-.29-.01-.48-.34-.09-.69-.13-1-.13-.79,0-1.33.29-1.33.76,0,.53.55.79,1.25.79ZM22.99,180.02l.67-1.2c1.37.52,2.46,1.14,3.48,2.13l-.82,1.18c-1.16-1.07-2.04-1.59-3.33-2.12Z"/>
        <path d="M35.13,187.08c2.75-.69,4.38-2.37,4.38-4.5s-1.47-3.53-3.6-3.66c-.11,1.7-.38,3.17-.84,4.6-.72,2.25-2,3.48-3.36,3.48s-2.52-1.4-2.52-3.32c0-3.48,2.88-6.21,6.42-6.21,3.25,0,5.49,1.98,5.49,5.08,0,2.69-1.65,4.68-4.74,5.75l-1.23-1.23ZM31.75,185.4c.77,0,1.41-.9,1.88-2.38.41-1.32.65-2.49.74-3.96-2.07.53-3.64,2.42-3.64,4.65,0,.92.49,1.69,1.03,1.69Z"/>
        <path d="M48.48,186.98c0-.66.49-1.23,1.21-1.23s1.21.57,1.21,1.23-.5,1.21-1.21,1.21-1.21-.55-1.21-1.21ZM48.81,177.29h1.76l-.09,7.33h-1.56l-.11-7.33Z"/>
        <path d="M62.94,186.98c0-.66.49-1.23,1.21-1.23s1.21.57,1.21,1.23-.5,1.21-1.21,1.21-1.21-.55-1.21-1.21ZM63.27,177.29h1.76l-.09,7.33h-1.56l-.11-7.33Z"/>
      </g>
      <path class="cls-8" d="M329.77,1.42H90.4c-4.68,0-8.47,3.79-8.47,8.47v43.9s-9.69,9.69-9.69,9.69h9.69v.5c0,4.68,3.79,8.47,8.47,8.47h239.38c4.68,0,8.47-3.79,8.47-8.47V9.89c0-4.68-3.79-8.47-8.47-8.47Z"/>
      <g>
        <path d="M101.71,23.75c-.75-.88-1.15-1.11-1.56-1.11s-.75.24-1.12.76c-.92,1.27-1.58,2.11-2.67,3.43l-1.32-1.11c1-.99,2.08-2.21,3-3.44.68-.91,1.28-1.32,2.08-1.32s1.53.41,2.46,1.49c1.85,2.16,3.33,3.66,5.79,5.67l-1.18,1.37c-2.52-2.26-3.96-3.96-5.48-5.75Z"/>
        <path d="M111.3,29.66c1.99-1.96,3.54-3.46,5.04-4.89-1.27.18-2.83.33-3.73.36l-.17-1.25c1.38-.03,4.06-.21,5.54-.58l.82.91c-1.02.87-1.9,1.68-2.61,2.34.22-.06.45-.09.63-.09.51,0,.76.41.76.79,0,.42-.03.84-.03,1.23,0,.46.22.66.78.66.63,0,1.73-.17,2.36-.35l.25,1.43c-.99.19-1.98.27-2.67.27-1.3,0-2.05-.54-2.05-1.62,0-.32.01-.72.01-.93,0-.27-.09-.5-.38-.5-.32,0-.65.2-.96.48-.51.46-.83.82-2.43,2.64l-1.17-.92ZM113.89,22.05l.5-1.17c1.21.3,2,.54,3.17,1.12l-.62,1.19c-1.02-.54-1.92-.84-3.04-1.14Z"/>
        <path d="M128.08,24.41c-1.08,0-1.86,1.06-2.07,2.83l-1.42-.23c.22-2.62,1.72-4.08,3.49-4.08,2.48,0,3.15,2.91,4.95,2.91,1.08,0,1.92-.94,2.07-2.82l1.41.23c-.22,2.61-1.59,4.08-3.45,4.08-2.52,0-3.24-2.92-4.98-2.92Z"/>
        <path d="M143.8,29.13c0-.66.49-1.23,1.21-1.23s1.21.57,1.21,1.23-.5,1.21-1.21,1.21-1.21-.55-1.21-1.21ZM144.13,19.44h1.76l-.09,7.33h-1.56l-.11-7.33Z"/>
        <path d="M152.88,29.88c.87-1.32,1.18-2.92,1.18-5.83v-4.17h5.08v-1.86h1.56v1.86h5.1v1.32h-10.24v2.22c.01,4.08-.34,5.88-1.54,7.68l-1.14-1.21ZM155.56,29.31c.54-1.14.88-2.68,1.05-4.53l1.39.38c-.22,2.17-.61,3.92-1.12,5.03l-1.32-.87ZM158.56,29.68v-5.67h1.47v4.98c0,.45.13.54.87.54.96,0,1.12-.06,1.23-.39.08-.31.12-1.02.12-2.04l1.46.38c-.04,1.72-.17,2.53-.42,2.89-.29.4-.92.55-2.28.55-1.95,0-2.44-.24-2.44-1.24ZM158.91,22.52l.96-1.05c.84.55,1.82,1.35,2.66,2.16l-1.07,1.17c-.73-.86-1.67-1.7-2.55-2.28ZM162.7,25.02l1.18-.75c.84,1.19,1.68,2.74,2.38,4.41l-1.24.93c-.72-1.81-1.53-3.42-2.33-4.59Z"/>
        <path d="M167.8,31.07l-.25-1.41c.36.09.78.13,1.09.13.34,0,.45-.09.45-.39v-3.18c-.39.15-1.05.36-1.52.51l-.4-1.4c.55-.15,1.24-.34,1.92-.55v-2.71h-1.68v-1.32h1.68v-2.77h1.35v2.77h1.37v1.32h-1.37v2.23c.22-.06.88-.31,1.29-.49l.12,1.24c-.42.21-.93.45-1.41.65v4.32c0,.87-.34,1.16-1.3,1.16-.48,0-.98-.04-1.33-.1ZM173.37,30.23c.95-.18,1.86-.55,2.68-1.07-.57-.46-1.09-1.09-1.53-1.8-.65,1.63-1.5,2.91-2.54,3.76l-.92-.97c1.41-1.16,2.43-2.94,2.75-4.92h-1.79v-1.12h1.95l.08-.9h-1.83v-1.12h1.25c-.21-.59-.53-1.16-.87-1.62l1.17-.49c.38.45.71,1.02.99,1.66l-1.17.45h3.71c.44-.79.79-1.56,1.11-2.52l1.36.45c-.24.6-.63,1.29-1.11,2.07h1.42v1.12h-4.75c-.03.43-.04.63-.08.9h5.24v1.12h-5.4c-.03.21-.07.45-.15.83h4l.66.62c-.39.81-.96,1.62-1.65,2.34.72.34,1.81.69,2.8.91l-.78,1.21c-1.28-.4-2.12-.78-2.94-1.3-.83.63-1.83,1.16-2.97,1.5l-.71-1.11ZM171.75,18.78c2.85-.07,5.4-.34,7.38-.75l.87,1.17c-2.33.38-5.08.63-7.77.75l-.48-1.17ZM174.93,20.15l1.22-.39c.33.47.63,1.11.9,1.82l-1.3.45c-.15-.64-.45-1.3-.81-1.88ZM177.96,27.18h-2.35c.45.55.87.93,1.33,1.24.39-.36.72-.78,1.02-1.24Z"/>
        <path d="M185.16,26.64c0-.84.03-2.65.06-3.78.03-.97.01-2.97-.02-4.28l1.72.03c-.03,1.29-.07,3.18-.12,4.12-.04,1-.08,2.75-.08,3.67,0,1.79.5,2.66,1.89,2.66,1.72,0,3.57-1.23,4.56-3.04l.83,1.63c-1.16,1.65-3.21,2.92-5.4,2.92-2.62,0-3.45-1.63-3.45-3.95Z"/>
        <path d="M197.08,29.99c1.23-2.76,2.1-5.34,2.71-7.94-1.02.08-1.98.12-2.77.15l-.17-1.51c1.04-.03,2.14-.08,3.29-.15.15-.81.3-1.64.42-2.48l1.54.24c-.14.72-.29,1.42-.44,2.11,1.11-.12,2.21-.25,3.27-.46l.24,1.5c-1.18.2-2.53.36-3.85.48-.69,2.92-1.54,5.7-2.71,8.65l-1.53-.6ZM202.32,28.05c0-.55.21-1.23.67-1.89l1.37.43c-.39.45-.57.9-.57,1.21,0,.59.66.92,2.13.92.96,0,1.98-.11,2.79-.29l.3,1.56c-.93.18-2.13.21-2.85.21-2.75,0-3.84-.9-3.84-2.16ZM203.08,23.26c1.71-.29,3.71-.42,5.4-.35l-.19,1.49c-1.63-.09-3.45.03-4.8.27l-.41-1.41Z"/>
        <path d="M210.58,23.21c2.55-1.01,4.44-2.64,5.75-4.94h1.7c1.38,1.94,3.4,3.46,6.01,4.53l-.92,1.25c-.9-.41-1.77-.88-2.57-1.43v1.05h-6.42v-.84c-.84.6-1.74,1.12-2.67,1.54l-.89-1.17ZM220.95,29.82c-2.82.42-6.09.78-9.03,1l-.45-1.44c.69-.03,1.57-.08,2.07-.12.51-.9.97-1.84,1.38-2.89h-3.55v-1.29h11.91v1.29h-6.69c-.45,1.01-.93,1.94-1.42,2.8,1.92-.13,3.43-.25,4.88-.42-.38-.42-.83-.9-1.49-1.48l1.25-.69c1.26,1.09,2.47,2.37,3.48,3.66l-1.32.92c-.45-.63-.53-.72-1-1.33ZM220.24,22.42c-1.2-.84-2.28-1.83-3.06-2.87-.69,1.12-1.5,2.04-2.5,2.87h5.57Z"/>
        <path d="M227.5,25.94c-.58.63-1.05,1.09-1.81,1.72l-.71-1.32c1.44-.99,3.13-2.84,3.97-4.37h-3.52v-1.33h2.01v-2.58h1.41v2.58h1.38l.6.61c-.53,1.04-1.12,2.03-1.84,2.94.9.54,1.59,1.02,2.58,1.83l-.92,1.23c-.66-.69-1.11-1.11-1.74-1.62v5.56h-1.41v-5.26ZM230.22,29.3h3.27v-5.84h-2.64v-1.38h2.64v-3.84h1.48v3.84h2.92v1.38h-2.92v5.84h3.44v1.39h-8.19v-1.39Z"/>
        <path d="M240.24,29.7c1.25-2.34,2.1-4.38,2.71-6.57-.92.14-1.77.26-2.43.36l-.25-1.45c.69-.06,1.96-.2,2.98-.35.24-1.04.45-2.12.65-3.25l1.53.24c-.19.93-.42,1.86-.66,2.82.44-.03.83-.06,1.14-.06,1.44,0,2.4.88,2.4,2.68,0,1.29-.12,2.91-.45,4.28-.37,1.56-1.27,1.96-2.17,1.96-.7,0-1.39-.13-2.01-.36l-.12-1.65c.71.34,1.38.48,1.83.48.58,0,.88-.32,1.11-1.35.19-.89.3-2,.3-3.06s-.43-1.59-1.18-1.59c-.26,0-.62.03-1.14.09-.73,2.59-1.53,4.88-2.82,7.51l-1.41-.73ZM248.23,21.68l1.23-.91c1.17,1.39,1.95,3.06,2.64,5.19l-1.38.9c-.72-2.27-1.35-3.97-2.49-5.18ZM249.4,19.56l.79-.66c.63.6,1.05,1.11,1.56,2.01l-.86.67c-.51-.91-.94-1.48-1.5-2.02ZM250.86,18.73l.79-.66c.68.58,1.08,1.16,1.56,1.98l-.87.66c-.45-.84-.9-1.46-1.49-1.98Z"/>
        <path d="M254.7,29.7c1.25-2.34,2.1-4.38,2.71-6.57-.92.14-1.77.26-2.43.36l-.25-1.45c.69-.06,1.96-.2,2.98-.35.24-1.04.45-2.12.65-3.25l1.53.24c-.19.93-.42,1.86-.66,2.82.44-.03.83-.06,1.14-.06,1.44,0,2.4.88,2.4,2.68,0,1.29-.12,2.91-.45,4.28-.38,1.56-1.28,1.96-2.18,1.96-.71,0-1.39-.13-2.01-.36l-.12-1.65c.71.34,1.38.48,1.83.48.58,0,.88-.32,1.11-1.35.19-.89.3-2,.3-3.06s-.43-1.59-1.18-1.59c-.26,0-.62.03-1.14.09-.73,2.59-1.53,4.88-2.82,7.51l-1.41-.73ZM262.69,21.68l1.23-.91c1.17,1.39,1.95,3.06,2.64,5.19l-1.38.9c-.72-2.27-1.35-3.97-2.49-5.18ZM263.86,19.56l.79-.66c.63.6,1.05,1.11,1.56,2.01l-.86.67c-.51-.91-.94-1.48-1.5-2.02ZM265.32,18.73l.79-.66c.68.58,1.08,1.16,1.56,1.98l-.87.66c-.45-.84-.9-1.46-1.49-1.98Z"/>
        <path d="M269.1,29.79c2.04-4.32,3.56-7.62,5.27-11.5l1.54.58c-1.04,2.04-1.91,3.81-2.81,5.71.8-.69,1.65-1.02,2.33-1.02,1.04,0,1.38.83,1.38,2.64,0,1.93.24,2.58,1.02,2.58,1.05,0,2.05-1.27,2.95-3.99l1.23,1.18c-1.04,2.8-2.35,4.3-4.17,4.3s-2.52-1.23-2.52-3.57c0-1.28-.12-1.61-.58-1.61-.53,0-1.37.67-2.01,1.47-.76.93-1.15,1.65-2.2,4l-1.43-.79Z"/>
        <path d="M284.07,25.76c0-1.33.3-3.96.84-6.81l1.53.27c-.65,2.92-.95,5.56-.95,6.67,0,.47.03.98.09,1.44.24-.76.54-1.47.87-2.19l.9.9c-.45.93-.64,1.47-.79,2.03-.22.84-.3,1.28-.28,1.95l-1.19.5c-.63-1.37-1.02-2.73-1.02-4.76ZM287.83,28.2c0-1.05.85-2.04,2.55-2.04.42,0,.87.04,1.32.12l-.04-1.17c-.05-.64-.08-1.38-.09-2.07-1.18.08-2.37.11-3.37.11l-.11-1.5c1.07.02,2.26-.02,3.46-.09,0-.84-.01-1.58.03-2.79l1.57.04c-.07,1.02-.1,1.83-.13,2.61.79-.08,1.54-.18,2.24-.32l.15,1.51c-.72.12-1.53.23-2.38.3.02.78.03,1.48.06,2.16.01.6.04,1.14.06,1.59.86.31,1.71.78,2.54,1.39l-.87,1.38c-.55-.52-1.11-.92-1.65-1.2-.12,1.46-1.09,2.19-2.71,2.19-1.5,0-2.61-.85-2.61-2.23ZM290.41,29.09c.81,0,1.35-.39,1.33-1.21v-.2c-.45-.13-.88-.21-1.25-.21-.88,0-1.26.36-1.26.81,0,.5.43.81,1.17.81ZM293.71,18.56l.97-.29c.25.72.36,1.17.53,2.04l-1.02.29c-.15-.87-.25-1.33-.48-2.04ZM295.26,18.11l.96-.28c.31.73.42,1.15.6,2.04l-.99.3c-.16-.87-.28-1.32-.57-2.06Z"/>
        <path d="M302.59,28.93c2.99-.32,4.59-1.38,4.59-2.88,0-.95-.64-1.84-1.92-1.84-.67,0-1.5.18-2.46.38-.94.2-2.23.5-3.21.74l-.4-1.41c.96-.21,2.08-.44,3.28-.68,1.05-.21,2.05-.39,2.85-.39,2.17,0,3.42,1.36,3.42,3.13,0,2.31-1.8,3.76-5.28,4.29l-.87-1.33Z"/>
        <path d="M316.65,26.09c0-1.66,1.05-3.22,3.02-4.56-2.88.27-4.68.42-6.81.58l-.19-1.57c3.12-.12,7.92-.41,11.43-.98l.3,1.53c-2.08.29-2.79.51-4,1.47-1.38,1.08-2.21,2.19-2.21,3.55,0,1.71,1.37,2.59,4.04,2.94l-.67,1.46c-2.99-.42-4.89-1.86-4.89-4.43Z"/>
        <path d="M99.01,52.77c-1.21-.81-1.58-1.21-1.58-1.89,0-.63.53-1.11,1.72-2.07,1.56-1.25,2.9-2.42,4.32-4.12l1.35,1.02c-1.56,1.75-2.61,2.58-4.36,3.93-1,.76-1.29,1.04-1.29,1.26,0,.29.18.44,1.29,1.12,1.81,1.12,3.06,1.9,5.2,3.93l-1.18,1.19c-1.93-1.95-3.25-2.88-5.47-4.37Z"/>
        <path d="M112.75,52.86c-.54.62-1.17,1.37-1.94,2.38l-1.23-.93c1.25-1.26,2.28-2.73,2.7-3.57.15-.3.33-.73.48-1.2v-.96c-.86.2-1.89.35-2.68.42l-.24-1.39c.83-.06,1.95-.2,2.91-.42,0-1.06-.02-1.86-.03-2.65l1.59.06c-.03.88-.06,1.68-.08,2.61l.63.42c-.15.51-.36,1.06-.64,1.77v.18c1.69-1.79,3.18-3.1,4.51-3.1.96,0,1.6.58,1.6,1.68,0,.65-.1,1.31-.22,2.04-.25,1.59-.36,2.78-.36,3.38,0,.81.27,1.04.72,1.04.63,0,1.33-.42,2.07-1.63l.66,1.54c-.75,1.08-1.75,1.62-2.97,1.62s-2.01-.88-2.01-2.28c0-.95.1-2.19.38-3.93.07-.5.15-1.05.15-1.44,0-.36-.12-.51-.39-.51-.72,0-2.56,1.74-4.14,3.33,0,1.96,0,3.44.03,5.7l-1.57.06c.03-1.62.06-2.92.08-4.2Z"/>
        <path d="M124.78,56.24c1.23-2.76,2.1-5.34,2.71-7.94-1.02.08-1.98.12-2.77.15l-.17-1.51c1.04-.03,2.14-.08,3.29-.15.15-.81.3-1.64.42-2.48l1.54.24c-.14.72-.29,1.42-.44,2.11,1.11-.12,2.21-.25,3.27-.46l.24,1.5c-1.18.2-2.53.36-3.85.48-.69,2.92-1.54,5.7-2.71,8.65l-1.53-.6ZM130.02,54.3c0-.55.21-1.23.67-1.89l1.37.43c-.39.45-.57.9-.57,1.21,0,.59.66.92,2.13.92.96,0,1.98-.11,2.79-.29l.3,1.56c-.93.18-2.13.21-2.85.21-2.75,0-3.84-.9-3.84-2.16ZM130.78,49.51c1.71-.29,3.71-.42,5.4-.35l-.19,1.49c-1.63-.09-3.45.03-4.8.27l-.41-1.41Z"/>
        <path d="M143.14,55.73c3.18-.27,5.28-1.23,5.25-2.84-.02-.97-.84-1.6-2.13-1.57-1.58.03-3.15.96-4.4,2.34l-1.18-.57c.34-1.81.52-4.08.54-6.07l1.59.15c-.04,1.26-.2,2.85-.42,4.32,1.15-.99,2.73-1.49,3.9-1.51,2.05-.04,3.63.99,3.66,2.82v.08c0,2.38-2.04,3.72-5.87,4.2l-.94-1.33ZM142.54,45.85l.56-1.26c1.46.24,2.95.75,4.36,1.5l-.61,1.35c-1.44-.77-2.85-1.26-4.31-1.59Z"/>
        <path d="M152.5,54.38l1.3-1.12c.92.78,1.98,1.99,2.77,3.13l-1.41,1.24c-.69-1.15-1.64-2.29-2.67-3.25Z"/>
        <path d="M168.34,51.93c0-1.34.33-3.96.87-6.81l1.53.27c-.64,2.92-.97,5.57-.97,6.67,0,.46.03.97.09,1.44.25-.75.55-1.47.88-2.19l.88.9c-.45.93-.64,1.47-.79,2.02-.22.84-.3,1.27-.29,1.95l-1.18.49c-.63-1.36-1.02-2.73-1.02-4.75ZM172,54.43c0-1.1.84-2.04,2.62-2.04.36,0,.79.04,1.26.15-.01-.4-.04-.78-.06-1.14-.01-.22-.03-.51-.03-.81-1.12.07-2.31.1-3.51.07l-.13-1.47c1.21.06,2.43.06,3.6-.03-.01-.3-.01-.55-.01-.71v-.96c-.98.06-2,.07-3.21.06l-.13-1.44c2.28.08,4.05-.04,5.47-.29l.22,1.41c-.29.04-.57.08-.84.11-.03.49-.03.82-.03,1.3v.36c.77-.12,1.5-.25,2.21-.45l.18,1.44c-.72.18-1.52.32-2.37.44,0,.3.01.62.03.93.02.17.05.87.08,1.54.9.35,1.84.87,2.62,1.46l-.87,1.37c-.5-.46-1.11-.92-1.72-1.26-.15,1.41-1.21,2.14-2.67,2.14-1.67,0-2.7-.87-2.7-2.19ZM174.67,55.18c.74,0,1.28-.38,1.26-1.11v-.13c-.45-.16-.87-.24-1.23-.24-.85,0-1.2.36-1.2.74,0,.46.46.75,1.17.75ZM178.14,45.26l1-.25c.3.76.45,1.37.65,2.35l-1.04.29c-.18-.98-.34-1.62-.62-2.38ZM179.67,44.84l.99-.27c.31.75.48,1.35.69,2.36l-1,.29c-.2-.98-.38-1.62-.67-2.37Z"/>
        <path d="M185.77,52.77c-1.21-.81-1.58-1.21-1.58-1.89,0-.63.53-1.11,1.72-2.07,1.56-1.25,2.9-2.42,4.32-4.12l1.35,1.02c-1.56,1.75-2.61,2.58-4.36,3.93-1,.76-1.29,1.04-1.29,1.26,0,.29.18.44,1.29,1.12,1.81,1.12,3.06,1.9,5.2,3.93l-1.18,1.19c-1.93-1.95-3.25-2.88-5.47-4.37Z"/>
        <path d="M197.31,50.81c0-.53.38-1.26,1.02-1.92l1.05.51c-.4.36-.64.67-.64.88,0,.33.43.48,1.5.48h.22c.06-.36.11-.74.17-1.14.06-.45.13-.93.2-1.42-1-.01-2.01-.08-2.9-.19l-.07-1.43c1.05.15,2.11.24,3.15.24.12-.93.24-1.8.3-2.43l1.56.21c-.11.52-.24,1.32-.38,2.17.92-.04,1.83-.15,2.74-.31l.09,1.42c-.89.15-2.04.26-3.06.29-.07.53-.13,1.02-.19,1.47-.04.38-.09.72-.12,1.04,1.06-.11,2.17-.3,3.03-.57l.33,1.41c-1.11.24-2.37.39-3.51.46-.04.55-.08.96-.08,1.21,0,1.38.62,2.16,2.07,2.14,1.54-.01,2.92-1.09,2.92-2.89,0-.93-.33-1.68-.93-2.69l1.56-.06c.66,1.09.88,2.17.88,2.94,0,2.65-1.84,4.2-4.47,4.2-2.43,0-3.54-1.21-3.54-3.33,0-.34.03-.84.09-1.46h-.36c-1.96,0-2.64-.55-2.64-1.24Z"/>
        <path d="M212.43,51.69c-.36.39-.84.86-1.26,1.2l-.73-1.21c1.48-1.24,2.59-2.65,3.54-4.39l1.2.64c-.39.72-.78,1.34-1.35,2.12v7.41h-1.39v-5.76ZM210.52,47.68c1.26-.86,2.38-2.07,3.06-3.35l1.26.66c-.97,1.56-2.19,2.89-3.51,3.87l-.81-1.18ZM218.46,57.27l-.24-1.43c.63.11,1.25.17,1.75.17.44,0,.53-.09.53-.53v-2.01h-3.76c.6.53,1.21,1.17,1.68,1.83l-1.17.94c-.54-.84-1.08-1.47-1.74-2.05l1.07-.72h-2.04v-1.16h5.92v-.99h-5.68v-1.11h8.76v1.11h-1.63v.99h1.96v1.16h-1.92v2.64c0,.92-.38,1.25-1.36,1.25-.66,0-1.42-.03-2.12-.09ZM215.71,44.66h6.92v4.79h-6.92v-4.79ZM221.26,46.53v-.84h-4.18v.84h4.18ZM221.26,48.41v-.88h-4.18v.88h4.18Z"/>
        <path d="M229.89,52.34c0-1.66,1.05-3.22,3.02-4.56-2.88.27-4.68.42-6.81.58l-.19-1.57c3.12-.12,7.92-.41,11.43-.98l.3,1.53c-2.08.29-2.79.51-4,1.47-1.38,1.08-2.21,2.19-2.21,3.55,0,1.71,1.46,2.59,4.04,2.96l-.67,1.44c-2.99-.42-4.89-1.86-4.89-4.43ZM234.25,50.09l.87-.58c.62.63,1.02,1.27,1.51,2.14l-.9.63c-.48-.92-.93-1.58-1.49-2.19ZM235.68,49.16l.88-.58c.6.58,1.07,1.27,1.52,2.08l-.9.6c-.51-.93-.9-1.51-1.5-2.1Z"/>
        <path d="M240.91,49.22c1.79.04,3.72-.04,5.46-.24-.2-.46-.41-.97-.58-1.48-1.46.15-2.89.24-3.93.25l-.17-1.41c1.2.03,2.46-.01,3.66-.13-.16-.48-.3-.97-.45-1.48l1.5-.33c.09.53.21,1.08.38,1.65,1.12-.17,2.16-.38,2.95-.63l.42,1.34c-.79.22-1.84.42-2.95.57.18.51.38,1,.6,1.49,1.3-.2,2.46-.45,3.27-.74l.5,1.38c-.85.27-1.92.5-3.09.66.65,1.14,1.41,2.13,2.25,2.8l-.9,1.14c-.57-.39-.96-.57-1.68-.79-.67-.21-1.32-.3-1.9-.3-1.73,0-2.69.64-2.69,1.32,0,.97,1.35,1.37,3.51,1.37.66,0,1.68-.08,2.39-.2l.19,1.47c-.78.09-2.04.15-2.82.15-2.38,0-4.82-.55-4.82-2.73,0-1.49,1.7-2.58,4.08-2.58.72,0,1.37.09,2.03.28-.39-.54-.77-1.12-1.1-1.74-2.05.22-4.23.34-5.97.36l-.13-1.44Z"/>
        <path d="M257.74,54.66c0-1.05.95-1.82,2.23-1.82s2.39.72,3.12,2.01c.72-.48,1.19-1.18,1.19-2.03,0-1.05-1.07-1.91-2.79-1.91-1.09,0-2.42.36-3.42.99-.69.44-1.2.86-1.96,1.63l-1.04-1.12c1.65-1.27,4.05-3.39,6.21-5.82-1.21.21-2.73.34-3.99.41l-.27-1.44c1.72-.03,3.61-.15,5.77-.56l.85,1.05c-1.44,1.54-2.56,2.61-3.91,3.83.69-.21,1.33-.3,1.93-.3,2.52,0,4.16,1.33,4.16,3.19,0,2.4-2.4,4.05-5.24,4.05-1.54,0-2.85-.82-2.85-2.17ZM260.74,55.52c.39,0,.75-.04,1.11-.13-.46-.81-1.11-1.26-1.8-1.26-.51,0-.81.25-.81.58,0,.52.66.81,1.5.81Z"/>
        <path d="M269.1,56.04c2.04-4.32,3.56-7.62,5.27-11.5l1.54.58c-1.04,2.04-1.91,3.81-2.81,5.71.8-.69,1.65-1.02,2.33-1.02,1.04,0,1.38.83,1.38,2.64,0,1.93.24,2.58,1.02,2.58,1.05,0,2.05-1.27,2.95-3.99l1.23,1.18c-1.04,2.8-2.35,4.3-4.17,4.3s-2.52-1.23-2.52-3.57c0-1.28-.12-1.61-.58-1.61-.53,0-1.37.67-2.01,1.47-.76.93-1.15,1.65-2.2,4l-1.43-.79Z"/>
        <path d="M283.62,56.24c1.23-2.76,2.1-5.34,2.71-7.94-1.02.08-1.98.12-2.78.15l-.16-1.51c1.03-.03,2.14-.08,3.28-.15.15-.81.3-1.64.42-2.48l1.54.24c-.13.72-.28,1.42-.43,2.11,1.11-.12,2.21-.25,3.27-.46l.24,1.5c-1.18.2-2.54.36-3.85.48-.69,2.92-1.54,5.7-2.71,8.65l-1.53-.6ZM288.85,54.3c0-.55.21-1.23.68-1.89l1.36.43c-.39.45-.57.9-.57,1.21,0,.59.66.92,2.13.92.96,0,1.98-.11,2.79-.29l.3,1.56c-.93.18-2.13.21-2.85.21-2.74,0-3.84-.9-3.84-2.16ZM289.62,49.51c1.71-.29,3.7-.42,5.4-.35l-.2,1.49c-1.63-.09-3.45.03-4.8.27l-.4-1.41ZM292.14,45.52l.9-.54c.55.71.85,1.25,1.24,2.11l-.94.57c-.39-.87-.71-1.46-1.2-2.14ZM293.85,45.01l.88-.55c.54.67.88,1.24,1.26,2.08l-.93.57c-.39-.87-.71-1.42-1.21-2.1Z"/>
        <path d="M302.86,55.38c0-.66.49-1.23,1.21-1.23s1.21.57,1.21,1.23-.5,1.21-1.21,1.21-1.21-.55-1.21-1.21ZM303.19,45.69h1.76l-.09,7.33h-1.56l-.11-7.33Z"/>
      </g>
      <circle class="cls-11" cx="31.42" cy="60.58" r="30"/>
      <circle class="cls-9" cx="308.24" cy="164.47" r="30"/>
      <g>
        <path class="cls-1" d="M325.04,155.26c1.79.14,1.22,2.12.34,3.27-.18.24-.54.27-.77.08-1.56-1.33-1.01-3.46.43-3.34Z"/>
        <path class="cls-1" d="M324.94,156.04c-.31,0-.56-.25-.56-.56v-3.55l-.89-1.24c-.18-.25-.12-.61.13-.79.25-.18.61-.12.79.13l1,1.39c.07.1.11.21.11.33v3.73c0,.31-.25.56-.56.56Z"/>
        <path class="cls-6" d="M310.18,181.64c1.34-.08,2.63-.26,3.88-.53,9.79-2.16,10.15-7.15,10.02-11.31s-1.03-19.07-13.04-19.88-15.11,8.74-17.43,11.84c-2.32,3.1-10.78,12.79,5.09,18.2,1.55.53,3.09.93,4.6,1.21"/>
        <polygon class="cls-5" points="322.11 146.38 316.02 145.81 318.73 151.28 324.93 151.94 322.11 146.38"/>
        <rect class="cls-5" x="315.45" y="149.46" width="6.62" height="2.88" transform="translate(162.98 -165.5) rotate(38.45)"/>
        <path class="cls-12" d="M289.97,167.58c5.03.33,7.93,5.64,6.07,11.34-4.9-2.67-7.64-5.38-6.07-11.34Z"/>
        <path class="cls-12" d="M323.57,169.7c-5.8-.8-10.25,4.19-9.34,10.68,6.16-1.72,9.86-3.98,9.34-10.68Z"/>
        <ellipse class="cls-1" cx="301.95" cy="169.88" rx="1.82" ry="1.68" transform="translate(87.16 441.72) rotate(-81.05)"/>
        <ellipse class="cls-1" cx="312.02" cy="170.92" rx="1.68" ry="1.82" transform="translate(-8.24 15.99) rotate(-2.9)"/>
        <path class="cls-1" d="M301.78,160.26c1.65-.67,3.13-.04,3.82,1.25.16.3-.14.56-.46.4-1.03-.52-2.05-.78-3.16-.99-.37-.07-.51-.53-.2-.66Z"/>
        <path class="cls-1" d="M314.86,162.77c-1.22-1.29-2.83-1.33-4-.45-.27.21-.11.57.26.56,1.16-.05,2.19.14,3.29.41.37.09.68-.27.45-.52Z"/>
        <path class="cls-1" d="M310.18,182.21c-.3,0-.55-.23-.56-.53-.02-.31.22-.58.53-.6,1.29-.08,2.57-.25,3.79-.52,9.84-2.17,9.68-7.33,9.58-10.74-.13-4.28-.81-7.98-2.03-11-2.08-5.2-5.61-8-10.49-8.33-9.65-.65-13.25,5.48-15.63,9.54-.48.82-.9,1.53-1.31,2.07-.11.15-.24.32-.38.51-1.66,2.17-4.75,6.2-3.58,10.07.84,2.78,3.8,5.06,8.79,6.76,1.5.51,3.02.91,4.52,1.19.31.06.51.35.45.66s-.35.51-.66.45c-1.55-.29-3.12-.71-4.67-1.23-5.35-1.82-8.55-4.35-9.5-7.5-1.34-4.42,2.11-8.92,3.77-11.08.14-.18.26-.35.38-.5.37-.49.77-1.18,1.24-1.97,2.37-4.04,6.34-10.8,16.68-10.1,5.35.36,9.2,3.4,11.46,9.03,1.26,3.14,1.97,6.98,2.11,11.39.14,4.6-.54,9.69-10.46,11.88-1.28.28-2.61.47-3.97.54-.01,0-.02,0-.03,0Z"/>
        <path class="cls-1" d="M301.02,169.24c-.06,0-.12-.02-.17-.06-.75-.59-1.13-1.2-1.42-2.25-.04-.15.05-.31.2-.35.15-.04.31.05.35.2.29,1.06.65,1.51,1.23,1.96.12.1.14.27.05.4-.06.07-.14.11-.22.11Z"/>
        <path class="cls-1" d="M300.83,169.83c-.79,0-1.64-.46-2.32-1.25-.1-.12-.09-.3.03-.4.12-.1.3-.09.4.03.62.73,1.39,1.12,2.05,1.05.15-.02.29.09.31.25.02.15-.09.29-.25.31-.07,0-.15.01-.22.01Z"/>
        <path class="cls-1" d="M313.2,170.41c-.14,0-.26-.1-.28-.24-.02-.15.09-.3.24-.32.66-.09,1.42-.66,1.85-1.39.08-.13.25-.18.39-.1.13.08.18.25.1.39-.52.88-1.43,1.54-2.26,1.66-.01,0-.03,0-.04,0Z"/>
        <path class="cls-1" d="M314.27,171.65c-.37,0-.75-.07-1.11-.24-.14-.06-.2-.23-.14-.37.06-.14.23-.2.37-.14.85.39,1.82.09,2.47-.24.14-.07.31-.01.38.13.07.14.01.31-.13.38-.5.25-1.16.48-1.85.48Z"/>
        <g>
          <path class="cls-3" d="M311.81,175.53c-.67-1.82-3.62-3.78-5.13-3.57-1.51.21-4.67,2.04-5.66,1.99s-1.67-.72-1.79,1.58,1.69,3.49,4.1,2.64c3.35,1.91,9.62.49,8.48-2.64Z"/>
          <path class="cls-3" d="M311.81,177.89c-.74,3.66-4.9,5.8-6.16,5.26-1.26-.54-2.84-1.41-1.46-4.59,2.49.53,6.87-.11,6.98-1.62s.63.95.63.95Z"/>
          <path class="cls-10" d="M305.43,178.88c-.72,1.34-.37,3.05,1.82,1.98s2.19-2.27,2.19-2.27c0,0,1.44-.72-.48,0-1.92.72-3.53.29-3.53.29Z"/>
          <path class="cls-1" d="M306.92,179.59c-1.05,0-2.18-.32-3.35-.98-2.28.65-3.54.04-4.21-.59-.84-.8-1.15-2.08-.82-3.34.33-1.27.9-1.38,1.78-1.4.64-.01,1.62-.04,3.2-.87,3.5-1.84,5.55-.78,7.54,1.37.19.2.17.51-.03.7s-.51.17-.7-.03c-1.78-1.92-3.39-2.73-6.36-1.17-1.79.94-2.9.97-3.64.98-.68.02-.69.03-.85.66-.24.9-.02,1.84.55,2.38.71.68,1.9.78,3.44.3.13-.04.28-.02.4.05,1.91,1.13,4.66,1.8,6.84-1.37.13-.19.38-.27.59-.18,0,0,.71.29,1.35.43.27.06.43.32.37.59s-.32.44-.59.37c-.42-.09-.85-.23-1.14-.34-1.22,1.62-2.71,2.44-4.39,2.44Z"/>
          <path class="cls-1" d="M306.23,183.7c-.6,0-1.17-.14-1.69-.42-.84-.45-1.38-1.1-1.59-1.91-.43-1.61.6-3.27.64-3.34.14-.23.45-.3.68-.16.23.14.3.45.16.68,0,.01-.84,1.38-.52,2.57.15.55.51.97,1.11,1.29.85.46,1.91.39,2.98-.19,1.5-.82,3.12-2.78,3.33-5.32.02-.27.26-.47.53-.45.27.02.47.26.45.53-.21,2.56-1.72,4.96-3.84,6.11-.75.41-1.51.61-2.23.61Z"/>
        </g>
        <path class="cls-1" d="M320.48,155.11c-.12,0-.25-.04-.35-.12-.24-.19-.29-.55-.09-.79l2.24-2.84c.12-.15.31-.23.5-.21l1.19.13-2.21-4.36-4.77-.45.69,1.4c.09.19.07.42-.05.59l-1.8,2.39c-.19.25-.54.3-.79.11-.25-.19-.3-.54-.11-.79l1.59-2.11-.99-1.99c-.09-.18-.08-.4.04-.57.12-.17.31-.26.52-.24l6.09.57c.19.02.36.13.45.31l2.82,5.57c.09.18.08.41-.04.58-.12.17-.32.26-.52.24l-1.91-.2-2.04,2.59c-.11.14-.28.21-.44.21Z"/>
      </g>
      <g>
        <path class="cls-7" d="M40.68,49.5c5.99-4.82,10.66-4.4,11.63-2.77.89,1.5-.2,9.39-9.12,4.98"/>
        <path class="cls-4" d="M44.92,52.08c2.15-3.7,6.52-2.97,7.65-2.44-1.95,3.62-3.96,4.96-7.65,2.44Z"/>
        <path class="cls-1" d="M47.91,53.65c-1.31,0-2.95-.38-4.99-1.39-.3-.15-.43-.52-.28-.82.15-.3.52-.42.82-.28,3.32,1.64,5.84,1.68,7.3.12,1.3-1.4,1.35-3.69,1.02-4.24-.21-.35-.72-.62-1.4-.75-.91-.17-4.28-.39-9.33,3.68-.26.21-.65.17-.86-.09-.21-.26-.17-.65.09-.86,3.68-2.96,7.54-4.43,10.31-3.93,1.04.19,1.83.66,2.23,1.32.64,1.09.43,3.95-1.18,5.69-.75.81-1.93,1.54-3.74,1.54Z"/>
        <path class="cls-7" d="M46.17,63.73c1.64-16.83-17.12-22.81-25.65-13.47-2.98,3.26-5.19,9.03-4.06,15.78-3.29,3.25-2.73,7.92,2.42,10.47,3.1,1.53,6.2,2.2,13.34,2.2,6.63,0,14.3-2.8,16.45-6.94,1.2-2.31.78-5.73-2.5-8.03Z"/>
        <path class="cls-2" d="M35.94,46.09c-.6-4.19-4.15-6.53-4.34-.47"/>
        <path class="cls-2" d="M24.25,47.16c-.51-4.21,2.31-7.38,4.07-1.58"/>
        <path class="cls-7" d="M19.79,50.22c-6.66-3.83-11.22-2.69-11.92-.92-.65,1.62,2.36,9.82,10.47,4.08"/>
        <path class="cls-4" d="M16.52,54.04c-2.15-3.7-7.04-2.78-8.16-2.25,1.95,3.62,4.48,4.77,8.16,2.25Z"/>
        <path class="cls-4" d="M29.35,45.61c1.23,7.47-2.33,14.46-12.54,14.46,0-11.43,12.54-14.46,12.54-14.46Z"/>
        <path class="cls-4" d="M31.6,45.63c0,8.41,6.81,12.73,13.85,13.26,0-11.43-13.85-13.26-13.85-13.26Z"/>
        <path class="cls-4" d="M15.37,72.5c13.82-6.39,25.47-3.61,33.3-.74-3.13,7.58-29.27,10.16-33.3.74Z"/>
        <path class="cls-1" d="M32.21,79.31c-7.6,0-10.65-.79-13.61-2.26-2.69-1.33-4.37-3.31-4.74-5.59-.32-1.98.37-3.97,1.94-5.63-1.1-7.14,1.47-12.92,4.26-15.98,4.25-4.65,11.26-5.93,17.43-3.18,3.01,1.34,5.47,3.51,7.11,6.28,1.79,3.02,2.53,6.55,2.2,10.5,3.38,2.57,3.64,6.23,2.4,8.6-2.36,4.55-10.5,7.26-17,7.26ZM30.83,46.45c-3.76,0-7.35,1.46-9.87,4.22-2.64,2.89-5.06,8.42-3.91,15.27.03.2-.03.39-.17.53-1.44,1.42-2.08,3.13-1.81,4.8.3,1.88,1.75,3.55,4.07,4.69,2.8,1.38,5.72,2.13,13.07,2.13,6.88,0,14.02-2.96,15.91-6.61,1.03-1.99.75-5.1-2.31-7.25-.18-.13-.28-.34-.26-.56.71-7.25-2.5-13.19-8.57-15.9-2.01-.89-4.11-1.33-6.16-1.33Z"/>
        <path class="cls-1" d="M13.13,56.01c-1.46,0-2.58-.54-3.4-1.18-2.09-1.64-2.9-4.58-2.44-5.76.29-.72.99-1.31,1.99-1.65,2.66-.93,6.7-.08,10.8,2.27.29.17.39.54.23.83-.17.29-.54.39-.83.23-5.62-3.23-8.91-2.49-9.79-2.18-.65.23-1.11.57-1.26.95-.21.53.31,2.97,2.06,4.35,1.89,1.49,4.48,1.14,7.5-.99.27-.19.65-.13.85.15.19.27.13.66-.15.85-2.23,1.58-4.07,2.14-5.56,2.14Z"/>
        <path class="cls-1" d="M35.94,46.7c-.3,0-.56-.22-.6-.52-.32-2.23-1.49-3.66-2.13-3.63-.31.02-.93.69-1,3.09-.01.34-.3.6-.63.59-.34-.01-.6-.29-.59-.63.11-3.62,1.4-4.23,2.15-4.27.03,0,.06,0,.09,0,1.46,0,2.94,2.06,3.31,4.67.05.33-.18.64-.52.69-.03,0-.06,0-.09,0Z"/>
        <path class="cls-1" d="M24.25,47.77c-.3,0-.57-.23-.6-.54-.32-2.67.61-5.08,2.07-5.39.74-.15,2.14.1,3.19,3.56.1.32-.08.66-.41.76-.32.1-.66-.08-.76-.41-.7-2.3-1.46-2.79-1.77-2.72-.62.13-1.38,1.81-1.11,4.05.04.33-.2.64-.53.68-.02,0-.05,0-.07,0Z"/>
        <path class="cls-1" d="M37.18,57.61c-.65-1.09-1.64-1.26-2.42-.7-.18.13-.11.42.12.44.71.07,1.33.3,1.99.61.22.1.44-.14.31-.35Z"/>
        <path class="cls-1" d="M26.21,57.81c.65-1.09,1.64-1.26,2.42-.7.18.13.11.42-.12.44-.71.07-1.33.3-1.99.61-.22.1-.44-.14-.31-.35Z"/>
        <circle class="cls-1" cx="33.06" cy="71.62" r=".57"/>
        <circle class="cls-1" cx="31.28" cy="71.62" r=".57"/>
        <path class="cls-1" d="M31.39,75.82c-.58,0-1.17-.13-1.74-.4-1.05-.5-1.76-1.38-1.96-2.34l-.5.2c-.32.13-.68-.02-.8-.34-.13-.32.02-.68.34-.8l1.32-.53c.21-.08.44-.05.62.09.17.14.26.36.22.59-.16.89.54,1.66,1.3,2.02.9.43,2.24.48,3.27-.69.23-.26.62-.28.87-.05.26.23.28.62.05.87-.81.91-1.88,1.39-2.99,1.39Z"/>
        <ellipse class="cls-1" cx="35.85" cy="66.16" rx="1.44" ry="1.56" transform="translate(-9.86 6.38) rotate(-8.95)"/>
        <ellipse class="cls-1" cx="28.18" cy="66.52" rx="1.56" ry="1.44" transform="translate(-39.68 91.3) rotate(-87.1)"/>
      </g>
    </g>
  </g>
</svg>