<?xml version="1.0" encoding="UTF-8"?>
<svg id="_レイヤー_2" data-name="レイヤー 2" xmlns="http://www.w3.org/2000/svg" width="374" height="77.36" viewBox="0 0 374 77.36">
  <defs>
    <style>
      .cls-1 {
        fill: #fff;
      }

      .cls-2 {
        fill: #b2d5d9;
      }

      .cls-3 {
        fill: #739b9e;
      }
    </style>
  </defs>
  <g id="_レイヤー_1-2" data-name="レイヤー 1">
    <g>
      <rect class="cls-2" x="0" y="0" width="374" height="77.36"/>
      <rect class="cls-1" x="7.58" y="14.39" width="358.85" height="51.32" rx="25.57" ry="25.57"/>
      <g>
        <path class="cls-3" d="M124.75,38.81h2.41c.76,0,1.24-.03,1.75-.1v1.85c-.54-.05-1.05-.08-1.77-.08h-1.84c.97,1.7,2.38,3.11,4.06,4.06-.54.54-.78.88-1.12,1.7-.7-.49-1.19-.97-1.84-1.7-.83-.97-1.19-1.5-1.73-2.52.03.61.05,1.14.05,1.63v2.06c0,.77.03,1.36.1,1.89h-1.89c.07-.53.1-1.14.1-1.9v-1.94c0-.46.02-1,.05-1.68-1.04,1.87-2.19,3.13-3.84,4.23-.42-.8-.66-1.14-1.02-1.55,1.75-1,3.18-2.46,4.16-4.28h-1.07c-.73,0-1.26.03-1.78.1v-.68c-.29.41-.49.78-.7,1.38-.43-.66-.68-1.19-1-2.04.03.53.07,1.45.07,2.16v4.18c0,.87.03,1.5.1,2.01h-1.89c.07-.53.1-1.16.1-2.01v-3.52c0-.65.02-1.05.12-2.11-.49,1.65-.99,2.75-1.72,3.86-.2-.77-.42-1.26-.77-1.82.82-1.04,1.67-2.96,2.18-4.93h-.65c-.49,0-.78.02-1.09.07v-1.73c.27.05.58.07,1.09.07h.82v-1.31c0-.87-.02-1.29-.08-1.7h1.87c-.07.44-.08.9-.08,1.7v1.31h.49c.41,0,.61-.02.88-.07v1.61c.65-1.16,1.19-2.86,1.24-3.96l1.65.42c-.07.19-.12.39-.24.9-.08.31-.12.46-.2.78h1.31v-1.12c0-.7-.03-1.12-.1-1.55h1.9c-.07.41-.1.87-.1,1.55v1.12h1.92c.82,0,1.29-.03,1.75-.1v1.78c-.48-.05-1.02-.08-1.75-.08h-1.92v2.06ZM121.2,36.75c-.29.7-.44,1.02-.92,1.82q-.41-.43-1.33-1.07c.14-.19.19-.27.27-.39-.22-.03-.49-.05-.8-.05h-.42c.39.9.8,1.58,1.55,2.58v-.94c.51.07.99.1,1.77.1h1.73v-2.06h-1.85Z"/>
        <path class="cls-3" d="M135.56,38.78c2.14-.6,3.69-.87,4.84-.87,2.4,0,3.88,1.31,3.88,3.43,0,1.27-.53,2.4-1.53,3.25-.66.56-1.65,1.04-2.96,1.43-.73.2-1.51.36-1.85.36-.2,0-.31-.05-.37-.22-.24-.59-.51-1.02-.87-1.38,3.74-.39,5.64-1.58,5.64-3.52,0-.99-.82-1.75-1.87-1.75-1.84,0-3.84.61-5.95,1.78-.17.08-.27.14-.34.14-.29,0-.77-.85-1.16-2.07.83-.12,1.12-.19,2.53-.58Z"/>
        <path class="cls-3" d="M151.87,37.16c-.44.1-.6.15-1.21.37-.22.08-.34.12-.44.12-.37,0-.71-.7-1.02-2.16,1.09-.05,1.48-.1,3.37-.39,2.04-.31,4.62-.7,5.98-.87,1.53-.2,2.75-.41,3.4-.54.12-.03.17-.03.25-.03.22,0,.31.1.46.53.14.36.24.87.24,1.1,0,.2-.07.27-.31.27-.36,0-.68.03-1,.08-2.87.48-5.17,2.99-5.17,5.64,0,1.99,1.56,3.3,4.22,3.54.24.02.32.1.32.31,0,.43-.17,1.24-.32,1.62-.08.19-.22.27-.44.27s-.73-.1-1.26-.26c-2.89-.85-4.4-2.69-4.4-5.29,0-1.41.46-2.72,1.34-3.84.48-.61.88-.95,1.85-1.61-2.23.37-4.57.82-5.86,1.14Z"/>
        <path class="cls-3" d="M168.32,37.53c-.31.02-.49.03-.7.05-.15.02-.17.02-.19.02-.14,0-.2-.05-.25-.22-.08-.27-.2-1.17-.22-1.68.19.02.68.03,1.29.03.19,0,1.53-.08,2.12-.14.29-1.38.39-2.09.39-3.01,1.75.24,2.38.44,2.38.76,0,.12-.02.15-.27.54-.14.2-.19.39-.48,1.44.8-.14,1.27-.25,1.9-.46.12-.03.17-.05.26-.05.12,0,.15.08.25.58.08.42.14.78.14.97,0,.2-.05.24-.49.34-.58.14-1.56.31-2.62.44-.63,1.9-1.05,2.92-1.84,4.52-.6,1.19-.94,1.82-1.39,2.53-.14.2-.22.27-.34.27-.17,0-.65-.26-1.24-.7-.27-.19-.34-.27-.34-.39s.07-.22.29-.53c.49-.61,1.14-1.67,1.7-2.79.48-.94.65-1.33,1.14-2.67-.66.05-.71.07-1.5.12ZM173.91,47.33c-1.85,0-3.11-1.02-3.11-2.53s1.31-2.74,3.06-2.74c.41,0,.6.02,1.29.12-.07-.82-.07-1.14-.14-2.72,0-.32-.03-.77-.07-1.31.87.09,1.53.19,1.85.32.14.05.2.14.2.27,0,.08-.02.15-.03.27-.08.36-.1.61-.1,1.07,0,.63.05,1.7.1,2.53,1.21.54,1.7.82,2.55,1.48.37.29.51.44.51.58,0,.17-.08.32-.56,1.09-.2.34-.36.49-.48.49q-.1,0-.58-.44c-.37-.37-.8-.66-1.39-1.02,0,1.58-1.16,2.53-3.11,2.53ZM173.88,43.69c-.82,0-1.38.39-1.38.99,0,.56.51.92,1.27.92.9,0,1.38-.46,1.38-1.36,0-.14,0-.27-.02-.27-.34-.17-.8-.27-1.26-.27ZM180.24,38.86c-.2.29-.31.37-.42.37-.08,0-.15-.03-.27-.15-.43-.41-1.02-.85-1.65-1.24q-.41-.25-1.16-.6c-.24-.1-.32-.17-.32-.31,0-.12.08-.27.34-.66.41-.59.51-.7.66-.7.32,0,1.58.65,2.48,1.26.73.49.95.7.95.88,0,.14-.27.65-.61,1.14Z"/>
        <path class="cls-3" d="M188.4,42.58c.05.08.07.15.07.24,0,.12-.02.14-.17.51-.34.78-.75,2.01-.95,2.92-.05.19-.1.29-.17.32-.08.03-.66.12-.85.12h-.07c-.08,0-.2-.02-.34-.02-.22,0-.27-.05-.34-.25-.32-1.1-.58-3.38-.58-5.1,0-1.87.12-3.03.59-5.58.17-.92.25-1.43.32-1.99.71.14,1.33.31,1.84.54.29.12.37.2.37.37,0,.12-.02.17-.2.44-.56.9-1.19,4.5-1.19,6.94,0,.39.02.92.07,1.77.48-1.07.65-1.39,1.04-2.23.15.36.26.53.56.99ZM192.09,43.79c.54.29,1.19.39,2.33.39s1.73-.08,2.79-.39c.1-.03.19-.05.24-.05.12,0,.2.07.22.24.08.58.15,1.26.15,1.6,0,.17-.05.22-.29.29-.92.24-1.85.36-2.99.36-1.56,0-2.53-.19-3.33-.66-.75-.46-1.53-1.39-1.53-1.85,0-.24.36-.56,1.27-1.12.31.61.59.92,1.14,1.21ZM190.9,35.12c.37.08,1.46.15,2.29.15,1.12,0,2.24-.08,3.3-.27q.08-.02.15-.02c.12,0,.17.05.2.19.03.17.08.92.08,1.38,0,.25-.05.34-.24.37-.7.14-1.85.22-3.08.22-1.46,0-2.77-.09-2.94-.19-.08-.05-.12-.17-.12-.48,0-.46.05-1.14.08-1.27.02-.07.07-.1.17-.1.02,0,.05,0,.08.02Z"/>
        <path class="cls-3" d="M204.29,35.89c.39-1.02.77-1.56,1.41-2.11.78-.65,1.72-.95,2.91-.95,2.55,0,4.18,1.39,4.18,3.57,0,.73-.2,1.43-.59,1.99-.31.44-.44.58-1.39,1.44-1.33,1.19-1.61,1.65-1.61,2.55v.9h-1.73v-.95c0-.76.15-1.44.46-1.99.24-.42.49-.71,1.17-1.39.71-.7.94-.95,1.12-1.26.24-.34.37-.82.37-1.27,0-1.14-.77-1.85-1.97-1.85s-1.92.63-2.43,2.11l-1.89-.78ZM209.72,45.8c0,.75-.59,1.34-1.34,1.34s-1.34-.59-1.34-1.34.59-1.34,1.34-1.34,1.34.59,1.34,1.34Z"/>
      </g>
      <g>
        <g>
          <path class="cls-3" d="M43.64,35.58c.02-1.97.63-3.49,1.83-4.55,1.13-1.05,2.47-1.58,4.03-1.58s2.98.53,4.1,1.58c1.15,1.06,1.74,2.58,1.77,4.56v9.42c-.04,1.96-.63,3.48-1.77,4.54-1.13,1.05-2.5,1.59-4.1,1.61-1.56-.02-2.91-.56-4.03-1.61-1.2-1.06-1.81-2.57-1.83-4.53v-9.44ZM52.43,35.77c-.06-2.14-1.03-3.23-2.92-3.27-1.9.04-2.87,1.13-2.91,3.27v9.07c.04,2.16,1.01,3.25,2.91,3.27,1.89-.02,2.87-1.11,2.92-3.27v-9.07Z"/>
          <path class="cls-3" d="M62.73,32.86l-2.94,2.23v-3.26l2.94-2.2h2.96v21.36h-2.96v-18.13Z"/>
        </g>
        <path class="cls-3" d="M33.72,42.84c-.76.79-1.8,1.41-3.01,1.81-.17-.32-.31-.52-.56-.82,1.2-.29,2.21-.79,2.94-1.47h-1.5c-.05.18-.06.22-.13.43l-1.01-.02c.24-.56.38-1.02.49-1.58.08-.39.14-.77.14-.95.17.02.4.03.82.03h1.78l-.02-.58h-1.93c-.34,0-.56,0-.8.04v-.83c-.1.08-.13.12-.26.23-.17-.29-.35-.5-.56-.69.74-.57,1.16-1.12,1.35-1.76l.93.17c-.11.23-.14.29-.25.47h1.11c.41,0,.64-.02.85-.04v.7c.34-.4.55-.78.7-1.3l.92.16q-.07.17-.22.49h1.65c.46,0,.67,0,.95-.05v.9c-.26-.04-.52-.05-.9-.05h-.68c.23.33.23.35.38.59l-.71.2h.41c.43,0,.59,0,.81-.03-.03.16-.04.3-.04.61v.91c0,.31,0,.45.04.63-.2-.02-.47-.03-.81-.03h-1.99v.57h2.47c.33,0,.52,0,.74-.03-.02.11-.02.17-.03.26t-.03.26s-.02.22-.05.55c-.09.86-.14,1.07-.31,1.27-.17.2-.43.26-1.02.26-.25,0-.43,0-.8-.03-.05-.36-.11-.56-.22-.85.33.04.74.08.95.08.47,0,.49-.05.55-1.01h-2.22l.02,1.45c0,.46.02.68.06.95h-1.02c.04-.25.05-.4.05-.75v-.22l-.02-.96ZM32.48,38.94c-.11-.29-.22-.5-.39-.8h-.48c-.21.29-.4.5-.68.77.21.03.38.04.79.04h.75ZM33.69,41.04h-1.77c-.03.19-.04.21-.12.57h1.9v-.57ZM34.18,38.94c-.13-.16-.31-.33-.56-.51.15-.12.2-.15.32-.27-.15,0-.32-.02-.49-.02h-.48c.11.17.17.26.34.58l-.71.22h1.58ZM36.01,38.94c-.1-.22-.26-.51-.44-.79h-.53c-.23.33-.42.55-.69.79h1.67ZM34.59,40.28h1.87v-.58h-1.88v.58Z"/>
        <path class="cls-3" d="M78.6,44.74v-.47h-5.38v.47h-1.01c.04-.28.05-.64.05-1.12v-5.46c0-.42-.02-.69-.05-1.04.32.04.59.05,1.02.05h5.36c.42,0,.7,0,1.02-.05-.04.32-.04.6-.04,1.04v5.47c0,.47.02.89.04,1.11h-1ZM73.22,43.42h5.38v-5.39h-5.38v5.39ZM76.82,39.01c.38,0,.6,0,.83-.03-.02.21-.03.41-.03.68v2.06c0,.29,0,.47.03.68-.26-.02-.47-.03-.83-.03h-1.85c-.43,0-.57,0-.84.03.03-.23.04-.42.04-.68v-2.06c0-.25,0-.45-.04-.68.22.02.46.03.84.03h1.85ZM75.08,41.58h1.63v-1.76h-1.63v1.76Z"/>
      </g>
      <rect class="cls-2" x="95.06" y="32.52" width="1.42" height="15.06"/>
    </g>
  </g>
</svg>